Khula-wt232.83.ufo
<glyph name="quotedbl.deva" format="1">
  <advance width="739"/>
  <unicode hex="0022"/>
  <outline>
    <contour>
      <point x="287" y="1316" type="line"/>
      <point x="251" y="841" type="line"/>
      <point x="157" y="841" type="line"/>
      <point x="120" y="1316" type="line"/>
    </contour>
    <contour>
      <point x="619" y="1316" type="line"/>
      <point x="582" y="841" type="line"/>
      <point x="489" y="841" type="line"/>
      <point x="452" y="1316" type="line"/>
    </contour>
  </outline>
</glyph>
<glyph name="colon.deva" format="1">
  <advance width="490"/>
  <unicode hex="003A"/>
  <outline>
    <contour>
      <point x="137" y="95" type="curve" smooth="yes"/>
      <point x="137" y="176"/>
      <point x="175" y="218"/>
      <point x="243" y="218" type="curve" smooth="yes"/>
      <point x="312" y="218"/>
      <point x="354" y="176"/>
      <point x="354" y="95" type="curve" smooth="yes"/>
      <point x="354" y="18"/>
      <point x="311" y="-26"/>
      <point x="243" y="-26" type="curve" smooth="yes"/>
      <point x="182" y="-26"/>
      <point x="137" y="10"/>
    </contour>
    <contour>
      <point x="137" y="890" type="curve" smooth="yes"/>
      <point x="137" y="971"/>
      <point x="172" y="1012"/>
      <point x="243" y="1012" type="curve" smooth="yes"/>
      <point x="317" y="1012"/>
      <point x="354" y="971"/>
      <point x="354" y="890" type="curve" smooth="yes"/>
      <point x="354" y="813"/>
      <point x="311" y="769"/>
      <point x="243" y="769" type="curve" smooth="yes"/>
      <point x="182" y="769"/>
      <point x="137" y="803"/>
    </contour>
  </outline>
</glyph>
<glyph name="J" format="1">
  <advance width="492"/>
  <unicode hex="004A"/>
  <outline>
    <contour>
      <point x="-11" y="-347" type="curve" smooth="yes"/>
      <point x="-67" y="-347"/>
      <point x="-111" y="-339"/>
      <point x="-144" y="-322" type="curve"/>
      <point x="-144" y="-192" type="line"/>
      <point x="-101" y="-204"/>
      <point x="-57" y="-210"/>
      <point x="-11" y="-210" type="curve" smooth="yes"/>
      <point x="108" y="-210"/>
      <point x="171" y="-136"/>
      <point x="171" y="0" type="curve" smooth="yes"/>
      <point x="171" y="1316" type="line"/>
      <point x="324" y="1316" type="line"/>
      <point x="324" y="13" type="line" smooth="yes"/>
      <point x="324" y="-215"/>
      <point x="205" y="-347"/>
    </contour>
  </outline>
</glyph>
<glyph name="Q" format="1">
  <advance width="1435"/>
  <unicode hex="0051"/>
  <outline>
    <contour>
      <point x="1323" y="660" type="curve" smooth="yes"/>
      <point x="1323" y="491"/>
      <point x="1289" y="351"/>
      <point x="1221" y="239" type="curve" smooth="yes"/>
      <point x="1154" y="128"/>
      <point x="1058" y="52"/>
      <point x="934" y="13" type="curve"/>
      <point x="1247" y="-313" type="line"/>
      <point x="1025" y="-313" type="line"/>
      <point x="769" y="-16" type="line"/>
      <point x="719" y="-18" type="line"/>
      <point x="525" y="-18"/>
      <point x="375" y="41"/>
      <point x="270" y="159" type="curve" smooth="yes"/>
      <point x="165" y="278"/>
      <point x="112" y="445"/>
      <point x="112" y="661" type="curve" smooth="yes"/>
      <point x="112" y="876"/>
      <point x="165" y="1042"/>
      <point x="270" y="1159" type="curve" smooth="yes"/>
      <point x="376" y="1277"/>
      <point x="526" y="1336"/>
      <point x="721" y="1336" type="curve" smooth="yes"/>
      <point x="910" y="1336"/>
      <point x="1057" y="1276"/>
      <point x="1163" y="1156" type="curve" smooth="yes"/>
      <point x="1270" y="1036"/>
      <point x="1323" y="871"/>
    </contour>
    <contour>
      <point x="274" y="660" type="curve" smooth="yes"/>
      <point x="274" y="303"/>
      <point x="430" y="116"/>
      <point x="719" y="116" type="curve" smooth="yes"/>
      <point x="1011" y="116"/>
      <point x="1161" y="301"/>
      <point x="1161" y="660" type="curve" smooth="yes"/>
      <point x="1161" y="1013"/>
      <point x="1012" y="1200"/>
      <point x="721" y="1200" type="curve" smooth="yes"/>
      <point x="429" y="1200"/>
      <point x="274" y="1011"/>
    </contour>
  </outline>
</glyph>
<glyph name="bracketright.deva" format="1">
  <advance width="607"/>
  <unicode hex="005D"/>
  <outline>
    <contour>
      <point x="46" y="-164" type="line"/>
      <point x="306" y="-164" type="line"/>
      <point x="306" y="1189" type="line"/>
      <point x="46" y="1189" type="line"/>
      <point x="46" y="1316" type="line"/>
      <point x="457" y="1316" type="line"/>
      <point x="457" y="-292" type="line"/>
      <point x="46" y="-292" type="line"/>
    </contour>
  </outline>
</glyph>
<glyph name="asciicircum.deva" format="1">
  <advance width="999"/>
  <unicode hex="005E"/>
  <outline>
    <contour>
      <point x="44" y="496" type="line"/>
      <point x="435" y="1326" type="line"/>
      <point x="524" y="1326" type="line"/>
      <point x="953" y="496" type="line"/>
      <point x="816" y="496" type="line"/>
      <point x="481" y="1166" type="line"/>
      <point x="181" y="496" type="line"/>
    </contour>
  </outline>
</glyph>
<glyph name="bar.deva" format="1">
  <advance width="1015"/>
  <unicode hex="007C"/>
  <outline>
    <contour>
      <point x="445" y="1400" type="line"/>
      <point x="571" y="1400" type="line"/>
      <point x="571" y="-446" type="line"/>
      <point x="445" y="-446" type="line"/>
    </contour>
  </outline>
</glyph>
<glyph name="adeva" format="1">
  <advance width="1566"/>
  <unicode hex="0905"/>
  <outline>
    <contour>
      <point x="322" y="685" type="line"/>
      <point x="295" y="804" type="line"/>
      <point x="302" y="805" type="line"/>
      <point x="574" y="809"/>
      <point x="679" y="903"/>
      <point x="679" y="1008" type="curve" smooth="yes"/>
      <point x="679" y="1096"/>
      <point x="608" y="1165"/>
      <point x="485" y="1165" type="curve" smooth="yes"/>
      <point x="390" y="1165"/>
      <point x="298" y="1132"/>
      <point x="214" y="1079" type="curve"/>
      <point x="170" y="1199" type="line"/>
      <point x="254" y="1249"/>
      <point x="361" y="1286"/>
      <point x="485" y="1286" type="curve" smooth="yes"/>
      <point x="696" y="1286"/>
      <point x="816" y="1169"/>
      <point x="816" y="999" type="curve" smooth="yes"/>
      <point x="816" y="828"/>
      <point x="652" y="692"/>
      <point x="333" y="685" type="curve" smooth="yes"/>
    </contour>
    <contour>
      <point x="610" y="822" type="line"/>
      <point x="769" y="740"/>
      <point x="858" y="643"/>
      <point x="858" y="480" type="curve" smooth="yes"/>
      <point x="858" y="310"/>
      <point x="726" y="174"/>
      <point x="518" y="174" type="curve" smooth="yes"/>
      <point x="361" y="174"/>
      <point x="235" y="233"/>
      <point x="108" y="329" type="curve"/>
      <point x="145" y="447" type="line"/>
      <point x="267" y="350"/>
      <point x="373" y="302"/>
      <point x="493" y="302" type="curve" smooth="yes"/>
      <point x="640" y="302"/>
      <point x="717" y="391"/>
      <point x="717" y="506" type="curve" smooth="yes"/>
      <point x="717" y="608"/>
      <point x="649" y="687"/>
      <point x="517" y="743" type="curve"/>
    </contour>
    <contour>
      <point x="754" y="659" type="line"/>
      <point x="816" y="638"/>
      <point x="873" y="631"/>
      <point x="955" y="631" type="curve" smooth="yes"/>
      <point x="1040" y="631"/>
      <point x="1135" y="653"/>
      <point x="1198" y="698" type="curve"/>
      <point x="1198" y="550" type="line"/>
      <point x="1156" y="529"/>
      <point x="1072" y="510"/>
      <point x="983" y="510" type="curve" smooth="yes"/>
      <point x="904" y="510"/>
      <point x="835" y="520"/>
      <point x="768" y="533" type="curve"/>
    </contour>
    <contour>
      <point x="1178" y="1196" type="line"/>
      <point x="1326" y="1196" type="line"/>
      <point x="1326" y="0" type="line"/>
      <point x="1178" y="0" type="line"/>
    </contour>
    <contour>
      <point x="1596" y="1165" type="line"/>
      <point x="957" y="1165" type="line"/>
      <point x="957" y="1279" type="line"/>
      <point x="1596" y="1279" type="line"/>
    </contour>
  </outline>
</glyph>
<glyph name="ideva" format="1">
  <advance width="1011"/>
  <unicode hex="0907"/>
  <outline>
    <contour>
      <point x="498" y="128" type="line"/>
      <point x="752" y="-147" type="line"/>
      <point x="658" y="-220" type="line"/>
      <point x="354" y="115" type="line"/>
      <point x="429" y="60" type="line"/>
      <point x="231" y="60"/>
      <point x="136" y="121"/>
      <point x="136" y="191" type="curve" smooth="yes"/>
      <point x="136" y="250"/>
      <point x="185" y="300"/>
      <point x="254" y="300" type="curve" smooth="yes"/>
      <point x="316" y="300"/>
      <point x="382" y="263"/>
      <point x="484" y="150" type="curve"/>
    </contour>
    <contour>
      <point x="661" y="1200" type="line"/>
      <point x="809" y="1200" type="line"/>
      <point x="809" y="837" type="line"/>
      <point x="423" y="837" type="line"/>
      <point x="295" y="837"/>
      <point x="247" y="785"/>
      <point x="247" y="710" type="curve" smooth="yes"/>
      <point x="247" y="649"/>
      <point x="296" y="593"/>
      <point x="387" y="557" type="curve"/>
      <point x="313" y="561" type="line"/>
      <point x="404" y="601"/>
      <point x="497" y="625"/>
      <point x="602" y="625" type="curve" smooth="yes"/>
      <point x="781" y="625"/>
      <point x="903" y="523"/>
      <point x="903" y="372" type="curve" smooth="yes"/>
      <point x="903" y="200"/>
      <point x="741" y="65"/>
      <point x="438" y="65" type="curve"/>
      <point x="407" y="180" type="line"/>
      <point x="655" y="180"/>
      <point x="767" y="271"/>
      <point x="767" y="371" type="curve" smooth="yes"/>
      <point x="767" y="451"/>
      <point x="706" y="505"/>
      <point x="585" y="505" type="curve" smooth="yes"/>
      <point x="512" y="505"/>
      <point x="434" y="484"/>
      <point x="359" y="445" type="curve"/>
      <point x="353" y="445" type="line"/>
      <point x="182" y="524"/>
      <point x="112" y="622"/>
      <point x="112" y="735" type="curve" smooth="yes"/>
      <point x="112" y="852"/>
      <point x="200" y="950"/>
      <point x="405" y="950" type="curve" smooth="yes"/>
      <point x="707" y="950" type="line"/>
      <point x="661" y="904" type="line"/>
    </contour>
    <contour>
      <point x="1041" y="1165" type="line"/>
      <point x="-30" y="1165" type="line"/>
      <point x="-30" y="1279" type="line"/>
      <point x="1041" y="1279" type="line"/>
    </contour>
  </outline>
</glyph>
<glyph name="udeva" format="1">
  <advance width="1066"/>
  <unicode hex="0909"/>
  <outline>
    <contour>
      <point x="316" y="636" type="line"/>
      <point x="286" y="758" type="line"/>
      <point x="296" y="759" type="line"/>
      <point x="596" y="764"/>
      <point x="709" y="872"/>
      <point x="709" y="984" type="curve" smooth="yes"/>
      <point x="709" y="1065"/>
      <point x="670" y="1134"/>
      <point x="567" y="1185" type="curve"/>
      <point x="629" y="1267" type="line"/>
      <point x="774" y="1204"/>
      <point x="845" y="1113"/>
      <point x="845" y="972" type="curve" smooth="yes"/>
      <point x="845" y="796"/>
      <point x="683" y="643"/>
      <point x="325" y="637" type="curve" smooth="yes"/>
    </contour>
    <contour>
      <point x="-30" y="1165" type="line"/>
      <point x="-30" y="1279" type="line"/>
      <point x="1096" y="1279" type="line"/>
      <point x="1096" y="1165" type="line"/>
    </contour>
    <contour>
      <point x="640" y="773" type="line"/>
      <point x="834" y="680"/>
      <point x="932" y="542"/>
      <point x="932" y="382" type="curve" smooth="yes"/>
      <point x="932" y="188"/>
      <point x="781" y="47"/>
      <point x="556" y="47" type="curve" smooth="yes"/>
      <point x="392" y="47"/>
      <point x="247" y="103"/>
      <point x="87" y="216" type="curve"/>
      <point x="130" y="336" type="line"/>
      <point x="266" y="235"/>
      <point x="396" y="178"/>
      <point x="524" y="178" type="curve" smooth="yes"/>
      <point x="687" y="178"/>
      <point x="788" y="277"/>
      <point x="788" y="403" type="curve" smooth="yes"/>
      <point x="788" y="515"/>
      <point x="700" y="633"/>
      <point x="543" y="687" type="curve"/>
    </contour>
    <contour>
      <point x="598" y="1279" type="move" name="top"/>
    </contour>
  </outline>
</glyph>
<glyph name="edeva" format="1">
  <advance width="1161"/>
  <unicode hex="090F"/>
  <outline>
    <contour>
      <point x="947" y="1215" type="line"/>
      <point x="947" y="742" type="line"/>
      <point x="947" y="654"/>
      <point x="917" y="574"/>
      <point x="851" y="482" type="curve"/>
      <point x="723" y="551" type="line"/>
      <point x="774" y="635"/>
      <point x="799" y="693"/>
      <point x="799" y="816" type="curve" smooth="yes"/>
      <point x="799" y="1215" type="line"/>
    </contour>
    <contour>
      <point x="-30" y="1165" type="line"/>
      <point x="-30" y="1279" type="line"/>
      <point x="1191" y="1279" type="line"/>
      <point x="1191" y="1165" type="line"/>
    </contour>
    <contour>
      <point x="186" y="1215" type="line"/>
      <point x="334" y="1215" type="line"/>
      <point x="334" y="710" type="line" smooth="yes"/>
      <point x="334" y="592"/>
      <point x="370" y="540"/>
      <point x="453" y="485" type="curve" smooth="yes"/>
      <point x="831" y="226" type="line"/>
      <point x="940" y="152"/>
      <point x="972" y="91"/>
      <point x="972" y="18" type="curve" smooth="yes"/>
      <point x="972" y="-38"/>
      <point x="953" y="-87"/>
      <point x="913" y="-162" type="curve"/>
      <point x="763" y="-119" type="line"/>
      <point x="795" y="-66"/>
      <point x="812" y="-22"/>
      <point x="812" y="14" type="curve" smooth="yes"/>
      <point x="812" y="57"/>
      <point x="790" y="94"/>
      <point x="723" y="140" type="curve" smooth="yes"/>
      <point x="357" y="389" type="line"/>
      <point x="224" y="479"/>
      <point x="186" y="563"/>
      <point x="186" y="726" type="curve" smooth="yes"/>
    </contour>
    <contour>
      <point x="-53" y="8" type="move" name="x44"/>
    </contour>
  </outline>
</glyph>
<glyph name="khadeva" format="1">
  <advance width="1660"/>
  <unicode hex="0916"/>
  <outline>
    <contour>
      <point x="1304" y="654" type="curve"/>
      <point x="1304" y="491" type="line"/>
      <point x="1236" y="441"/>
      <point x="1150" y="414"/>
      <point x="1060" y="414" type="curve" smooth="yes"/>
      <point x="878" y="414"/>
      <point x="744" y="546"/>
      <point x="744" y="708" type="curve" smooth="yes"/>
      <point x="744" y="849"/>
      <point x="848" y="959"/>
      <point x="1036" y="959" type="curve" smooth="yes"/>
      <point x="1145" y="959"/>
      <point x="1233" y="935"/>
      <point x="1320" y="887" type="curve"/>
      <point x="1320" y="771" type="line"/>
      <point x="1244" y="821"/>
      <point x="1152" y="847"/>
      <point x="1063" y="847" type="curve" smooth="yes"/>
      <point x="928" y="847"/>
      <point x="870" y="772"/>
      <point x="870" y="690" type="curve" smooth="yes"/>
      <point x="870" y="599"/>
      <point x="942" y="529"/>
      <point x="1050" y="529" type="curve" smooth="yes"/>
      <point x="1140" y="529"/>
      <point x="1227" y="571"/>
    </contour>
    <contour>
      <point x="224" y="655" type="line"/>
      <point x="409" y="720"/>
      <point x="458" y="811"/>
      <point x="458" y="980" type="curve" smooth="yes"/>
      <point x="458" y="1209" type="line"/>
      <point x="606" y="1209" type="line"/>
      <point x="606" y="966" type="line" smooth="yes"/>
      <point x="606" y="784"/>
      <point x="558" y="625"/>
      <point x="307" y="525" type="curve"/>
    </contour>
    <contour>
      <point x="-30" y="1165" type="line"/>
      <point x="-30" y="1279" type="line"/>
      <point x="1690" y="1279" type="line"/>
      <point x="1690" y="1165" type="line"/>
    </contour>
    <contour>
      <point x="277" y="611" type="line"/>
      <point x="331" y="518"/>
      <point x="380" y="454"/>
      <point x="448" y="386" type="curve" smooth="yes"/>
      <point x="592" y="242"/>
      <point x="756" y="179"/>
      <point x="943" y="179" type="curve" smooth="yes"/>
      <point x="1082" y="179"/>
      <point x="1212" y="207"/>
      <point x="1329" y="271" type="curve"/>
      <point x="1356" y="145" type="line"/>
      <point x="1254" y="93"/>
      <point x="1119" y="62"/>
      <point x="942" y="62" type="curve" smooth="yes"/>
      <point x="705" y="62"/>
      <point x="509" y="143"/>
      <point x="338" y="314" type="curve" smooth="yes"/>
      <point x="244" y="407"/>
      <point x="146" y="560"/>
      <point x="93" y="663" type="curve" smooth="yes"/>
      <point x="76" y="697"/>
      <point x="64" y="727"/>
      <point x="64" y="749" type="curve" smooth="yes"/>
      <point x="64" y="787"/>
      <point x="93" y="815"/>
      <point x="128" y="815" type="curve" smooth="yes"/>
      <point x="164" y="815"/>
      <point x="187" y="798"/>
      <point x="216" y="753" type="curve" smooth="yes"/>
      <point x="283" y="638" type="line"/>
    </contour>
    <contour>
      <point x="1271" y="1196" type="line"/>
      <point x="1419" y="1196" type="line"/>
      <point x="1419" y="0" type="line"/>
      <point x="1271" y="0" type="line"/>
    </contour>
    <contour>
      <point x="1271" y="1279" type="move" name="top"/>
    </contour>
  </outline>
</glyph>
<glyph name="ghadeva" format="1">
  <advance width="1314"/>
  <unicode hex="0918"/>
  <outline>
    <contour>
      <point x="713" y="754" type="line"/>
      <point x="699" y="754" type="line"/>
      <point x="487" y="751"/>
      <point x="409" y="657"/>
      <point x="409" y="551" type="curve" smooth="yes"/>
      <point x="409" y="454"/>
      <point x="493" y="376"/>
      <point x="612" y="376" type="curve" smooth="yes"/>
      <point x="749" y="376"/>
      <point x="872" y="438"/>
      <point x="961" y="553" type="curve"/>
      <point x="961" y="364" type="line"/>
      <point x="881" y="297"/>
      <point x="765" y="248"/>
      <point x="631" y="248" type="curve" smooth="yes"/>
      <point x="407" y="248"/>
      <point x="271" y="387"/>
      <point x="271" y="569" type="curve" smooth="yes"/>
      <point x="271" y="723"/>
      <point x="382" y="875"/>
      <point x="662" y="875" type="curve" smooth="yes"/>
      <point x="675" y="875" type="line"/>
    </contour>
    <contour>
      <point x="398" y="747" type="line"/>
      <point x="181" y="802"/>
      <point x="98" y="926"/>
      <point x="98" y="1064" type="curve" smooth="yes"/>
      <point x="98" y="1123"/>
      <point x="114" y="1183"/>
      <point x="151" y="1239" type="curve"/>
      <point x="300" y="1208" type="line"/>
      <point x="261" y="1158"/>
      <point x="245" y="1102"/>
      <point x="245" y="1048" type="curve" smooth="yes"/>
      <point x="245" y="957"/>
      <point x="313" y="865"/>
      <point x="522" y="839" type="curve"/>
    </contour>
    <contour>
      <point x="-30" y="1165" type="line"/>
      <point x="-30" y="1279" type="line"/>
      <point x="1344" y="1279" type="line"/>
      <point x="1344" y="1165" type="line"/>
    </contour>
    <contour>
      <point x="926" y="1196" type="line"/>
      <point x="1074" y="1196" type="line"/>
      <point x="1074" y="0" type="line"/>
      <point x="926" y="0" type="line"/>
    </contour>
    <contour>
      <point x="926" y="1279" type="move" name="top"/>
    </contour>
  </outline>
</glyph>
<glyph name="chadeva" format="1">
  <advance width="1465"/>
  <unicode hex="091B"/>
  <outline>
    <contour>
      <point x="637" y="774" type="curve"/>
      <point x="676" y="652" type="line"/>
      <point x="674" y="652"/>
      <point x="671" y="652"/>
      <point x="669" y="652" type="curve" smooth="yes"/>
      <point x="432" y="648"/>
      <point x="361" y="535"/>
      <point x="361" y="423" type="curve" smooth="yes"/>
      <point x="361" y="298"/>
      <point x="472" y="197"/>
      <point x="666" y="197" type="curve" smooth="yes"/>
      <point x="962" y="197"/>
      <point x="1226" y="438"/>
      <point x="1226" y="678" type="curve" smooth="yes"/>
      <point x="1226" y="800"/>
      <point x="1148" y="877"/>
      <point x="1067" y="877" type="curve" smooth="yes"/>
      <point x="991" y="877"/>
      <point x="938" y="815"/>
      <point x="938" y="721" type="curve" smooth="yes"/>
      <point x="938" y="619"/>
      <point x="1015" y="507"/>
      <point x="1206" y="395" type="curve"/>
      <point x="1132" y="307" type="line"/>
      <point x="917" y="434"/>
      <point x="807" y="588"/>
      <point x="807" y="740" type="curve" smooth="yes"/>
      <point x="807" y="880"/>
      <point x="910" y="995"/>
      <point x="1059" y="995" type="curve" smooth="yes"/>
      <point x="1216" y="995"/>
      <point x="1354" y="875"/>
      <point x="1354" y="665" type="curve" smooth="yes"/>
      <point x="1354" y="386"/>
      <point x="1051" y="68"/>
      <point x="677" y="68" type="curve" smooth="yes"/>
      <point x="363" y="68"/>
      <point x="211" y="245"/>
      <point x="211" y="444" type="curve" smooth="yes"/>
      <point x="211" y="613"/>
      <point x="338" y="771"/>
      <point x="632" y="774" type="curve" smooth="yes"/>
      <point x="634" y="774"/>
      <point x="635" y="774"/>
    </contour>
    <contour>
      <point x="519" y="739" type="curve"/>
      <point x="401" y="648" type="line"/>
      <point x="204" y="711"/>
      <point x="120" y="827"/>
      <point x="120" y="972" type="curve" smooth="yes"/>
      <point x="120" y="1095"/>
      <point x="215" y="1232"/>
      <point x="429" y="1266" type="curve"/>
      <point x="519" y="1186" type="line"/>
      <point x="336" y="1158"/>
      <point x="269" y="1039"/>
      <point x="269" y="954" type="curve" smooth="yes"/>
      <point x="269" y="854"/>
      <point x="345" y="767"/>
    </contour>
    <contour>
      <point x="1495" y="1165" type="line"/>
      <point x="-30" y="1165" type="line"/>
      <point x="-30" y="1279" type="line"/>
      <point x="1495" y="1279" type="line"/>
    </contour>
    <contour>
      <point x="988" y="1224" type="line"/>
      <point x="1136" y="1224" type="line"/>
      <point x="1136" y="940" type="line"/>
      <point x="988" y="940" type="line"/>
    </contour>
    <contour>
      <point x="607" y="78" type="move" name="btm"/>
    </contour>
    <contour>
      <point x="988" y="1279" type="move" name="top"/>
    </contour>
  </outline>
</glyph>
<glyph name="jadeva" format="1">
  <advance width="1555"/>
  <unicode hex="091C"/>
  <outline>
    <contour>
      <point x="-30" y="1165" type="line"/>
      <point x="-30" y="1279" type="line"/>
      <point x="1585" y="1279" type="line"/>
      <point x="1585" y="1165" type="line"/>
    </contour>
    <contour>
      <point x="658" y="764" type="line"/>
      <point x="665" y="805" type="line"/>
      <point x="811" y="738"/>
      <point x="919" y="607"/>
      <point x="919" y="449" type="curve" smooth="yes"/>
      <point x="919" y="286"/>
      <point x="806" y="160"/>
      <point x="615" y="160" type="curve" smooth="yes"/>
      <point x="419" y="160"/>
      <point x="242" y="294"/>
      <point x="78" y="557" type="curve"/>
      <point x="155" y="662" type="line"/>
      <point x="322" y="398"/>
      <point x="459" y="295"/>
      <point x="590" y="295" type="curve" smooth="yes"/>
      <point x="715" y="295"/>
      <point x="782" y="372"/>
      <point x="782" y="477" type="curve" smooth="yes"/>
      <point x="782" y="598"/>
      <point x="667" y="725"/>
      <point x="476" y="780" type="curve"/>
      <point x="476" y="891" type="line"/>
      <point x="1193" y="891" type="line"/>
      <point x="1193" y="764" type="line"/>
    </contour>
    <contour>
      <point x="1166" y="1196" type="line"/>
      <point x="1314" y="1196" type="line"/>
      <point x="1314" y="0" type="line"/>
      <point x="1166" y="0" type="line"/>
    </contour>
    <contour>
      <point x="1166" y="1279" type="move" name="top"/>
    </contour>
  </outline>
</glyph>
<glyph name="tthadeva" format="1">
  <advance width="1245"/>
  <unicode hex="0920"/>
  <outline>
    <contour>
      <point x="1003" y="500" type="curve" smooth="yes"/>
      <point x="1003" y="600"/>
      <point x="947" y="701"/>
      <point x="850" y="772" type="curve"/>
      <point x="627" y="772" type="line" smooth="yes"/>
      <point x="368" y="772"/>
      <point x="266" y="667"/>
      <point x="266" y="498" type="curve" smooth="yes"/>
      <point x="266" y="332"/>
      <point x="419" y="202"/>
      <point x="630" y="202" type="curve" smooth="yes"/>
      <point x="858" y="202"/>
      <point x="1003" y="322"/>
    </contour>
    <contour>
      <point x="1275" y="1165" type="line"/>
      <point x="-30" y="1165" type="line"/>
      <point x="-30" y="1279" type="line"/>
      <point x="1275" y="1279" type="line"/>
    </contour>
    <contour>
      <point x="815" y="1200" type="line"/>
      <point x="963" y="1200" type="line"/>
      <point x="963" y="783" type="line"/>
      <point x="936" y="863" type="line"/>
      <point x="1048" y="780"/>
      <point x="1136" y="642"/>
      <point x="1136" y="480" type="curve" smooth="yes"/>
      <point x="1136" y="252"/>
      <point x="943" y="77"/>
      <point x="643" y="77" type="curve" smooth="yes"/>
      <point x="337" y="77"/>
      <point x="122" y="273"/>
      <point x="122" y="518" type="curve" smooth="yes"/>
      <point x="122" y="747"/>
      <point x="295" y="891"/>
      <point x="564" y="891" type="curve" smooth="yes"/>
      <point x="860" y="891" type="line"/>
      <point x="815" y="854" type="line"/>
    </contour>
    <contour>
      <point x="554.0" y="81.0" type="move" name="btm"/>
    </contour>
    <contour>
      <point x="813.0" y="1279.0" type="move" name="top"/>
    </contour>
  </outline>
</glyph>
<glyph name="ddadeva" format="1">
  <advance width="1156"/>
  <unicode hex="0921"/>
  <outline>
    <contour>
      <point x="761" y="1200" type="line"/>
      <point x="909" y="1200" type="line"/>
      <point x="909" y="837" type="line"/>
      <point x="470" y="837" type="line"/>
      <point x="350" y="837"/>
      <point x="303" y="780"/>
      <point x="303" y="710" type="curve" smooth="yes"/>
      <point x="303" y="645"/>
      <point x="359" y="583"/>
      <point x="453" y="550" type="curve"/>
      <point x="381" y="555" type="line"/>
      <point x="471" y="595"/>
      <point x="565" y="626"/>
      <point x="689" y="626" type="curve" smooth="yes"/>
      <point x="883" y="626"/>
      <point x="1022" y="520"/>
      <point x="1022" y="350" type="curve" smooth="yes"/>
      <point x="1022" y="173"/>
      <point x="878" y="48"/>
      <point x="624" y="48" type="curve" smooth="yes"/>
      <point x="426" y="48"/>
      <point x="293" y="96"/>
      <point x="103" y="202" type="curve"/>
      <point x="136" y="322" type="line"/>
      <point x="304" y="214"/>
      <point x="439" y="165"/>
      <point x="610" y="165" type="curve" smooth="yes"/>
      <point x="791" y="165"/>
      <point x="883" y="248"/>
      <point x="883" y="353" type="curve" smooth="yes"/>
      <point x="883" y="449"/>
      <point x="805" y="505"/>
      <point x="673" y="505" type="curve" smooth="yes"/>
      <point x="578" y="505"/>
      <point x="492" y="476"/>
      <point x="423" y="441" type="curve"/>
      <point x="417" y="441" type="line"/>
      <point x="246" y="518"/>
      <point x="169" y="620"/>
      <point x="169" y="733" type="curve" smooth="yes"/>
      <point x="169" y="840"/>
      <point x="250" y="950"/>
      <point x="458" y="950" type="curve" smooth="yes"/>
      <point x="807" y="950" type="line"/>
      <point x="761" y="904" type="line"/>
    </contour>
    <contour>
      <point x="1186" y="1165" type="line"/>
      <point x="-30" y="1165" type="line"/>
      <point x="-30" y="1279" type="line"/>
      <point x="1186" y="1279" type="line"/>
    </contour>
    <contour>
      <point x="520.0" y="54.0" type="move" name="btm"/>
    </contour>
    <contour>
      <point x="759.0" y="1279.0" type="move" name="top"/>
    </contour>
  </outline>
</glyph>
<glyph name="ddhadeva" format="1">
  <advance width="1147"/>
  <unicode hex="0922"/>
  <outline>
    <contour>
      <point x="1177" y="1165" type="line"/>
      <point x="-30" y="1165" type="line"/>
      <point x="-30" y="1279" type="line"/>
      <point x="1177" y="1279" type="line"/>
    </contour>
    <contour>
      <point x="735" y="1195" type="line"/>
      <point x="883" y="1195" type="line"/>
      <point x="883" y="774" type="line"/>
      <point x="631" y="774" type="line" smooth="yes"/>
      <point x="385" y="774"/>
      <point x="264" y="670"/>
      <point x="264" y="487" type="curve" smooth="yes"/>
      <point x="264" y="317"/>
      <point x="433" y="171"/>
      <point x="669" y="171" type="curve" smooth="yes"/>
      <point x="862" y="171"/>
      <point x="935" y="244"/>
      <point x="935" y="325" type="curve" smooth="yes"/>
      <point x="935" y="387"/>
      <point x="884" y="440"/>
      <point x="796" y="440" type="curve" smooth="yes"/>
      <point x="696" y="440"/>
      <point x="643" y="376"/>
      <point x="643" y="288" type="curve" smooth="yes"/>
      <point x="643" y="232"/>
      <point x="659" y="186"/>
      <point x="693" y="137" type="curve"/>
      <point x="573" y="126" type="line"/>
      <point x="536" y="181"/>
      <point x="518" y="241"/>
      <point x="518" y="307" type="curve" smooth="yes"/>
      <point x="518" y="439"/>
      <point x="614" y="546"/>
      <point x="788" y="546" type="curve" smooth="yes"/>
      <point x="950" y="546"/>
      <point x="1054" y="441"/>
      <point x="1054" y="314" type="curve" smooth="yes"/>
      <point x="1054" y="176"/>
      <point x="924" y="67"/>
      <point x="688" y="67" type="curve" smooth="yes"/>
      <point x="335" y="67"/>
      <point x="122" y="282"/>
      <point x="122" y="525" type="curve" smooth="yes"/>
      <point x="122" y="742"/>
      <point x="283" y="891"/>
      <point x="566" y="891" type="curve" smooth="yes"/>
      <point x="776" y="891" type="line"/>
      <point x="735" y="857" type="line"/>
    </contour>
    <contour>
      <point x="567" y="75" type="move" name="btm"/>
    </contour>
    <contour>
      <point x="733" y="1279" type="move" name="top"/>
    </contour>
  </outline>
</glyph>
<glyph name="nnadeva" format="1">
  <advance width="1532"/>
  <unicode hex="0923"/>
  <outline>
    <contour>
      <point x="674" y="1200" type="line"/>
      <point x="822" y="1200" type="line"/>
      <point x="822" y="747" type="line" smooth="yes"/>
      <point x="822" y="516"/>
      <point x="718" y="367"/>
      <point x="492" y="367" type="curve" smooth="yes"/>
      <point x="270" y="367"/>
      <point x="147" y="508"/>
      <point x="147" y="744" type="curve" smooth="yes"/>
      <point x="147" y="1200" type="line"/>
      <point x="295" y="1200" type="line"/>
      <point x="295" y="700" type="line" smooth="yes"/>
      <point x="295" y="561"/>
      <point x="372" y="491"/>
      <point x="481" y="491" type="curve" smooth="yes"/>
      <point x="601" y="491"/>
      <point x="674" y="568"/>
      <point x="674" y="731" type="curve" smooth="yes"/>
    </contour>
    <contour>
      <point x="-30" y="1165" type="line"/>
      <point x="-30" y="1279" type="line"/>
      <point x="1562" y="1279" type="line"/>
      <point x="1562" y="1165" type="line"/>
    </contour>
    <contour>
      <point x="1144" y="1196" type="line"/>
      <point x="1292" y="1196" type="line"/>
      <point x="1292" y="0" type="line"/>
      <point x="1144" y="0" type="line"/>
    </contour>
    <contour>
      <point x="805" y="1279" type="move" name="top"/>
    </contour>
  </outline>
</glyph>
<glyph name="thadeva" format="1">
  <advance width="1322"/>
  <unicode hex="0925"/>
  <outline>
    <contour>
      <point x="663" y="984" type="curve" smooth="yes"/>
      <point x="663" y="786"/>
      <point x="502" y="650"/>
      <point x="287" y="589" type="curve"/>
      <point x="292" y="662" type="line"/>
      <point x="371" y="529"/>
      <point x="505" y="452"/>
      <point x="633" y="452" type="curve" smooth="yes"/>
      <point x="772" y="452"/>
      <point x="894" y="514"/>
      <point x="987" y="656" type="curve"/>
      <point x="987" y="452" type="line"/>
      <point x="904" y="373"/>
      <point x="804" y="324"/>
      <point x="663" y="324" type="curve" smooth="yes"/>
      <point x="469" y="324"/>
      <point x="270" y="441"/>
      <point x="148" y="664" type="curve"/>
      <point x="148" y="669" type="line"/>
      <point x="395" y="739"/>
      <point x="531" y="839"/>
      <point x="531" y="1001" type="curve" smooth="yes"/>
      <point x="531" y="1123"/>
      <point x="450" y="1193"/>
      <point x="359" y="1193" type="curve" smooth="yes"/>
      <point x="279" y="1193"/>
      <point x="230" y="1140"/>
      <point x="230" y="1063" type="curve" smooth="yes"/>
      <point x="230" y="986"/>
      <point x="306" y="884"/>
      <point x="529" y="872" type="curve"/>
      <point x="475" y="786" type="line"/>
      <point x="223" y="806"/>
      <point x="95" y="944"/>
      <point x="95" y="1087" type="curve" smooth="yes"/>
      <point x="95" y="1208"/>
      <point x="180" y="1313"/>
      <point x="337" y="1313" type="curve" smooth="yes"/>
      <point x="533" y="1313"/>
      <point x="663" y="1169"/>
    </contour>
    <contour>
      <point x="934" y="1196" type="line"/>
      <point x="1082" y="1196" type="line"/>
      <point x="1082" y="0" type="line"/>
      <point x="934" y="0" type="line"/>
    </contour>
    <contour>
      <point x="1352" y="1165" type="line"/>
      <point x="825" y="1165" type="line"/>
      <point x="825" y="1279" type="line"/>
      <point x="1352" y="1279" type="line"/>
    </contour>
    <contour>
      <point x="934" y="1279" type="move" name="top"/>
    </contour>
  </outline>
</glyph>
<glyph name="dadeva" format="1">
  <advance width="1093"/>
  <unicode hex="0926"/>
  <outline>
    <contour>
      <point x="-30" y="1165" type="line"/>
      <point x="-30" y="1279" type="line"/>
      <point x="1123" y="1279" type="line"/>
      <point x="1123" y="1165" type="line"/>
    </contour>
    <contour>
      <point x="697" y="200" type="line"/>
      <point x="815" y="246" type="line"/>
      <point x="1005" y="-143" type="line"/>
      <point x="887" y="-192" type="line"/>
    </contour>
    <contour>
      <point x="598" y="140" type="curve" smooth="yes"/>
      <point x="297" y="140"/>
      <point x="121" y="317"/>
      <point x="121" y="550" type="curve" smooth="yes"/>
      <point x="121" y="736"/>
      <point x="261" y="891"/>
      <point x="545" y="891" type="curve" smooth="yes"/>
      <point x="726" y="891" type="line"/>
      <point x="680" y="843" type="line"/>
      <point x="680" y="1210" type="line"/>
      <point x="828" y="1210" type="line"/>
      <point x="828" y="774" type="line"/>
      <point x="601" y="774" type="line"/>
      <point x="352" y="774"/>
      <point x="264" y="660"/>
      <point x="264" y="521" type="curve" smooth="yes"/>
      <point x="264" y="379"/>
      <point x="375" y="260"/>
      <point x="579" y="260" type="curve" smooth="yes"/>
      <point x="647" y="260"/>
      <point x="695" y="268"/>
      <point x="785" y="298" type="curve"/>
      <point x="680" y="232" type="line"/>
      <point x="654" y="280"/>
      <point x="642" y="311"/>
      <point x="642" y="345" type="curve" smooth="yes"/>
      <point x="642" y="382"/>
      <point x="667" y="418"/>
      <point x="747" y="418" type="curve" smooth="yes"/>
      <point x="861" y="418"/>
      <point x="951" y="368"/>
      <point x="951" y="308" type="curve" smooth="yes"/>
      <point x="951" y="231"/>
      <point x="814" y="140"/>
    </contour>
    <contour>
      <point x="866" y="-147" type="move" name="btm"/>
    </contour>
    <contour>
      <point x="680" y="1279" type="move" name="top"/>
    </contour>
  </outline>
</glyph>
<glyph name="dhadeva" format="1">
  <advance width="1300"/>
  <unicode hex="0927"/>
  <outline>
    <contour>
      <point x="696" y="754" type="line"/>
      <point x="685" y="754" type="line"/>
      <point x="462" y="751"/>
      <point x="391" y="655"/>
      <point x="391" y="550" type="curve" smooth="yes"/>
      <point x="391" y="446"/>
      <point x="488" y="376"/>
      <point x="597" y="376" type="curve" smooth="yes"/>
      <point x="727" y="377"/>
      <point x="855" y="441"/>
      <point x="944" y="557" type="curve"/>
      <point x="944" y="360" type="line"/>
      <point x="854" y="291"/>
      <point x="741" y="250"/>
      <point x="618" y="250" type="curve" smooth="yes"/>
      <point x="404" y="250"/>
      <point x="253" y="382"/>
      <point x="253" y="570" type="curve" smooth="yes"/>
      <point x="253" y="721"/>
      <point x="362" y="875"/>
      <point x="645" y="875" type="curve" smooth="yes"/>
      <point x="657" y="875" type="line"/>
    </contour>
    <contour>
      <point x="376" y="748" type="line"/>
      <point x="183" y="795"/>
      <point x="57" y="900"/>
      <point x="57" y="1065" type="curve" smooth="yes"/>
      <point x="57" y="1207"/>
      <point x="172" y="1313"/>
      <point x="338" y="1313" type="curve" smooth="yes"/>
      <point x="438" y="1313"/>
      <point x="503" y="1293"/>
      <point x="563" y="1265" type="curve"/>
      <point x="540" y="1159" type="line"/>
      <point x="491" y="1182"/>
      <point x="439" y="1197"/>
      <point x="368" y="1197" type="curve" smooth="yes"/>
      <point x="268" y="1197"/>
      <point x="206" y="1132"/>
      <point x="206" y="1043" type="curve" smooth="yes"/>
      <point x="206" y="936"/>
      <point x="308" y="862"/>
      <point x="499" y="838" type="curve"/>
    </contour>
    <contour>
      <point x="912" y="1195" type="line"/>
      <point x="1060" y="1195" type="line"/>
      <point x="1060" y="0" type="line"/>
      <point x="912" y="0" type="line"/>
    </contour>
    <contour>
      <point x="1330" y="1165" type="line"/>
      <point x="812" y="1165" type="line"/>
      <point x="812" y="1279" type="line"/>
      <point x="1330" y="1279" type="line"/>
    </contour>
    <contour>
      <point x="912" y="1279" type="move" name="top"/>
    </contour>
  </outline>
</glyph>
<glyph name="padeva" format="1">
  <advance width="1151"/>
  <unicode hex="092A"/>
  <outline>
    <contour>
      <point x="1181" y="1165" type="line"/>
      <point x="-30" y="1165" type="line"/>
      <point x="-30" y="1279" type="line"/>
      <point x="1181" y="1279" type="line"/>
    </contour>
    <contour>
      <point x="302" y="1206" type="line"/>
      <point x="302" y="738" type="line" smooth="yes"/>
      <point x="302" y="585"/>
      <point x="384" y="520"/>
      <point x="516" y="520" type="curve" smooth="yes"/>
      <point x="614" y="520"/>
      <point x="707" y="552"/>
      <point x="794" y="622" type="curve"/>
      <point x="794" y="450" type="line"/>
      <point x="722" y="415"/>
      <point x="629" y="390"/>
      <point x="539" y="390" type="curve" smooth="yes"/>
      <point x="308" y="390"/>
      <point x="154" y="514"/>
      <point x="154" y="768" type="curve" smooth="yes"/>
      <point x="154" y="1206" type="line"/>
    </contour>
    <contour>
      <point x="763" y="1196" type="line"/>
      <point x="911" y="1196" type="line"/>
      <point x="911" y="0" type="line"/>
      <point x="763" y="0" type="line"/>
    </contour>
    <contour>
      <point x="763" y="1279" type="move" name="top"/>
    </contour>
  </outline>
</glyph>
<glyph name="badeva" format="1">
  <advance width="1168"/>
  <unicode hex="092C"/>
  <outline>
    <contour>
      <point x="765" y="434" type="line"/>
      <point x="668" y="355" type="line"/>
      <point x="298" y="780" type="line"/>
      <point x="395" y="859" type="line"/>
    </contour>
    <contour>
      <point x="1198" y="1165" type="line"/>
      <point x="-30" y="1165" type="line"/>
      <point x="-30" y="1279" type="line"/>
      <point x="1198" y="1279" type="line"/>
    </contour>
    <contour>
      <point x="780" y="1196" type="line"/>
      <point x="928" y="1196" type="line"/>
      <point x="928" y="0" type="line"/>
      <point x="780" y="0" type="line"/>
    </contour>
    <contour>
      <point x="812" y="532" type="curve"/>
      <point x="810" y="364" type="line"/>
      <point x="745" y="300"/>
      <point x="638" y="252"/>
      <point x="522" y="252" type="curve" smooth="yes"/>
      <point x="285" y="252"/>
      <point x="115" y="427"/>
      <point x="115" y="641" type="curve" smooth="yes"/>
      <point x="115" y="828"/>
      <point x="263" y="949"/>
      <point x="484" y="949" type="curve" smooth="yes"/>
      <point x="612" y="949"/>
      <point x="730" y="926"/>
      <point x="845" y="875" type="curve"/>
      <point x="845" y="744" type="line"/>
      <point x="715" y="801"/>
      <point x="607" y="824"/>
      <point x="509" y="824" type="curve" smooth="yes"/>
      <point x="332" y="824"/>
      <point x="251" y="736"/>
      <point x="251" y="618" type="curve" smooth="yes"/>
      <point x="251" y="493"/>
      <point x="354" y="378"/>
      <point x="505" y="378" type="curve" smooth="yes"/>
      <point x="616" y="378"/>
      <point x="716" y="424"/>
    </contour>
    <contour>
      <point x="780.0" y="1279.0" type="move" name="top"/>
    </contour>
  </outline>
</glyph>
<glyph name="bhadeva" format="1">
  <advance width="1362"/>
  <unicode hex="092D"/>
  <outline>
    <contour>
      <point x="973" y="1196" type="line"/>
      <point x="1121" y="1196" type="line"/>
      <point x="1121" y="0" type="line"/>
      <point x="973" y="0" type="line"/>
    </contour>
    <contour>
      <point x="1392" y="1165" type="line"/>
      <point x="835" y="1165" type="line"/>
      <point x="835" y="1279" type="line"/>
      <point x="1392" y="1279" type="line"/>
    </contour>
    <contour>
      <point x="445" y="657" type="line"/>
      <point x="415" y="628" type="line"/>
      <point x="415" y="1015" type="line"/>
      <point x="415" y="1129"/>
      <point x="353" y="1202"/>
      <point x="265" y="1202" type="curve" smooth="yes"/>
      <point x="192" y="1202"/>
      <point x="146" y="1151"/>
      <point x="146" y="1081" type="curve" smooth="yes"/>
      <point x="146" y="990"/>
      <point x="230" y="906"/>
      <point x="449" y="898" type="curve"/>
      <point x="428" y="796" type="line"/>
      <point x="157" y="808"/>
      <point x="11" y="930"/>
      <point x="11" y="1103" type="curve" smooth="yes"/>
      <point x="11" y="1214"/>
      <point x="92" y="1323"/>
      <point x="249" y="1323" type="curve" smooth="yes"/>
      <point x="441" y="1323"/>
      <point x="562" y="1189"/>
      <point x="562" y="997" type="curve" smooth="yes"/>
      <point x="562" y="628" type="line"/>
      <point x="529" y="657" type="line"/>
      <point x="1024" y="657" type="line"/>
      <point x="1024" y="529" type="line"/>
      <point x="527" y="529" type="line"/>
      <point x="562" y="557" type="line"/>
      <point x="562" y="422" type="line"/>
      <point x="562" y="381"/>
      <point x="546" y="357"/>
      <point x="509" y="357" type="curve" smooth="yes"/>
      <point x="473" y="357"/>
      <point x="418" y="386"/>
      <point x="369" y="436" type="curve" smooth="yes"/>
      <point x="312" y="492"/>
      <point x="272" y="558"/>
      <point x="272" y="600" type="curve" smooth="yes"/>
      <point x="272" y="634"/>
      <point x="292" y="657"/>
      <point x="339" y="657" type="curve" smooth="yes"/>
    </contour>
    <contour>
      <point x="973" y="1279" type="move" name="top"/>
    </contour>
  </outline>
</glyph>
<glyph name="lladeva" format="1">
  <advance width="1557"/>
  <unicode hex="0933"/>
  <outline>
    <contour>
      <point x="1587" y="1165" type="line"/>
      <point x="-30" y="1165" type="line"/>
      <point x="-30" y="1279" type="line"/>
      <point x="1587" y="1279" type="line"/>
    </contour>
    <contour>
      <point x="706" y="539" type="curve" smooth="yes"/>
      <point x="799" y="760"/>
      <point x="908" y="895"/>
      <point x="1115" y="895" type="curve" smooth="yes"/>
      <point x="1335" y="895"/>
      <point x="1461" y="717"/>
      <point x="1461" y="502" type="curve" smooth="yes"/>
      <point x="1461" y="281"/>
      <point x="1313" y="137"/>
      <point x="1120" y="137" type="curve" smooth="yes"/>
      <point x="956" y="137"/>
      <point x="823" y="209"/>
      <point x="676" y="343" type="curve"/>
      <point x="735" y="441" type="line"/>
      <point x="856" y="319"/>
      <point x="987" y="259"/>
      <point x="1098" y="259" type="curve" smooth="yes"/>
      <point x="1234" y="259"/>
      <point x="1328" y="364"/>
      <point x="1328" y="526" type="curve" smooth="yes"/>
      <point x="1328" y="663"/>
      <point x="1232" y="763"/>
      <point x="1125" y="763" type="curve" smooth="yes"/>
      <point x="1004" y="763"/>
      <point x="912" y="668"/>
      <point x="844" y="497" type="curve" smooth="yes"/>
      <point x="754" y="274"/>
      <point x="629" y="134"/>
      <point x="442" y="134" type="curve" smooth="yes"/>
      <point x="250" y="134"/>
      <point x="85" y="274"/>
      <point x="85" y="517" type="curve" smooth="yes"/>
      <point x="85" y="731"/>
      <point x="230" y="892"/>
      <point x="432" y="892" type="curve" smooth="yes"/>
      <point x="599" y="892"/>
      <point x="730" y="814"/>
      <point x="862" y="689" type="curve"/>
      <point x="815" y="584" type="line"/>
      <point x="681" y="713"/>
      <point x="566" y="765"/>
      <point x="455" y="765" type="curve" smooth="yes"/>
      <point x="321" y="765"/>
      <point x="223" y="663"/>
      <point x="223" y="494" type="curve" smooth="yes"/>
      <point x="223" y="345"/>
      <point x="321" y="260"/>
      <point x="419" y="260" type="curve" smooth="yes"/>
      <point x="534" y="260"/>
      <point x="627" y="352"/>
    </contour>
    <contour>
      <point x="1277" y="823" type="line"/>
      <point x="1129" y="824" type="line"/>
      <point x="1129" y="1191" type="line"/>
      <point x="1277" y="1191" type="line"/>
    </contour>
    <contour>
      <point x="1039" y="25" type="move" name="btm"/>
    </contour>
    <contour>
      <point x="1129" y="1279" type="move" name="top"/>
    </contour>
  </outline>
</glyph>
<glyph name="vadeva" format="1">
  <advance width="1168"/>
  <unicode hex="0935"/>
  <outline>
    <contour>
      <point x="1198" y="1165" type="line"/>
      <point x="-30" y="1165" type="line"/>
      <point x="-30" y="1279" type="line"/>
      <point x="1198" y="1279" type="line"/>
    </contour>
    <contour>
      <point x="812" y="534" type="curve"/>
      <point x="810" y="365" type="line"/>
      <point x="732" y="298"/>
      <point x="638" y="253"/>
      <point x="522" y="253" type="curve" smooth="yes"/>
      <point x="279" y="253"/>
      <point x="115" y="427"/>
      <point x="115" y="641" type="curve" smooth="yes"/>
      <point x="115" y="828"/>
      <point x="265" y="946"/>
      <point x="474" y="946" type="curve" smooth="yes"/>
      <point x="612" y="946"/>
      <point x="723" y="918"/>
      <point x="845" y="868" type="curve"/>
      <point x="845" y="744" type="line"/>
      <point x="715" y="801"/>
      <point x="616" y="823"/>
      <point x="518" y="823" type="curve" smooth="yes"/>
      <point x="339" y="823"/>
      <point x="256" y="735"/>
      <point x="256" y="612" type="curve" smooth="yes"/>
      <point x="256" y="485"/>
      <point x="352" y="376"/>
      <point x="505" y="376" type="curve" smooth="yes"/>
      <point x="614" y="376"/>
      <point x="716" y="431"/>
    </contour>
    <contour>
      <point x="780" y="1196" type="line"/>
      <point x="928" y="1196" type="line"/>
      <point x="928" y="0" type="line"/>
      <point x="780" y="0" type="line"/>
    </contour>
    <contour>
      <point x="780" y="1279" type="move" name="top"/>
    </contour>
  </outline>
</glyph>
<glyph name="shadeva" format="1">
  <advance width="1471"/>
  <unicode hex="0936"/>
  <outline>
    <contour>
      <point x="420" y="515" type="line"/>
      <point x="783" y="84" type="line"/>
      <point x="686" y="-1" type="line"/>
      <point x="310" y="446" type="line"/>
    </contour>
    <contour>
      <point x="223" y="377" type="curve" smooth="yes"/>
      <point x="151" y="377"/>
      <point x="123" y="423"/>
      <point x="123" y="487" type="curve" smooth="yes"/>
      <point x="123" y="562"/>
      <point x="172" y="647"/>
      <point x="244" y="647" type="curve" smooth="yes"/>
      <point x="296" y="647"/>
      <point x="345" y="606"/>
      <point x="410" y="527" type="curve"/>
      <point x="311" y="523" type="line"/>
      <point x="536" y="581"/>
      <point x="672" y="728"/>
      <point x="672" y="914" type="curve" smooth="yes"/>
      <point x="672" y="1056"/>
      <point x="574" y="1179"/>
      <point x="432" y="1179" type="curve" smooth="yes"/>
      <point x="334" y="1179"/>
      <point x="281" y="1119"/>
      <point x="281" y="1048" type="curve" smooth="yes"/>
      <point x="281" y="941"/>
      <point x="400" y="842"/>
      <point x="714" y="842" type="curve"/>
      <point x="674" y="736" type="line"/>
      <point x="289" y="747"/>
      <point x="147" y="895"/>
      <point x="147" y="1070" type="curve" smooth="yes"/>
      <point x="147" y="1192"/>
      <point x="246" y="1300"/>
      <point x="417" y="1300" type="curve" smooth="yes"/>
      <point x="637" y="1300"/>
      <point x="800" y="1139"/>
      <point x="800" y="902" type="curve" smooth="yes"/>
      <point x="800" y="567"/>
      <point x="441" y="377"/>
    </contour>
    <contour>
      <point x="1083" y="1196" type="line"/>
      <point x="1231" y="1196" type="line"/>
      <point x="1231" y="0" type="line"/>
      <point x="1083" y="0" type="line"/>
    </contour>
    <contour>
      <point x="1501" y="1165" type="line"/>
      <point x="892" y="1165" type="line"/>
      <point x="892" y="1279" type="line"/>
      <point x="1501" y="1279" type="line"/>
    </contour>
    <contour>
      <point x="1083" y="1279" type="move" name="top"/>
    </contour>
  </outline>
</glyph>
<glyph name="hadeva" format="1">
  <advance width="1149"/>
  <unicode hex="0939"/>
  <outline>
    <contour>
      <point x="762" y="1198" type="line"/>
      <point x="910" y="1198" type="line"/>
      <point x="910" y="833" type="line"/>
      <point x="432" y="833" type="line"/>
      <point x="307" y="833"/>
      <point x="253" y="774"/>
      <point x="253" y="702" type="curve" smooth="yes"/>
      <point x="253" y="631"/>
      <point x="311" y="574"/>
      <point x="409" y="541" type="curve"/>
      <point x="328" y="447" type="line"/>
      <point x="184" y="518"/>
      <point x="110" y="618"/>
      <point x="110" y="726" type="curve" smooth="yes"/>
      <point x="110" y="850"/>
      <point x="198" y="947"/>
      <point x="404" y="947" type="curve" smooth="yes"/>
      <point x="801" y="947" type="line"/>
      <point x="762" y="905" type="line"/>
    </contour>
    <contour>
      <point x="608" y="609" type="curve" smooth="yes"/>
      <point x="863" y="609"/>
      <point x="1001" y="475"/>
      <point x="1001" y="311" type="curve" smooth="yes"/>
      <point x="1001" y="233"/>
      <point x="977" y="166"/>
      <point x="941" y="105" type="curve"/>
      <point x="815" y="137" type="line"/>
      <point x="849" y="187"/>
      <point x="867" y="244"/>
      <point x="867" y="303" type="curve" smooth="yes"/>
      <point x="867" y="398"/>
      <point x="785" y="485"/>
      <point x="617" y="486" type="curve" smooth="yes"/>
      <point x="447" y="487"/>
      <point x="340" y="370"/>
      <point x="340" y="230" type="curve" smooth="yes"/>
      <point x="340" y="56"/>
      <point x="488" y="-79"/>
      <point x="907" y="-127" type="curve"/>
      <point x="868" y="-240" type="line"/>
      <point x="419" y="-192"/>
      <point x="197" y="-11"/>
      <point x="197" y="249" type="curve" smooth="yes"/>
      <point x="197" y="445"/>
      <point x="348" y="609"/>
    </contour>
    <contour>
      <point x="1179" y="1165" type="line"/>
      <point x="-30" y="1165" type="line"/>
      <point x="-30" y="1279" type="line"/>
      <point x="1179" y="1279" type="line"/>
    </contour>
    <contour>
      <point x="760" y="1279" type="move" name="top"/>
    </contour>
  </outline>
</glyph>
<glyph name="avagrahadeva" format="1">
  <advance width="1079"/>
  <unicode hex="093D"/>
  <outline>
    <contour>
      <point x="939" y="408" type="curve" smooth="yes"/>
      <point x="939" y="204"/>
      <point x="780" y="92"/>
      <point x="580" y="92" type="curve" smooth="yes"/>
      <point x="421" y="92"/>
      <point x="283" y="138"/>
      <point x="115" y="255" type="curve"/>
      <point x="155" y="377" type="line"/>
      <point x="304" y="265"/>
      <point x="432" y="220"/>
      <point x="547" y="220" type="curve" smooth="yes"/>
      <point x="702" y="220"/>
      <point x="797" y="299"/>
      <point x="797" y="422" type="curve" smooth="yes"/>
      <point x="797" y="524"/>
      <point x="713" y="612"/>
      <point x="518" y="717" type="curve" smooth="yes"/>
      <point x="319" y="824"/>
      <point x="232" y="922"/>
      <point x="232" y="1054" type="curve" smooth="yes"/>
      <point x="232" y="1175"/>
      <point x="317" y="1279"/>
      <point x="538" y="1279" type="curve" smooth="yes"/>
      <point x="900" y="1279" type="line"/>
      <point x="900" y="1165" type="line"/>
      <point x="574" y="1165" type="line"/>
      <point x="437" y="1165"/>
      <point x="381" y="1113"/>
      <point x="381" y="1031" type="curve" smooth="yes"/>
      <point x="381" y="957"/>
      <point x="431" y="899"/>
      <point x="636" y="791" type="curve" smooth="yes"/>
      <point x="842" y="679"/>
      <point x="939" y="559"/>
    </contour>
  </outline>
</glyph>
<glyph name="iivowelsigndeva" format="1">
  <advance width="594"/>
  <unicode hex="0940"/>
  <outline>
    <contour>
      <point x="209" y="1239" type="line"/>
      <point x="119" y="1483"/>
      <point x="-38" y="1629"/>
      <point x="-179" y="1629" type="curve" smooth="yes"/>
      <point x="-285" y="1629"/>
      <point x="-333" y="1555"/>
      <point x="-333" y="1474" type="curve" smooth="yes"/>
      <point x="-333" y="1403"/>
      <point x="-307" y="1334"/>
      <point x="-248" y="1258" type="curve"/>
      <point x="-401" y="1258" type="line"/>
      <point x="-448" y="1339"/>
      <point x="-476" y="1416"/>
      <point x="-476" y="1504" type="curve" smooth="yes"/>
      <point x="-476" y="1637"/>
      <point x="-379" y="1763"/>
      <point x="-202" y="1763" type="curve" smooth="yes"/>
      <point x="21" y="1763"/>
      <point x="231" y="1587"/>
      <point x="361" y="1239" type="curve"/>
    </contour>
    <component base="aavowelsigndeva"/>
  </outline>
</glyph>
<glyph name="uvowelsigndeva" format="1">
  <advance width="0"/>
  <unicode hex="0941"/>
  <outline>
    <contour>
      <point x="-611" y="-97" type="line"/>
      <point x="-531" y="-30"/>
      <point x="-432" y="21"/>
      <point x="-311" y="21" type="curve" smooth="yes"/>
      <point x="-138" y="21"/>
      <point x="-10" y="-94"/>
      <point x="-10" y="-264" type="curve" smooth="yes"/>
      <point x="-10" y="-437"/>
      <point x="-146" y="-545"/>
      <point x="-340" y="-545" type="curve" smooth="yes"/>
      <point x="-533" y="-545"/>
      <point x="-707" y="-475"/>
      <point x="-910" y="-334" type="curve"/>
      <point x="-861" y="-219" type="line"/>
      <point x="-653" y="-366"/>
      <point x="-494" y="-422"/>
      <point x="-366" y="-422" type="curve" smooth="yes"/>
      <point x="-221" y="-422"/>
      <point x="-140" y="-354"/>
      <point x="-140" y="-256" type="curve" smooth="yes"/>
      <point x="-140" y="-170"/>
      <point x="-217" y="-104"/>
      <point x="-315" y="-104" type="curve" smooth="yes"/>
      <point x="-394" y="-104"/>
      <point x="-475" y="-141"/>
      <point x="-544" y="-202" type="curve"/>
    </contour>
    <contour>
      <point x="-389" y="0" type="move" name="_btm"/>
    </contour>
  </outline>
</glyph>
<glyph name="uuvowelsigndeva" format="1">
  <advance width="0"/>
  <unicode hex="0942"/>
  <outline>
    <contour>
      <point x="-98" y="-485" type="line"/>
      <point x="-189" y="-518"/>
      <point x="-234" y="-526"/>
      <point x="-320" y="-526" type="curve" smooth="yes"/>
      <point x="-494" y="-526"/>
      <point x="-634" y="-411"/>
      <point x="-634" y="-243" type="curve" smooth="yes"/>
      <point x="-634" y="-107"/>
      <point x="-519" y="17"/>
      <point x="-331" y="17" type="curve" smooth="yes"/>
      <point x="-128" y="17"/>
      <point x="56" y="-95"/>
      <point x="279" y="-372" type="curve"/>
      <point x="204" y="-461" type="line"/>
      <point x="-16" y="-194"/>
      <point x="-177" y="-112"/>
      <point x="-315" y="-112" type="curve" smooth="yes"/>
      <point x="-434" y="-112"/>
      <point x="-498" y="-186"/>
      <point x="-498" y="-270" type="curve" smooth="yes"/>
      <point x="-498" y="-350"/>
      <point x="-434" y="-412"/>
      <point x="-319" y="-412" type="curve" smooth="yes"/>
      <point x="-257" y="-412"/>
      <point x="-212" y="-403"/>
      <point x="-143" y="-376" type="curve"/>
    </contour>
    <contour>
      <point x="-389" y="0" type="move" name="_btm"/>
    </contour>
  </outline>
</glyph>
<glyph name="rvocalicvowelsigndeva" format="1">
  <advance width="0"/>
  <unicode hex="0943"/>
  <outline>
    <contour>
      <point x="-123" y="-438" type="line"/>
      <point x="-190" y="-465"/>
      <point x="-264" y="-485"/>
      <point x="-362" y="-485" type="curve" smooth="yes"/>
      <point x="-519" y="-485"/>
      <point x="-659" y="-389"/>
      <point x="-659" y="-230" type="curve" smooth="yes"/>
      <point x="-659" y="-83"/>
      <point x="-544" y="20"/>
      <point x="-350" y="20" type="curve" smooth="yes"/>
      <point x="-313" y="20"/>
      <point x="-270" y="19"/>
      <point x="-235" y="17" type="curve"/>
      <point x="-235" y="-85" type="line"/>
      <point x="-259" y="-85"/>
      <point x="-301" y="-85"/>
      <point x="-328" y="-85" type="curve" smooth="yes"/>
      <point x="-464" y="-85"/>
      <point x="-534" y="-155"/>
      <point x="-534" y="-241" type="curve" smooth="yes"/>
      <point x="-534" y="-325"/>
      <point x="-464" y="-376"/>
      <point x="-363" y="-376" type="curve" smooth="yes"/>
      <point x="-281" y="-376"/>
      <point x="-219" y="-362"/>
      <point x="-144" y="-330" type="curve"/>
    </contour>
    <contour>
      <point x="-389" y="0" type="move" name="_btm"/>
    </contour>
  </outline>
</glyph>
<glyph name="ecandravowelsigndeva" format="1">
  <advance width="0"/>
  <unicode hex="0945"/>
  <outline>
    <contour>
      <point x="53" y="1587" type="line"/>
      <point x="-39" y="1476"/>
      <point x="-164" y="1418"/>
      <point x="-309" y="1418" type="curve" smooth="yes"/>
      <point x="-457" y="1418"/>
      <point x="-581" y="1470"/>
      <point x="-694" y="1579" type="curve"/>
      <point x="-653" y="1690" type="line"/>
      <point x="-547" y="1585"/>
      <point x="-433" y="1540"/>
      <point x="-315" y="1540" type="curve" smooth="yes"/>
      <point x="-196" y="1540"/>
      <point x="-90" y="1586"/>
      <point x="3" y="1689" type="curve"/>
    </contour>
    <contour>
      <point x="-391" y="1279" type="move" name="_top"/>
    </contour>
  </outline>
</glyph>
<glyph name="aivowelsigndeva" format="1">
  <advance width="0"/>
  <unicode hex="0948"/>
  <outline>
    <contour>
      <point x="-584" y="1244" type="line"/>
      <point x="-1119" y="1607" type="line"/>
      <point x="-1026" y="1711" type="line"/>
      <point x="-375" y="1244" type="line"/>
    </contour>
    <contour>
      <point x="-380" y="1244" type="line"/>
      <point x="-615" y="1795" type="line"/>
      <point x="-480" y="1838" type="line"/>
      <point x="-235" y="1244" type="line"/>
    </contour>
    <contour>
      <point x="-391" y="1279" type="move" name="_top"/>
    </contour>
  </outline>
</glyph>
<glyph name="viramadeva" format="1">
  <advance width="-1"/>
  <unicode hex="094D"/>
  <outline>
    <contour>
      <point x="-392" y="-88" type="line"/>
      <point x="97" y="-334" type="line"/>
      <point x="45" y="-441" type="line"/>
      <point x="-443" y="-194" type="line"/>
    </contour>
    <contour>
      <point x="-389" y="0" type="move" name="_btm"/>
    </contour>
  </outline>
</glyph>
<glyph name="awvowelsigndevaKSH" format="1">
  <advance width="594"/>
  <unicode hex="094F"/>
  <outline>
    <contour>
      <point x="231" y="1235" type="line"/>
      <point x="231" y="1518" type="line"/>
      <point x="231" y="1587"/>
      <point x="201" y="1627"/>
      <point x="132" y="1627" type="curve" smooth="yes"/>
      <point x="66" y="1627"/>
      <point x="12" y="1591"/>
      <point x="-86" y="1591" type="curve" smooth="yes"/>
      <point x="-186" y="1591"/>
      <point x="-262" y="1635"/>
      <point x="-332" y="1712" type="curve"/>
      <point x="-280" y="1800" type="line"/>
      <point x="-206" y="1729"/>
      <point x="-148" y="1707"/>
      <point x="-91" y="1707" type="curve" smooth="yes"/>
      <point x="-12" y="1707"/>
      <point x="59" y="1750"/>
      <point x="162" y="1750" type="curve" smooth="yes"/>
      <point x="276" y="1750"/>
      <point x="359" y="1669"/>
      <point x="359" y="1534" type="curve" smooth="yes"/>
      <point x="359" y="1235" type="line"/>
    </contour>
    <contour>
      <point x="180" y="1208" type="line"/>
      <point x="115" y="1310" type="line"/>
      <point x="71" y="1377"/>
      <point x="29" y="1409"/>
      <point x="-46" y="1409" type="curve" smooth="yes"/>
      <point x="-121" y="1409"/>
      <point x="-204" y="1374"/>
      <point x="-304" y="1374" type="curve" smooth="yes"/>
      <point x="-408" y="1374"/>
      <point x="-502" y="1419"/>
      <point x="-580" y="1504" type="curve"/>
      <point x="-527" y="1590" type="line"/>
      <point x="-446" y="1514"/>
      <point x="-378" y="1489"/>
      <point x="-309" y="1489" type="curve" smooth="yes"/>
      <point x="-226" y="1489"/>
      <point x="-122" y="1532"/>
      <point x="-29" y="1532" type="curve" smooth="yes"/>
      <point x="94" y="1532"/>
      <point x="162" y="1481"/>
      <point x="237" y="1347" type="curve" smooth="yes"/>
      <point x="322" y="1208" type="line"/>
    </contour>
    <component base="aavowelsigndeva"/>
  </outline>
</glyph>
<glyph name="omdeva" format="1">
  <advance width="1952"/>
  <unicode hex="0950"/>
  <outline>
    <contour>
      <point x="365" y="670" type="line"/>
      <point x="337" y="789" type="line"/>
      <point x="344" y="789" type="line"/>
      <point x="616" y="794"/>
      <point x="725" y="891"/>
      <point x="725" y="1004" type="curve" smooth="yes"/>
      <point x="725" y="1098"/>
      <point x="661" y="1165"/>
      <point x="531" y="1165" type="curve" smooth="yes"/>
      <point x="437" y="1165"/>
      <point x="342" y="1132"/>
      <point x="257" y="1079" type="curve"/>
      <point x="213" y="1199" type="line"/>
      <point x="301" y="1251"/>
      <point x="411" y="1286"/>
      <point x="530" y="1286" type="curve" smooth="yes"/>
      <point x="753" y="1286"/>
      <point x="862" y="1164"/>
      <point x="862" y="996" type="curve" smooth="yes"/>
      <point x="862" y="810"/>
      <point x="695" y="677"/>
      <point x="375" y="670" type="curve" smooth="yes"/>
    </contour>
    <contour>
      <point x="652" y="804" type="line"/>
      <point x="819" y="725"/>
      <point x="907" y="612"/>
      <point x="907" y="454" type="curve" smooth="yes"/>
      <point x="907" y="285"/>
      <point x="775" y="149"/>
      <point x="566" y="149" type="curve" smooth="yes"/>
      <point x="414" y="149"/>
      <point x="289" y="206"/>
      <point x="151" y="304" type="curve"/>
      <point x="188" y="423" type="line"/>
      <point x="317" y="322"/>
      <point x="420" y="278"/>
      <point x="535" y="278" type="curve" smooth="yes"/>
      <point x="679" y="278"/>
      <point x="767" y="368"/>
      <point x="767" y="481" type="curve" smooth="yes"/>
      <point x="767" y="583"/>
      <point x="700" y="676"/>
      <point x="562" y="729" type="curve"/>
    </contour>
    <contour>
      <point x="1147" y="784" type="curve" smooth="yes"/>
      <point x="1238" y="995"/>
      <point x="1350" y="1126"/>
      <point x="1531" y="1126" type="curve" smooth="yes"/>
      <point x="1743" y="1126"/>
      <point x="1888" y="970"/>
      <point x="1888" y="739" type="curve" smooth="yes"/>
      <point x="1888" y="521"/>
      <point x="1735" y="376"/>
      <point x="1541" y="376" type="curve" smooth="yes"/>
      <point x="1401" y="376"/>
      <point x="1262" y="450"/>
      <point x="1110" y="584" type="curve"/>
      <point x="1171" y="681" type="line"/>
      <point x="1304" y="560"/>
      <point x="1414" y="501"/>
      <point x="1513" y="501" type="curve" smooth="yes"/>
      <point x="1651" y="501"/>
      <point x="1754" y="605"/>
      <point x="1754" y="765" type="curve" smooth="yes"/>
      <point x="1754" y="901"/>
      <point x="1663" y="994"/>
      <point x="1548" y="994" type="curve" smooth="yes"/>
      <point x="1443" y="994"/>
      <point x="1365" y="915"/>
      <point x="1286" y="742" type="curve" smooth="yes"/>
      <point x="1198" y="546"/>
      <point x="1112" y="424"/>
      <point x="955" y="424" type="curve" smooth="yes"/>
      <point x="904" y="424"/>
      <point x="854" y="433"/>
      <point x="825" y="442" type="curve"/>
      <point x="821" y="564" type="line"/>
      <point x="843" y="554"/>
      <point x="886" y="541"/>
      <point x="921" y="542" type="curve" smooth="yes"/>
      <point x="1008" y="544"/>
      <point x="1077" y="622"/>
    </contour>
    <component base="candrabindudeva" xOffset="1452" yOffset="-167"/>
  </outline>
</glyph>
<glyph name="rrvocalicdeva" format="1">
  <advance width="1662"/>
  <unicode hex="0960"/>
  <outline>
    <contour>
      <point x="849" y="669" type="line"/>
      <point x="885" y="652"/>
      <point x="917" y="644"/>
      <point x="976" y="644" type="curve" smooth="yes"/>
      <point x="1079" y="644"/>
      <point x="1167" y="672"/>
      <point x="1241" y="738" type="curve"/>
      <point x="1192" y="664" type="line"/>
      <point x="1157" y="709"/>
      <point x="1146" y="737"/>
      <point x="1146" y="766" type="curve" smooth="yes"/>
      <point x="1146" y="803"/>
      <point x="1175" y="836"/>
      <point x="1252" y="835" type="curve" smooth="yes"/>
      <point x="1344" y="835"/>
      <point x="1406" y="793"/>
      <point x="1406" y="740" type="curve" smooth="yes"/>
      <point x="1406" y="647"/>
      <point x="1221" y="520"/>
      <point x="985" y="520" type="curve" smooth="yes"/>
      <point x="920" y="520"/>
      <point x="864" y="528"/>
      <point x="797" y="550" type="curve"/>
    </contour>
    <contour>
      <point x="1089" y="1165" type="line"/>
      <point x="1089" y="1279" type="line"/>
      <point x="1692" y="1279" type="line"/>
      <point x="1692" y="1165" type="line"/>
    </contour>
    <contour>
      <point x="1282" y="181" type="curve" smooth="yes"/>
      <point x="1282" y="115"/>
      <point x="1335" y="65"/>
      <point x="1431" y="65" type="curve" smooth="yes"/>
      <point x="1488" y="65"/>
      <point x="1530" y="74"/>
      <point x="1604" y="106" type="curve"/>
      <point x="1625" y="-2" type="line"/>
      <point x="1554" y="-31"/>
      <point x="1499" y="-42"/>
      <point x="1427" y="-42" type="curve" smooth="yes"/>
      <point x="1269" y="-42"/>
      <point x="1153" y="52"/>
      <point x="1153" y="186" type="curve" smooth="yes"/>
      <point x="1153" y="311"/>
      <point x="1245" y="404"/>
      <point x="1424" y="459" type="curve"/>
      <point x="1369" y="411" type="line"/>
      <point x="1221" y="623" type="line"/>
      <point x="1322" y="685" type="line"/>
      <point x="1503" y="422" type="line"/>
      <point x="1492" y="381" type="line"/>
      <point x="1351" y="337"/>
      <point x="1282" y="273"/>
    </contour>
    <component base="taradeva"/>
  </outline>
</glyph>
<glyph name="lvocalicvowelsigndeva" format="1">
  <advance width="-1"/>
  <unicode hex="0962"/>
  <outline>
    <contour>
      <point x="-273" y="-48" type="curve"/>
      <point x="-335" y="-111" type="line"/>
      <point x="-387" y="-34"/>
      <point x="-439" y="1"/>
      <point x="-511" y="1" type="curve" smooth="yes"/>
      <point x="-578" y="1"/>
      <point x="-622" y="-48"/>
      <point x="-622" y="-106" type="curve" smooth="yes"/>
      <point x="-622" y="-174"/>
      <point x="-592" y="-230"/>
      <point x="-477" y="-322" type="curve"/>
      <point x="-550" y="-373" type="line"/>
      <point x="-673" y="-274"/>
      <point x="-723" y="-181"/>
      <point x="-723" y="-94" type="curve" smooth="yes"/>
      <point x="-723" y="8"/>
      <point x="-650" y="94"/>
      <point x="-520" y="94" type="curve" smooth="yes"/>
      <point x="-414" y="94"/>
      <point x="-337" y="37"/>
    </contour>
    <contour>
      <point x="-67" y="-235" type="curve"/>
      <point x="-121" y="-273" type="line"/>
      <point x="-73" y="-219"/>
      <point x="-48" y="-175"/>
      <point x="-48" y="-116" type="curve" smooth="yes"/>
      <point x="-48" y="-67"/>
      <point x="-82" y="-18"/>
      <point x="-147" y="-18" type="curve" smooth="yes"/>
      <point x="-231" y="-18"/>
      <point x="-291" y="-90"/>
      <point x="-320" y="-204" type="curve"/>
      <point x="-409" y="-173" type="line"/>
      <point x="-378" y="-30"/>
      <point x="-284" y="75"/>
      <point x="-151" y="75" type="curve" smooth="yes"/>
      <point x="-28" y="75"/>
      <point x="40" y="-13"/>
      <point x="40" y="-117" type="curve" smooth="yes"/>
      <point x="40" y="-184"/>
      <point x="12" y="-248"/>
      <point x="-28" y="-300" type="curve"/>
      <point x="-118" y="-300"/>
      <point x="-153" y="-330"/>
      <point x="-153" y="-369" type="curve" smooth="yes"/>
      <point x="-153" y="-407"/>
      <point x="-126" y="-430"/>
      <point x="-68" y="-430" type="curve" smooth="yes"/>
      <point x="-34" y="-430"/>
      <point x="-7" y="-423"/>
      <point x="37" y="-403" type="curve"/>
      <point x="48" y="-475" type="line"/>
      <point x="7" y="-494"/>
      <point x="-27" y="-500"/>
      <point x="-71" y="-500" type="curve" smooth="yes"/>
      <point x="-171" y="-500"/>
      <point x="-240" y="-443"/>
      <point x="-240" y="-368" type="curve" smooth="yes"/>
      <point x="-240" y="-298"/>
      <point x="-179" y="-240"/>
    </contour>
    <contour>
      <point x="-389" y="0" type="move" name="_btm"/>
    </contour>
  </outline>
</glyph>
<glyph name="llvocalicvowelsigndeva" format="1">
  <advance width="0"/>
  <unicode hex="0963"/>
  <outline>
    <contour>
      <point x="93" y="-634" type="line"/>
      <point x="62" y="-650"/>
      <point x="19" y="-659"/>
      <point x="-20" y="-659" type="curve" smooth="yes"/>
      <point x="-115" y="-659"/>
      <point x="-164" y="-607"/>
      <point x="-164" y="-547" type="curve" smooth="yes"/>
      <point x="-164" y="-481"/>
      <point x="-105" y="-436"/>
      <point x="-15" y="-435" type="curve"/>
      <point x="-6" y="-485" type="line"/>
      <point x="-61" y="-486"/>
      <point x="-83" y="-516"/>
      <point x="-83" y="-546" type="curve" smooth="yes"/>
      <point x="-83" y="-577"/>
      <point x="-62" y="-596"/>
      <point x="-15" y="-596" type="curve" smooth="yes"/>
      <point x="15" y="-596"/>
      <point x="46" y="-587"/>
      <point x="81" y="-572" type="curve"/>
    </contour>
    <contour>
      <point x="-273" y="-48" type="curve"/>
      <point x="-335" y="-111" type="line"/>
      <point x="-387" y="-34"/>
      <point x="-439" y="1"/>
      <point x="-511" y="1" type="curve" smooth="yes"/>
      <point x="-578" y="1"/>
      <point x="-622" y="-48"/>
      <point x="-622" y="-106" type="curve" smooth="yes"/>
      <point x="-622" y="-174"/>
      <point x="-592" y="-230"/>
      <point x="-477" y="-322" type="curve"/>
      <point x="-550" y="-373" type="line"/>
      <point x="-673" y="-274"/>
      <point x="-723" y="-181"/>
      <point x="-723" y="-94" type="curve" smooth="yes"/>
      <point x="-723" y="8"/>
      <point x="-650" y="94"/>
      <point x="-520" y="94" type="curve" smooth="yes"/>
      <point x="-414" y="94"/>
      <point x="-337" y="37"/>
    </contour>
    <contour>
      <point x="-61" y="-235" type="curve"/>
      <point x="-121" y="-273" type="line"/>
      <point x="-73" y="-219"/>
      <point x="-48" y="-175"/>
      <point x="-48" y="-116" type="curve" smooth="yes"/>
      <point x="-48" y="-67"/>
      <point x="-82" y="-18"/>
      <point x="-147" y="-18" type="curve" smooth="yes"/>
      <point x="-231" y="-18"/>
      <point x="-291" y="-90"/>
      <point x="-320" y="-204" type="curve"/>
      <point x="-409" y="-173" type="line"/>
      <point x="-378" y="-30"/>
      <point x="-284" y="75"/>
      <point x="-151" y="75" type="curve" smooth="yes"/>
      <point x="-28" y="75"/>
      <point x="40" y="-13"/>
      <point x="40" y="-117" type="curve" smooth="yes"/>
      <point x="40" y="-184"/>
      <point x="12" y="-248"/>
      <point x="-28" y="-300" type="curve"/>
      <point x="-38" y="-300" type="line"/>
      <point x="-118" y="-300"/>
      <point x="-148" y="-338"/>
      <point x="-148" y="-373" type="curve" smooth="yes"/>
      <point x="-148" y="-406"/>
      <point x="-120" y="-431"/>
      <point x="-66" y="-431" type="curve" smooth="yes"/>
      <point x="-38" y="-431"/>
      <point x="-7" y="-423"/>
      <point x="36" y="-409" type="curve"/>
      <point x="49" y="-477" type="line"/>
      <point x="5" y="-491"/>
      <point x="-34" y="-498"/>
      <point x="-68" y="-498" type="curve" smooth="yes"/>
      <point x="-170" y="-498"/>
      <point x="-237" y="-439"/>
      <point x="-237" y="-368" type="curve" smooth="yes"/>
      <point x="-237" y="-299"/>
      <point x="-176" y="-238"/>
    </contour>
    <contour>
      <point x="-389" y="0" type="move" name="_btm"/>
    </contour>
  </outline>
</glyph>
<glyph name="zerodeva" format="1">
  <advance width="1117"/>
  <unicode hex="0966"/>
  <outline>
    <contour>
      <point x="548" y="1105" type="curve" smooth="yes"/>
      <point x="823" y="1105"/>
      <point x="1000" y="907"/>
      <point x="1000" y="657" type="curve" smooth="yes"/>
      <point x="1000" y="428"/>
      <point x="844" y="230"/>
      <point x="571" y="230" type="curve" smooth="yes"/>
      <point x="306" y="230"/>
      <point x="117" y="426"/>
      <point x="117" y="689" type="curve" smooth="yes"/>
      <point x="117" y="902"/>
      <point x="278" y="1105"/>
    </contour>
    <contour>
      <point x="560" y="361" type="curve" smooth="yes"/>
      <point x="741" y="361"/>
      <point x="858" y="496"/>
      <point x="858" y="671" type="curve" smooth="yes"/>
      <point x="858" y="839"/>
      <point x="733" y="977"/>
      <point x="557" y="977" type="curve" smooth="yes"/>
      <point x="376" y="977"/>
      <point x="262" y="835"/>
      <point x="262" y="670" type="curve" smooth="yes"/>
      <point x="262" y="484"/>
      <point x="401" y="361"/>
    </contour>
  </outline>
</glyph>
<glyph name="onedeva" format="1">
  <advance width="867"/>
  <unicode hex="0967"/>
  <outline>
    <contour>
      <point x="176" y="432" type="line"/>
      <point x="468" y="701" type="line"/>
      <point x="590" y="813"/>
      <point x="632" y="885"/>
      <point x="632" y="974" type="curve" smooth="yes"/>
      <point x="632" y="1081"/>
      <point x="550" y="1164"/>
      <point x="434" y="1164" type="curve" smooth="yes"/>
      <point x="317" y="1164"/>
      <point x="247" y="1082"/>
      <point x="247" y="985" type="curve" smooth="yes"/>
      <point x="247" y="872"/>
      <point x="365" y="771"/>
      <point x="599" y="767" type="curve"/>
      <point x="517" y="662" type="line"/>
      <point x="250" y="686"/>
      <point x="107" y="834"/>
      <point x="107" y="1004" type="curve" smooth="yes"/>
      <point x="107" y="1153"/>
      <point x="225" y="1289"/>
      <point x="428" y="1290" type="curve" smooth="yes"/>
      <point x="638" y="1291"/>
      <point x="767" y="1140"/>
      <point x="767" y="973" type="curve" smooth="yes"/>
      <point x="767" y="856"/>
      <point x="712" y="756"/>
      <point x="604" y="653" type="curve" smooth="yes"/>
      <point x="331" y="390" type="line"/>
      <point x="316" y="468" type="line"/>
      <point x="637" y="214" type="line"/>
      <point x="707" y="158"/>
      <point x="738" y="101"/>
      <point x="739" y="41" type="curve" smooth="yes"/>
      <point x="740" y="-17"/>
      <point x="720" y="-61"/>
      <point x="683" y="-109" type="curve"/>
      <point x="552" y="-71" type="line"/>
      <point x="580" y="-34"/>
      <point x="598" y="-2"/>
      <point x="598" y="37" type="curve" smooth="yes"/>
      <point x="598" y="74"/>
      <point x="575" y="108"/>
      <point x="524" y="148" type="curve" smooth="yes"/>
      <point x="176" y="414" type="line"/>
    </contour>
  </outline>
</glyph>
<glyph name="threedeva" format="1">
  <advance width="914"/>
  <unicode hex="0969"/>
  <outline>
    <contour>
      <point x="304" y="161" type="line"/>
      <point x="423" y="202" type="line"/>
      <point x="564" y="-78" type="line"/>
      <point x="445" y="-125" type="line"/>
    </contour>
    <contour>
      <point x="611" y="714" type="curve"/>
      <point x="482" y="766" type="line"/>
      <point x="570" y="821"/>
      <point x="613" y="899"/>
      <point x="613" y="985" type="curve" smooth="yes"/>
      <point x="613" y="1066"/>
      <point x="544" y="1150"/>
      <point x="414" y="1150" type="curve" smooth="yes"/>
      <point x="307" y="1150"/>
      <point x="210" y="1110"/>
      <point x="136" y="1064" type="curve"/>
      <point x="85" y="1187" type="line"/>
      <point x="178" y="1239"/>
      <point x="279" y="1275"/>
      <point x="420" y="1275" type="curve" smooth="yes"/>
      <point x="644" y="1275"/>
      <point x="748" y="1126"/>
      <point x="748" y="990" type="curve" smooth="yes"/>
      <point x="748" y="885"/>
      <point x="700" y="782"/>
    </contour>
    <contour>
      <point x="449" y="803" type="curve" smooth="yes"/>
      <point x="684" y="803"/>
      <point x="812" y="642"/>
      <point x="812" y="458" type="curve" smooth="yes"/>
      <point x="812" y="264"/>
      <point x="653" y="123"/>
      <point x="375" y="123" type="curve" smooth="yes"/>
      <point x="200" y="123"/>
      <point x="138" y="161"/>
      <point x="138" y="215" type="curve" smooth="yes"/>
      <point x="138" y="280"/>
      <point x="224" y="363"/>
      <point x="299" y="363" type="curve" smooth="yes"/>
      <point x="351" y="363"/>
      <point x="390" y="319"/>
      <point x="424" y="214" type="curve"/>
      <point x="233" y="260" type="line"/>
      <point x="290" y="249"/>
      <point x="342" y="245"/>
      <point x="373" y="245" type="curve" smooth="yes"/>
      <point x="567" y="245"/>
      <point x="678" y="346"/>
      <point x="678" y="463" type="curve" smooth="yes"/>
      <point x="678" y="580"/>
      <point x="596" y="674"/>
      <point x="449" y="674" type="curve" smooth="yes"/>
      <point x="372" y="674"/>
      <point x="299" y="660"/>
      <point x="229" y="635" type="curve"/>
      <point x="196" y="761" type="line"/>
      <point x="274" y="786"/>
      <point x="357" y="803"/>
    </contour>
  </outline>
</glyph>
<glyph name="fourdeva" format="1">
  <advance width="1059"/>
  <unicode hex="096A"/>
  <outline>
    <contour>
      <point x="31" y="1184" type="line"/>
      <point x="130" y="1280" type="line"/>
      <point x="621" y="772" type="line"/>
      <point x="811" y="579"/>
      <point x="863" y="461"/>
      <point x="863" y="351" type="curve" smooth="yes"/>
      <point x="863" y="215"/>
      <point x="750" y="87"/>
      <point x="560" y="87" type="curve" smooth="yes"/>
      <point x="362" y="87"/>
      <point x="238" y="229"/>
      <point x="238" y="370" type="curve" smooth="yes"/>
      <point x="238" y="474"/>
      <point x="272" y="573"/>
      <point x="457" y="763" type="curve" smooth="yes"/>
      <point x="952" y="1282" type="line"/>
      <point x="1057" y="1188" type="line"/>
      <point x="550" y="655" type="line"/>
      <point x="404" y="503"/>
      <point x="378" y="437"/>
      <point x="378" y="359" type="curve" smooth="yes"/>
      <point x="378" y="273"/>
      <point x="447" y="205"/>
      <point x="545" y="205" type="curve" smooth="yes"/>
      <point x="656" y="205"/>
      <point x="722" y="272"/>
      <point x="722" y="367" type="curve" smooth="yes"/>
      <point x="722" y="436"/>
      <point x="687" y="514"/>
      <point x="537" y="668" type="curve" smooth="yes"/>
    </contour>
  </outline>
</glyph>
<glyph name="fivedeva" format="1">
  <advance width="1097"/>
  <unicode hex="096B"/>
  <outline>
    <contour>
      <point x="280" y="652" type="curve" smooth="yes"/>
      <point x="280" y="495"/>
      <point x="392" y="404"/>
      <point x="526" y="404" type="curve" smooth="yes"/>
      <point x="666" y="404"/>
      <point x="773" y="488"/>
      <point x="817" y="581" type="curve"/>
      <point x="747" y="446" type="line"/>
      <point x="695" y="528"/>
      <point x="676" y="572"/>
      <point x="676" y="608" type="curve" smooth="yes"/>
      <point x="676" y="647"/>
      <point x="713" y="683"/>
      <point x="793" y="683" type="curve" smooth="yes"/>
      <point x="911" y="683"/>
      <point x="982" y="638"/>
      <point x="982" y="584" type="curve" smooth="yes"/>
      <point x="982" y="493"/>
      <point x="798" y="278"/>
      <point x="542" y="278" type="curve" smooth="yes"/>
      <point x="314" y="278"/>
      <point x="137" y="429"/>
      <point x="137" y="666" type="curve" smooth="yes"/>
      <point x="137" y="881"/>
      <point x="255" y="1087"/>
      <point x="485" y="1267" type="curve"/>
      <point x="613" y="1186" type="line"/>
      <point x="387" y="1019"/>
      <point x="280" y="833"/>
    </contour>
    <contour>
      <point x="741" y="462" type="line"/>
      <point x="867" y="511" type="line"/>
      <point x="1148" y="-61" type="line"/>
      <point x="1023" y="-113" type="line"/>
    </contour>
  </outline>
</glyph>
<glyph name="sixdeva" format="1">
  <advance width="970"/>
  <unicode hex="096C"/>
  <outline>
    <contour>
      <point x="733" y="203" type="line"/>
      <point x="850" y="250" type="line"/>
      <point x="995" y="-67" type="line"/>
      <point x="876" y="-115" type="line"/>
    </contour>
    <contour>
      <point x="348" y="440" type="curve" smooth="yes"/>
      <point x="348" y="337"/>
      <point x="446" y="242"/>
      <point x="596" y="242" type="curve" smooth="yes"/>
      <point x="670" y="242"/>
      <point x="726" y="258"/>
      <point x="818" y="296" type="curve"/>
      <point x="718" y="227" type="line"/>
      <point x="692" y="274"/>
      <point x="678" y="312"/>
      <point x="678" y="344" type="curve" smooth="yes"/>
      <point x="678" y="381"/>
      <point x="706" y="412"/>
      <point x="781" y="412" type="curve" smooth="yes"/>
      <point x="890" y="412"/>
      <point x="973" y="368"/>
      <point x="973" y="310" type="curve" smooth="yes"/>
      <point x="973" y="238"/>
      <point x="844" y="122"/>
      <point x="615" y="122" type="curve" smooth="yes"/>
      <point x="362" y="122"/>
      <point x="207" y="272"/>
      <point x="207" y="470" type="curve" smooth="yes"/>
      <point x="207" y="644"/>
      <point x="359" y="822"/>
      <point x="708" y="827" type="curve" smooth="yes"/>
      <point x="755" y="701" type="line" smooth="yes"/>
      <point x="454" y="701"/>
      <point x="348" y="576"/>
    </contour>
    <contour>
      <point x="329" y="635" type="line"/>
      <point x="200" y="702"/>
      <point x="108" y="816"/>
      <point x="108" y="960" type="curve" smooth="yes"/>
      <point x="108" y="1114"/>
      <point x="236" y="1272"/>
      <point x="606" y="1272" type="curve"/>
      <point x="643" y="1146" type="line"/>
      <point x="342" y="1146"/>
      <point x="251" y="1045"/>
      <point x="251" y="933" type="curve" smooth="yes"/>
      <point x="251" y="836"/>
      <point x="313" y="770"/>
      <point x="431" y="714" type="curve"/>
    </contour>
  </outline>
</glyph>
<glyph name="sevendeva" format="1">
  <advance width="1188"/>
  <unicode hex="096D"/>
  <outline>
    <contour>
      <point x="999" y="471" type="curve"/>
      <point x="998" y="470"/>
      <point x="948" y="367"/>
      <point x="948" y="367" type="curve"/>
      <point x="607" y="435"/>
      <point x="464" y="596"/>
      <point x="464" y="770" type="curve" smooth="yes"/>
      <point x="464" y="923"/>
      <point x="558" y="1032"/>
      <point x="726" y="1032" type="curve" smooth="yes"/>
      <point x="925" y="1032"/>
      <point x="1090" y="863"/>
      <point x="1090" y="585" type="curve" smooth="yes"/>
      <point x="1090" y="333"/>
      <point x="906" y="121"/>
      <point x="646" y="121" type="curve" smooth="yes"/>
      <point x="350" y="121"/>
      <point x="140" y="339"/>
      <point x="140" y="753" type="curve" smooth="yes"/>
      <point x="140" y="929"/>
      <point x="181" y="1129"/>
      <point x="229" y="1263" type="curve"/>
      <point x="366" y="1219" type="line"/>
      <point x="311" y="1061"/>
      <point x="277" y="876"/>
      <point x="277" y="703" type="curve" smooth="yes"/>
      <point x="277" y="398"/>
      <point x="442" y="249"/>
      <point x="625" y="249" type="curve" smooth="yes"/>
      <point x="821" y="249"/>
      <point x="954" y="411"/>
      <point x="954" y="615" type="curve" smooth="yes"/>
      <point x="954" y="774"/>
      <point x="859" y="901"/>
      <point x="748" y="901" type="curve" smooth="yes"/>
      <point x="654" y="901"/>
      <point x="603" y="841"/>
      <point x="603" y="752" type="curve" smooth="yes"/>
      <point x="603" y="635"/>
      <point x="698" y="529"/>
    </contour>
  </outline>
</glyph>
<glyph name="eightdeva" format="1">
  <advance width="1010"/>
  <unicode hex="096E"/>
  <outline>
    <contour>
      <point x="675" y="1266" type="line"/>
      <point x="794" y="1170" type="line"/>
      <point x="397" y="731" type="line"/>
      <point x="295" y="617"/>
      <point x="263" y="542"/>
      <point x="263" y="449" type="curve" smooth="yes"/>
      <point x="263" y="339"/>
      <point x="364" y="246"/>
      <point x="507" y="247" type="curve" smooth="yes"/>
      <point x="636" y="249"/>
      <point x="756" y="295"/>
      <point x="914" y="426" type="curve"/>
      <point x="994" y="296" type="line"/>
      <point x="831" y="164"/>
      <point x="692" y="112"/>
      <point x="527" y="112" type="curve" smooth="yes"/>
      <point x="276" y="112"/>
      <point x="110" y="266"/>
      <point x="110" y="471" type="curve" smooth="yes"/>
      <point x="110" y="592"/>
      <point x="155" y="700"/>
      <point x="275" y="830" type="curve" smooth="yes"/>
    </contour>
  </outline>
</glyph>
<glyph name="ninedeva" format="1">
  <advance width="941"/>
  <unicode hex="096F"/>
  <outline>
    <contour>
      <point x="367" y="687" type="curve" smooth="yes"/>
      <point x="734" y="291" type="line"/>
      <point x="812" y="205"/>
      <point x="844" y="135"/>
      <point x="844" y="73" type="curve" smooth="yes"/>
      <point x="844" y="13"/>
      <point x="819" y="-43"/>
      <point x="779" y="-91" type="curve"/>
      <point x="641" y="-48" type="line"/>
      <point x="681" y="-2"/>
      <point x="697" y="36"/>
      <point x="697" y="76" type="curve" smooth="yes"/>
      <point x="697" y="116"/>
      <point x="676" y="155"/>
      <point x="619" y="218" type="curve" smooth="yes"/>
      <point x="286" y="584" type="line"/>
      <point x="162" y="717"/>
      <point x="90" y="825"/>
      <point x="90" y="975" type="curve" smooth="yes"/>
      <point x="90" y="1133"/>
      <point x="217" y="1289"/>
      <point x="428" y="1289" type="curve" smooth="yes"/>
      <point x="657" y="1289"/>
      <point x="787" y="1125"/>
      <point x="787" y="952" type="curve" smooth="yes"/>
      <point x="787" y="760"/>
      <point x="640" y="627"/>
      <point x="412" y="595" type="curve"/>
      <point x="328" y="696" type="line"/>
      <point x="533" y="726"/>
      <point x="648" y="815"/>
      <point x="648" y="960" type="curve" smooth="yes"/>
      <point x="648" y="1063"/>
      <point x="570" y="1162"/>
      <point x="439" y="1162" type="curve" smooth="yes"/>
      <point x="318" y="1162"/>
      <point x="233" y="1063"/>
      <point x="233" y="953" type="curve" smooth="yes"/>
      <point x="233" y="854"/>
      <point x="284" y="779"/>
    </contour>
  </outline>
</glyph>
<glyph name="awdevaKSH" format="1">
  <advance width="2141"/>
  <unicode hex="0975"/>
  <outline>
    <contour>
      <point x="1775" y="1235" type="line"/>
      <point x="1775" y="1518" type="line" smooth="yes"/>
      <point x="1775" y="1587"/>
      <point x="1745" y="1627"/>
      <point x="1676" y="1627" type="curve" smooth="yes"/>
      <point x="1610" y="1627"/>
      <point x="1556" y="1591"/>
      <point x="1458" y="1591" type="curve" smooth="yes"/>
      <point x="1358" y="1591"/>
      <point x="1281" y="1634"/>
      <point x="1211" y="1711" type="curve"/>
      <point x="1264" y="1800" type="line"/>
      <point x="1338" y="1729"/>
      <point x="1396" y="1704"/>
      <point x="1453" y="1704" type="curve" smooth="yes"/>
      <point x="1532" y="1704"/>
      <point x="1603" y="1745"/>
      <point x="1706" y="1745" type="curve" smooth="yes"/>
      <point x="1829" y="1745"/>
      <point x="1903" y="1669"/>
      <point x="1903" y="1534" type="curve" smooth="yes"/>
      <point x="1903" y="1235" type="line"/>
    </contour>
    <contour>
      <point x="1724" y="1208" type="line"/>
      <point x="1659" y="1310" type="line" smooth="yes"/>
      <point x="1616" y="1378"/>
      <point x="1573" y="1410"/>
      <point x="1498" y="1410" type="curve" smooth="yes"/>
      <point x="1423" y="1410"/>
      <point x="1340" y="1374"/>
      <point x="1240" y="1374" type="curve" smooth="yes"/>
      <point x="1136" y="1374"/>
      <point x="1041" y="1418"/>
      <point x="963" y="1503" type="curve"/>
      <point x="1017" y="1590" type="line"/>
      <point x="1098" y="1514"/>
      <point x="1166" y="1487"/>
      <point x="1235" y="1487" type="curve" smooth="yes"/>
      <point x="1328" y="1487"/>
      <point x="1416" y="1532"/>
      <point x="1513" y="1532" type="curve" smooth="yes"/>
      <point x="1636" y="1532"/>
      <point x="1706" y="1481"/>
      <point x="1781" y="1347" type="curve" smooth="yes"/>
      <point x="1866" y="1208" type="line"/>
    </contour>
    <component base="aadeva"/>
  </outline>
</glyph>
<glyph name="uni097D" format="1">
  <advance width="1053"/>
  <unicode hex="097D"/>
  <outline>
    <contour>
      <point x="522" y="600" type="line"/>
      <point x="522" y="2" type="line"/>
      <point x="368" y="2" type="line"/>
      <point x="368" y="683" type="line"/>
      <point x="380" y="683" type="line"/>
      <point x="608" y="688"/>
      <point x="767" y="807"/>
      <point x="767" y="958" type="curve" smooth="yes"/>
      <point x="767" y="1080"/>
      <point x="678" y="1166"/>
      <point x="544" y="1166" type="curve" smooth="yes"/>
      <point x="432" y="1166"/>
      <point x="331" y="1130"/>
      <point x="246" y="1078" type="curve"/>
      <point x="203" y="1196" type="line"/>
      <point x="291" y="1243"/>
      <point x="398" y="1285"/>
      <point x="545" y="1285" type="curve" smooth="yes"/>
      <point x="759" y="1285"/>
      <point x="903" y="1157"/>
      <point x="903" y="942" type="curve" smooth="yes"/>
      <point x="903" y="718"/>
      <point x="678" y="582"/>
      <point x="481" y="575" type="curve"/>
    </contour>
  </outline>
</glyph>
<glyph name="ellipsis.deva" format="1">
  <advance width="1488"/>
  <unicode hex="2026"/>
  <outline>
    <contour>
      <point x="0" y="0" type="line"/>
      <point x="1488" y="0" type="line"/>
      <point x="1488" y="20" type="line"/>
      <point x="0" y="20" type="line"/>
    </contour>
  </outline>
</glyph>
<glyph name="uni20B9.deva" format="1">
  <advance width="1129"/>
  <unicode hex="20B9"/>
  <outline>
    <contour>
      <point x="146" y="792" type="line"/>
      <point x="146" y="901" type="line"/>
      <point x="979" y="901" type="line"/>
      <point x="979" y="792" type="line"/>
    </contour>
    <contour>
      <point x="146" y="1170" type="line"/>
      <point x="146" y="1279" type="line"/>
      <point x="979" y="1279" type="line"/>
      <point x="979" y="1170" type="line"/>
    </contour>
    <contour>
      <point x="220" y="479" type="line"/>
      <point x="223" y="551" type="line"/>
      <point x="503" y="568"/>
      <point x="637" y="696"/>
      <point x="637" y="882" type="curve" smooth="yes"/>
      <point x="637" y="1036"/>
      <point x="490" y="1170"/>
      <point x="323" y="1170" type="curve" smooth="yes"/>
      <point x="303" y="1170" type="line"/>
      <point x="304" y="1263" type="line"/>
      <point x="343" y="1263" type="line"/>
      <point x="578" y="1263"/>
      <point x="777" y="1096"/>
      <point x="777" y="871" type="curve" smooth="yes"/>
      <point x="777" y="647"/>
      <point x="610" y="492"/>
      <point x="360" y="457" type="curve"/>
      <point x="360" y="506" type="line"/>
      <point x="768" y="9" type="line"/>
      <point x="769" y="0" type="line"/>
      <point x="613" y="0" type="line"/>
    </contour>
  </outline>
</glyph>
<glyph name="baprehalfdeva" format="1">
  <advance width="675"/>
  <outline>
    <contour>
      <point x="747" y="425" type="line"/>
      <point x="671" y="367" type="line"/>
      <point x="301" y="792" type="line"/>
      <point x="377" y="851" type="line"/>
    </contour>
    <contour>
      <point x="705" y="1165" type="line"/>
      <point x="-30" y="1165" type="line"/>
      <point x="-30" y="1279" type="line"/>
      <point x="705" y="1279" type="line"/>
    </contour>
    <contour>
      <point x="781" y="610" type="curve" smooth="yes"/>
      <point x="781" y="715"/>
      <point x="671" y="825"/>
      <point x="508" y="825" type="curve" smooth="yes"/>
      <point x="344" y="825"/>
      <point x="253" y="739"/>
      <point x="253" y="609" type="curve" smooth="yes"/>
      <point x="253" y="482"/>
      <point x="355" y="374"/>
      <point x="501" y="374" type="curve" smooth="yes"/>
      <point x="671" y="374"/>
      <point x="781" y="487"/>
    </contour>
    <contour>
      <point x="911" y="599" type="curve" smooth="yes"/>
      <point x="911" y="416"/>
      <point x="748" y="254"/>
      <point x="518" y="254" type="curve" smooth="yes"/>
      <point x="277" y="254"/>
      <point x="115" y="430"/>
      <point x="115" y="639" type="curve" smooth="yes"/>
      <point x="115" y="817"/>
      <point x="256" y="945"/>
      <point x="472" y="945" type="curve" smooth="yes"/>
      <point x="762" y="945"/>
      <point x="911" y="768"/>
    </contour>
  </outline>
</glyph>
<glyph name="chaprehalfdeva" format="1">
  <advance width="1465"/>
  <outline>
    <contour>
      <point x="637" y="774" type="curve"/>
      <point x="676" y="652" type="line"/>
      <point x="674" y="652"/>
      <point x="671" y="652"/>
      <point x="669" y="652" type="curve" smooth="yes"/>
      <point x="432" y="648"/>
      <point x="361" y="535"/>
      <point x="361" y="423" type="curve" smooth="yes"/>
      <point x="361" y="298"/>
      <point x="472" y="197"/>
      <point x="666" y="197" type="curve" smooth="yes"/>
      <point x="962" y="197"/>
      <point x="1226" y="438"/>
      <point x="1226" y="678" type="curve" smooth="yes"/>
      <point x="1226" y="800"/>
      <point x="1148" y="877"/>
      <point x="1067" y="877" type="curve" smooth="yes"/>
      <point x="991" y="877"/>
      <point x="938" y="815"/>
      <point x="938" y="721" type="curve" smooth="yes"/>
      <point x="938" y="619"/>
      <point x="1015" y="507"/>
      <point x="1206" y="395" type="curve"/>
      <point x="1132" y="307" type="line"/>
      <point x="917" y="434"/>
      <point x="807" y="588"/>
      <point x="807" y="740" type="curve" smooth="yes"/>
      <point x="807" y="880"/>
      <point x="910" y="995"/>
      <point x="1059" y="995" type="curve" smooth="yes"/>
      <point x="1216" y="995"/>
      <point x="1354" y="875"/>
      <point x="1354" y="665" type="curve" smooth="yes"/>
      <point x="1354" y="386"/>
      <point x="1051" y="68"/>
      <point x="677" y="68" type="curve" smooth="yes"/>
      <point x="363" y="68"/>
      <point x="211" y="245"/>
      <point x="211" y="444" type="curve" smooth="yes"/>
      <point x="211" y="613"/>
      <point x="338" y="771"/>
      <point x="632" y="774" type="curve" smooth="yes"/>
      <point x="634" y="774"/>
      <point x="635" y="774"/>
    </contour>
    <contour>
      <point x="519" y="739" type="curve"/>
      <point x="401" y="648" type="line"/>
      <point x="204" y="711"/>
      <point x="120" y="827"/>
      <point x="120" y="972" type="curve" smooth="yes"/>
      <point x="120" y="1095"/>
      <point x="215" y="1232"/>
      <point x="429" y="1266" type="curve"/>
      <point x="519" y="1186" type="line"/>
      <point x="336" y="1158"/>
      <point x="269" y="1039"/>
      <point x="269" y="954" type="curve" smooth="yes"/>
      <point x="269" y="854"/>
      <point x="345" y="767"/>
    </contour>
    <contour>
      <point x="1495" y="1165" type="line"/>
      <point x="-30" y="1165" type="line"/>
      <point x="-30" y="1279" type="line"/>
      <point x="1495" y="1279" type="line"/>
    </contour>
  </outline>
</glyph>
<glyph name="dabadeva" format="1">
  <advance width="1086"/>
  <outline>
    <contour>
      <point x="629" y="-82" type="line"/>
      <point x="555" y="-137" type="line"/>
      <point x="244" y="233" type="line"/>
      <point x="315" y="286" type="line"/>
    </contour>
    <contour>
      <point x="-30" y="1165" type="line"/>
      <point x="-30" y="1279" type="line"/>
      <point x="1116" y="1279" type="line"/>
      <point x="1116" y="1165" type="line"/>
    </contour>
    <contour>
      <point x="697" y="199" type="line"/>
      <point x="815" y="246" type="line"/>
      <point x="1019" y="-168" type="line"/>
      <point x="901" y="-218" type="line"/>
    </contour>
    <contour>
      <point x="598" y="140" type="curve" smooth="yes"/>
      <point x="297" y="140"/>
      <point x="121" y="317"/>
      <point x="121" y="550" type="curve" smooth="yes"/>
      <point x="121" y="736"/>
      <point x="261" y="891"/>
      <point x="545" y="891" type="curve" smooth="yes"/>
      <point x="727" y="891" type="line"/>
      <point x="680" y="843" type="line"/>
      <point x="680" y="1210" type="line"/>
      <point x="834" y="1210" type="line"/>
      <point x="834" y="774" type="line"/>
      <point x="601" y="774" type="line"/>
      <point x="352" y="774"/>
      <point x="265" y="660"/>
      <point x="265" y="521" type="curve" smooth="yes"/>
      <point x="265" y="379"/>
      <point x="376" y="260"/>
      <point x="579" y="260" type="curve" smooth="yes"/>
      <point x="647" y="260"/>
      <point x="693" y="268"/>
      <point x="786" y="298" type="curve"/>
      <point x="681" y="232" type="line"/>
      <point x="654" y="280"/>
      <point x="642" y="313"/>
      <point x="642" y="345" type="curve" smooth="yes"/>
      <point x="642" y="382"/>
      <point x="667" y="418"/>
      <point x="747" y="418" type="curve" smooth="yes"/>
      <point x="862" y="418"/>
      <point x="952" y="368"/>
      <point x="952" y="308" type="curve" smooth="yes"/>
      <point x="952" y="231"/>
      <point x="815" y="140"/>
    </contour>
    <contour>
      <point x="373" y="260" type="line"/>
      <point x="254" y="196"/>
      <point x="213" y="122"/>
      <point x="213" y="41" type="curve" smooth="yes"/>
      <point x="214" y="-50"/>
      <point x="289" y="-122"/>
      <point x="401" y="-122" type="curve" smooth="yes"/>
      <point x="548" y="-122"/>
      <point x="689" y="8"/>
      <point x="719" y="210" type="curve"/>
      <point x="807" y="47" type="line"/>
      <point x="733" y="-124"/>
      <point x="582" y="-235"/>
      <point x="409" y="-235" type="curve" smooth="yes"/>
      <point x="209" y="-235"/>
      <point x="89" y="-99"/>
      <point x="89" y="48" type="curve" smooth="yes"/>
      <point x="89" y="162"/>
      <point x="144" y="264"/>
      <point x="283" y="346" type="curve"/>
    </contour>
    <contour>
      <point x="634" y="-269" type="move" name="btm"/>
    </contour>
    <contour>
      <point x="680" y="1279" type="move" name="top"/>
    </contour>
  </outline>
</glyph>
<glyph name="dabhadeva" format="1">
  <advance width="1534"/>
  <outline>
    <contour>
      <point x="475" y="211" type="curve"/>
      <point x="512" y="113" type="line"/>
      <point x="433" y="47"/>
      <point x="365" y="18"/>
      <point x="274" y="18" type="curve" smooth="yes"/>
      <point x="135" y="18"/>
      <point x="20" y="116"/>
      <point x="20" y="256" type="curve" smooth="yes"/>
      <point x="20" y="376"/>
      <point x="117" y="472"/>
      <point x="255" y="472" type="curve" smooth="yes"/>
      <point x="397" y="472"/>
      <point x="478" y="399"/>
      <point x="545" y="281" type="curve" smooth="yes"/>
      <point x="724" y="-33" type="line"/>
      <point x="683" y="-24" type="line"/>
      <point x="1171" y="228" type="line"/>
      <point x="1228" y="124" type="line"/>
      <point x="738" y="-132" type="line"/>
      <point x="755" y="-91" type="line"/>
      <point x="815" y="-204" type="line"/>
      <point x="823" y="-220"/>
      <point x="827" y="-235"/>
      <point x="827" y="-247" type="curve" smooth="yes"/>
      <point x="826" y="-271"/>
      <point x="804" y="-292"/>
      <point x="756" y="-292" type="curve" smooth="yes"/>
      <point x="652" y="-292"/>
      <point x="485" y="-219"/>
      <point x="485" y="-160" type="curve" smooth="yes"/>
      <point x="485" y="-139"/>
      <point x="494" y="-122"/>
      <point x="520" y="-109" type="curve" smooth="yes"/>
      <point x="619" y="-57" type="line"/>
      <point x="612" y="-97" type="line"/>
      <point x="423" y="237" type="line"/>
      <point x="370" y="330"/>
      <point x="328" y="362"/>
      <point x="258" y="362" type="curve" smooth="yes"/>
      <point x="184" y="362"/>
      <point x="139" y="306"/>
      <point x="139" y="245" type="curve" smooth="yes"/>
      <point x="139" y="179"/>
      <point x="190" y="118"/>
      <point x="280" y="118" type="curve" smooth="yes"/>
      <point x="337" y="117"/>
      <point x="400" y="144"/>
    </contour>
    <contour>
      <point x="-30" y="1165" type="line"/>
      <point x="-30" y="1279" type="line"/>
      <point x="1564" y="1279" type="line"/>
      <point x="1564" y="1165" type="line"/>
    </contour>
    <contour>
      <point x="1145" y="199" type="line"/>
      <point x="1263" y="246" type="line"/>
      <point x="1467" y="-168" type="line"/>
      <point x="1349" y="-218" type="line"/>
    </contour>
    <contour>
      <point x="1046" y="140" type="curve" smooth="yes"/>
      <point x="745" y="140"/>
      <point x="569" y="317"/>
      <point x="569" y="550" type="curve" smooth="yes"/>
      <point x="569" y="736"/>
      <point x="709" y="891"/>
      <point x="993" y="891" type="curve" smooth="yes"/>
      <point x="1174" y="891" type="line"/>
      <point x="1128" y="843" type="line"/>
      <point x="1128" y="1210" type="line"/>
      <point x="1281" y="1210" type="line"/>
      <point x="1281" y="774" type="line"/>
      <point x="1049" y="774" type="line"/>
      <point x="800" y="774"/>
      <point x="713" y="660"/>
      <point x="713" y="521" type="curve" smooth="yes"/>
      <point x="713" y="379"/>
      <point x="823" y="260"/>
      <point x="1027" y="260" type="curve" smooth="yes"/>
      <point x="1095" y="260"/>
      <point x="1140" y="268"/>
      <point x="1233" y="298" type="curve"/>
      <point x="1129" y="232" type="line"/>
      <point x="1102" y="280"/>
      <point x="1090" y="313"/>
      <point x="1090" y="345" type="curve" smooth="yes"/>
      <point x="1090" y="382"/>
      <point x="1115" y="418"/>
      <point x="1195" y="418" type="curve" smooth="yes"/>
      <point x="1309" y="418"/>
      <point x="1399" y="368"/>
      <point x="1399" y="308" type="curve" smooth="yes"/>
      <point x="1399" y="231"/>
      <point x="1262" y="140"/>
    </contour>
    <contour>
      <point x="1016" y="-269" type="move" name="btm"/>
    </contour>
    <contour>
      <point x="1128" y="1279" type="move" name="top"/>
    </contour>
  </outline>
</glyph>
<glyph name="dadadeva" format="1">
  <advance width="1088"/>
  <outline>
    <contour>
      <point x="715" y="4" type="line"/>
      <point x="832" y="51" type="line"/>
      <point x="1003" y="-296" type="line"/>
      <point x="884" y="-343" type="line"/>
    </contour>
    <contour>
      <point x="1118" y="1165" type="line"/>
      <point x="-30" y="1165" type="line"/>
      <point x="-30" y="1279" type="line"/>
      <point x="1118" y="1279" type="line"/>
    </contour>
    <contour>
      <point x="310" y="283" type="curve" smooth="yes"/>
      <point x="310" y="167"/>
      <point x="406" y="66"/>
      <point x="593" y="66" type="curve" smooth="yes"/>
      <point x="674" y="66"/>
      <point x="724" y="74"/>
      <point x="804" y="104" type="curve"/>
      <point x="699" y="36" type="line"/>
      <point x="670" y="87"/>
      <point x="659" y="117"/>
      <point x="659" y="151" type="curve" smooth="yes"/>
      <point x="659" y="189"/>
      <point x="685" y="224"/>
      <point x="764" y="224" type="curve" smooth="yes"/>
      <point x="882" y="224"/>
      <point x="969" y="171"/>
      <point x="969" y="113" type="curve" smooth="yes"/>
      <point x="969" y="40"/>
      <point x="843" y="-54"/>
      <point x="610" y="-54" type="curve" smooth="yes"/>
      <point x="337" y="-54"/>
      <point x="171" y="100"/>
      <point x="171" y="302" type="curve" smooth="yes"/>
      <point x="171" y="481"/>
      <point x="329" y="620"/>
      <point x="579" y="620" type="curve" smooth="yes"/>
      <point x="714" y="620"/>
      <point x="816" y="591"/>
      <point x="912" y="547" type="curve"/>
      <point x="880" y="444" type="line"/>
      <point x="800" y="480"/>
      <point x="701" y="504"/>
      <point x="605" y="504" type="curve" smooth="yes"/>
      <point x="398" y="504"/>
      <point x="310" y="398"/>
    </contour>
    <contour>
      <point x="402" y="539" type="curve"/>
      <point x="309" y="456" type="line"/>
      <point x="179" y="529"/>
      <point x="110" y="618"/>
      <point x="110" y="731" type="curve" smooth="yes"/>
      <point x="110" y="851"/>
      <point x="199" y="947"/>
      <point x="407" y="947" type="curve" smooth="yes"/>
      <point x="753" y="947" type="line"/>
      <point x="707" y="902" type="line"/>
      <point x="707" y="1200" type="line"/>
      <point x="860" y="1200" type="line"/>
      <point x="860" y="833" type="line"/>
      <point x="434" y="833" type="line"/>
      <point x="306" y="833"/>
      <point x="253" y="779"/>
      <point x="253" y="703" type="curve" smooth="yes"/>
      <point x="253" y="638"/>
      <point x="310" y="576"/>
    </contour>
    <contour>
      <point x="491" y="-269" type="move" name="btm"/>
    </contour>
    <contour>
      <point x="707" y="1279" type="move" name="top"/>
    </contour>
  </outline>
</glyph>
<glyph name="dadhadeva" format="1">
  <advance width="1402"/>
  <outline>
    <contour>
      <point x="523" y="149" type="line"/>
      <point x="471" y="116"/>
      <point x="413" y="96"/>
      <point x="313" y="96" type="curve" smooth="yes"/>
      <point x="146" y="96"/>
      <point x="27" y="205"/>
      <point x="27" y="362" type="curve" smooth="yes"/>
      <point x="27" y="453"/>
      <point x="68" y="539"/>
      <point x="149" y="609" type="curve"/>
      <point x="244" y="533" type="line"/>
      <point x="190" y="489"/>
      <point x="155" y="423"/>
      <point x="155" y="356" type="curve" smooth="yes"/>
      <point x="155" y="271"/>
      <point x="218" y="202"/>
      <point x="324" y="202" type="curve" smooth="yes"/>
      <point x="418" y="202"/>
      <point x="482" y="228"/>
      <point x="562" y="278" type="curve"/>
    </contour>
    <contour>
      <point x="713" y="243" type="line"/>
      <point x="582" y="176"/>
      <point x="553" y="96"/>
      <point x="553" y="30" type="curve" smooth="yes"/>
      <point x="553" y="-58"/>
      <point x="611" y="-115"/>
      <point x="713" y="-115" type="curve" smooth="yes"/>
      <point x="862" y="-115"/>
      <point x="994" y="11"/>
      <point x="1028" y="219" type="curve"/>
      <point x="1116" y="56" type="line"/>
      <point x="1041" y="-118"/>
      <point x="898" y="-230"/>
      <point x="722" y="-230" type="curve" smooth="yes"/>
      <point x="545" y="-230"/>
      <point x="430" y="-119"/>
      <point x="430" y="31" type="curve" smooth="yes"/>
      <point x="430" y="128"/>
      <point x="461" y="231"/>
      <point x="623" y="325" type="curve"/>
    </contour>
    <contour>
      <point x="-30" y="1165" type="line"/>
      <point x="-30" y="1279" type="line"/>
      <point x="1432" y="1279" type="line"/>
      <point x="1432" y="1165" type="line"/>
    </contour>
    <contour>
      <point x="1013" y="199" type="line"/>
      <point x="1130" y="246" type="line"/>
      <point x="1334" y="-168" type="line"/>
      <point x="1217" y="-218" type="line"/>
    </contour>
    <contour>
      <point x="913" y="140" type="curve" smooth="yes"/>
      <point x="612" y="140"/>
      <point x="436" y="317"/>
      <point x="436" y="550" type="curve" smooth="yes"/>
      <point x="436" y="736"/>
      <point x="576" y="891"/>
      <point x="860" y="891" type="curve" smooth="yes"/>
      <point x="1042" y="891" type="line"/>
      <point x="995" y="843" type="line"/>
      <point x="995" y="1210" type="line"/>
      <point x="1149" y="1210" type="line"/>
      <point x="1149" y="774" type="line"/>
      <point x="916" y="774" type="line"/>
      <point x="667" y="774"/>
      <point x="580" y="660"/>
      <point x="580" y="521" type="curve" smooth="yes"/>
      <point x="580" y="379"/>
      <point x="691" y="260"/>
      <point x="895" y="260" type="curve" smooth="yes"/>
      <point x="963" y="260"/>
      <point x="1008" y="268"/>
      <point x="1101" y="298" type="curve"/>
      <point x="997" y="232" type="line"/>
      <point x="969" y="280"/>
      <point x="958" y="313"/>
      <point x="958" y="345" type="curve" smooth="yes"/>
      <point x="958" y="382"/>
      <point x="982" y="418"/>
      <point x="1063" y="418" type="curve" smooth="yes"/>
      <point x="1177" y="418"/>
      <point x="1267" y="368"/>
      <point x="1267" y="308" type="curve" smooth="yes"/>
      <point x="1267" y="231"/>
      <point x="1130" y="140"/>
    </contour>
    <contour>
      <point x="947" y="-269" type="move" name="btm"/>
    </contour>
    <contour>
      <point x="995" y="1279" type="move" name="top"/>
    </contour>
  </outline>
</glyph>
<glyph name="dagadeva" format="1">
  <advance width="1086"/>
  <outline>
    <contour>
      <point x="697" y="199" type="line"/>
      <point x="815" y="246" type="line"/>
      <point x="1019" y="-168" type="line"/>
      <point x="901" y="-218" type="line"/>
    </contour>
    <contour>
      <point x="-30" y="1165" type="line"/>
      <point x="-30" y="1279" type="line"/>
      <point x="1116" y="1279" type="line"/>
      <point x="1116" y="1165" type="line"/>
    </contour>
    <contour>
      <point x="598" y="140" type="curve" smooth="yes"/>
      <point x="297" y="140"/>
      <point x="121" y="317"/>
      <point x="121" y="550" type="curve" smooth="yes"/>
      <point x="121" y="736"/>
      <point x="261" y="891"/>
      <point x="545" y="891" type="curve" smooth="yes"/>
      <point x="726" y="891" type="line"/>
      <point x="680" y="843" type="line"/>
      <point x="680" y="1210" type="line"/>
      <point x="833" y="1210" type="line"/>
      <point x="833" y="774" type="line"/>
      <point x="601" y="774" type="line"/>
      <point x="352" y="774"/>
      <point x="265" y="660"/>
      <point x="265" y="521" type="curve" smooth="yes"/>
      <point x="265" y="379"/>
      <point x="375" y="260"/>
      <point x="579" y="260" type="curve" smooth="yes"/>
      <point x="647" y="260"/>
      <point x="692" y="268"/>
      <point x="785" y="298" type="curve"/>
      <point x="681" y="232" type="line"/>
      <point x="654" y="280"/>
      <point x="642" y="313"/>
      <point x="642" y="345" type="curve" smooth="yes"/>
      <point x="642" y="382"/>
      <point x="667" y="418"/>
      <point x="747" y="418" type="curve" smooth="yes"/>
      <point x="861" y="418"/>
      <point x="951" y="368"/>
      <point x="951" y="308" type="curve" smooth="yes"/>
      <point x="951" y="231"/>
      <point x="814" y="140"/>
    </contour>
    <contour>
      <point x="429" y="268" type="line"/>
      <point x="485" y="-201" type="line"/>
      <point x="489" y="-246"/>
      <point x="477" y="-270"/>
      <point x="434" y="-270" type="curve" smooth="yes"/>
      <point x="365" y="-270"/>
      <point x="218" y="-159"/>
      <point x="218" y="-97" type="curve" smooth="yes"/>
      <point x="218" y="-70"/>
      <point x="234" y="-53"/>
      <point x="272" y="-49" type="curve" smooth="yes"/>
      <point x="359" y="-39" type="line"/>
      <point x="334" y="-71" type="line"/>
      <point x="296" y="254" type="line"/>
    </contour>
    <contour>
      <point x="615" y="-238" type="move" name="btm"/>
    </contour>
    <contour>
      <point x="680" y="1279" type="move" name="top"/>
    </contour>
  </outline>
</glyph>
<glyph name="darvocalicdeva" format="1">
  <advance width="1093"/>
  <outline>
    <contour>
      <point x="-30" y="1165" type="line"/>
      <point x="-30" y="1279" type="line"/>
      <point x="1123" y="1279" type="line"/>
      <point x="1123" y="1165" type="line"/>
    </contour>
    <contour>
      <point x="598" y="140" type="curve" smooth="yes"/>
      <point x="297" y="140"/>
      <point x="121" y="317"/>
      <point x="121" y="550" type="curve" smooth="yes"/>
      <point x="121" y="739"/>
      <point x="265" y="891"/>
      <point x="543" y="891" type="curve" smooth="yes"/>
      <point x="726" y="891" type="line"/>
      <point x="680" y="843" type="line"/>
      <point x="680" y="1210" type="line"/>
      <point x="833" y="1210" type="line"/>
      <point x="833" y="774" type="line"/>
      <point x="601" y="774" type="line"/>
      <point x="352" y="774"/>
      <point x="264" y="660"/>
      <point x="264" y="521" type="curve" smooth="yes"/>
      <point x="264" y="379"/>
      <point x="375" y="260"/>
      <point x="579" y="260" type="curve" smooth="yes"/>
      <point x="647" y="260"/>
      <point x="692" y="268"/>
      <point x="785" y="298" type="curve"/>
      <point x="681" y="232" type="line"/>
      <point x="653" y="283"/>
      <point x="642" y="313"/>
      <point x="642" y="345" type="curve" smooth="yes"/>
      <point x="642" y="382"/>
      <point x="667" y="418"/>
      <point x="747" y="418" type="curve" smooth="yes"/>
      <point x="861" y="418"/>
      <point x="951" y="368"/>
      <point x="951" y="308" type="curve" smooth="yes"/>
      <point x="951" y="231"/>
      <point x="814" y="140"/>
    </contour>
    <contour>
      <point x="1008" y="-148" type="line"/>
      <point x="1005" y="-158" type="line"/>
      <point x="981" y="-158"/>
      <point x="937" y="-158"/>
      <point x="910" y="-158" type="curve" smooth="yes"/>
      <point x="769" y="-158"/>
      <point x="699" y="-227"/>
      <point x="699" y="-315" type="curve" smooth="yes"/>
      <point x="699" y="-399"/>
      <point x="769" y="-452"/>
      <point x="870" y="-452" type="curve" smooth="yes"/>
      <point x="954" y="-452"/>
      <point x="1014" y="-435"/>
      <point x="1090" y="-403" type="curve"/>
      <point x="1110" y="-511" type="line"/>
      <point x="1033" y="-540"/>
      <point x="967" y="-559"/>
      <point x="872" y="-559" type="curve" smooth="yes"/>
      <point x="714" y="-559"/>
      <point x="574" y="-462"/>
      <point x="574" y="-303" type="curve" smooth="yes"/>
      <point x="574" y="-156"/>
      <point x="698" y="-53"/>
      <point x="883" y="-53" type="curve"/>
      <point x="842" y="-99" type="line"/>
      <point x="697" y="200" type="line"/>
      <point x="815" y="246" type="line"/>
    </contour>
  </outline>
</glyph>
<glyph name="davadeva" format="1">
  <advance width="1086"/>
  <outline>
    <contour>
      <point x="373" y="260" type="line"/>
      <point x="254" y="196"/>
      <point x="216" y="118"/>
      <point x="216" y="41" type="curve" smooth="yes"/>
      <point x="217" y="-50"/>
      <point x="288" y="-119"/>
      <point x="401" y="-119" type="curve" smooth="yes"/>
      <point x="543" y="-119"/>
      <point x="687" y="8"/>
      <point x="719" y="210" type="curve"/>
      <point x="807" y="47" type="line"/>
      <point x="733" y="-124"/>
      <point x="582" y="-235"/>
      <point x="409" y="-235" type="curve" smooth="yes"/>
      <point x="209" y="-235"/>
      <point x="89" y="-99"/>
      <point x="89" y="48" type="curve" smooth="yes"/>
      <point x="89" y="162"/>
      <point x="144" y="264"/>
      <point x="283" y="346" type="curve"/>
    </contour>
    <contour>
      <point x="-30" y="1165" type="line"/>
      <point x="-30" y="1279" type="line"/>
      <point x="1116" y="1279" type="line"/>
      <point x="1116" y="1165" type="line"/>
    </contour>
    <contour>
      <point x="697" y="199" type="line"/>
      <point x="815" y="246" type="line"/>
      <point x="1019" y="-168" type="line"/>
      <point x="901" y="-218" type="line"/>
    </contour>
    <contour>
      <point x="598" y="140" type="curve" smooth="yes"/>
      <point x="297" y="140"/>
      <point x="121" y="317"/>
      <point x="121" y="550" type="curve" smooth="yes"/>
      <point x="121" y="736"/>
      <point x="261" y="891"/>
      <point x="545" y="891" type="curve" smooth="yes"/>
      <point x="726" y="891" type="line"/>
      <point x="680" y="843" type="line"/>
      <point x="680" y="1210" type="line"/>
      <point x="833" y="1210" type="line"/>
      <point x="833" y="774" type="line"/>
      <point x="601" y="774" type="line"/>
      <point x="352" y="774"/>
      <point x="265" y="660"/>
      <point x="265" y="521" type="curve" smooth="yes"/>
      <point x="265" y="379"/>
      <point x="375" y="260"/>
      <point x="579" y="260" type="curve" smooth="yes"/>
      <point x="647" y="260"/>
      <point x="692" y="268"/>
      <point x="785" y="298" type="curve"/>
      <point x="681" y="232" type="line"/>
      <point x="654" y="280"/>
      <point x="642" y="313"/>
      <point x="642" y="345" type="curve" smooth="yes"/>
      <point x="642" y="382"/>
      <point x="667" y="418"/>
      <point x="747" y="418" type="curve" smooth="yes"/>
      <point x="861" y="418"/>
      <point x="951" y="368"/>
      <point x="951" y="308" type="curve" smooth="yes"/>
      <point x="951" y="231"/>
      <point x="814" y="140"/>
    </contour>
    <contour>
      <point x="634" y="-269" type="move" name="btm"/>
    </contour>
    <contour>
      <point x="680" y="1279" type="move" name="top"/>
    </contour>
  </outline>
</glyph>
<glyph name="dayadeva" format="1">
  <advance width="1409"/>
  <outline>
    <contour>
      <point x="520" y="1212" type="line"/>
      <point x="668" y="1212" type="line"/>
      <point x="668" y="889" type="line"/>
      <point x="520" y="889" type="line"/>
    </contour>
    <contour>
      <point x="437" y="449" type="line"/>
      <point x="224" y="483"/>
      <point x="102" y="583"/>
      <point x="102" y="734" type="curve" smooth="yes"/>
      <point x="102" y="851"/>
      <point x="187" y="950"/>
      <point x="395" y="950" type="curve" smooth="yes"/>
      <point x="668" y="950" type="line"/>
      <point x="668" y="833" type="line"/>
      <point x="424" y="833" type="line" smooth="yes"/>
      <point x="285" y="833"/>
      <point x="243" y="780"/>
      <point x="243" y="715" type="curve" smooth="yes"/>
      <point x="243" y="631"/>
      <point x="338" y="565"/>
      <point x="539" y="554" type="curve"/>
    </contour>
    <contour>
      <point x="1021" y="1195" type="line"/>
      <point x="1170" y="1195" type="line"/>
      <point x="1170" y="-1" type="line"/>
      <point x="1021" y="-1" type="line"/>
    </contour>
    <contour>
      <point x="1439" y="1165" type="line"/>
      <point x="-30" y="1165" type="line"/>
      <point x="-30" y="1279" type="line"/>
      <point x="1439" y="1279" type="line"/>
    </contour>
    <contour>
      <point x="769" y="511" type="line"/>
      <point x="759" y="511" type="line"/>
      <point x="535" y="511"/>
      <point x="465" y="432"/>
      <point x="465" y="350" type="curve" smooth="yes"/>
      <point x="465" y="271"/>
      <point x="541" y="207"/>
      <point x="669" y="207" type="curve" smooth="yes"/>
      <point x="820" y="207"/>
      <point x="959" y="266"/>
      <point x="1054" y="396" type="curve"/>
      <point x="1054" y="203" type="line"/>
      <point x="962" y="133"/>
      <point x="837" y="82"/>
      <point x="682" y="82" type="curve" smooth="yes"/>
      <point x="449" y="82"/>
      <point x="323" y="212"/>
      <point x="323" y="370" type="curve" smooth="yes"/>
      <point x="323" y="499"/>
      <point x="432" y="624"/>
      <point x="721" y="624" type="curve" smooth="yes"/>
      <point x="733" y="624" type="line"/>
    </contour>
    <contour>
      <point x="1021" y="-1" type="move" name="btm"/>
    </contour>
    <contour>
      <point x="1021" y="1279" type="move" name="top"/>
    </contour>
  </outline>
</glyph>
<glyph name="dayaprehalfdeva" format="1">
  <advance width="975"/>
  <outline>
    <contour>
      <point x="472" y="1212" type="line"/>
      <point x="625" y="1212" type="line"/>
      <point x="625" y="889" type="line"/>
      <point x="472" y="889" type="line"/>
    </contour>
    <contour>
      <point x="432" y="452" type="line"/>
      <point x="220" y="489"/>
      <point x="96" y="592"/>
      <point x="96" y="739" type="curve" smooth="yes"/>
      <point x="96" y="872"/>
      <point x="209" y="950"/>
      <point x="394" y="950" type="curve" smooth="yes"/>
      <point x="445" y="950"/>
      <point x="561" y="950"/>
      <point x="625" y="950" type="curve"/>
      <point x="625" y="842" type="line"/>
      <point x="575" y="842"/>
      <point x="465" y="842"/>
      <point x="433" y="842" type="curve" smooth="yes"/>
      <point x="302" y="842"/>
      <point x="241" y="794"/>
      <point x="241" y="714" type="curve" smooth="yes"/>
      <point x="241" y="637"/>
      <point x="334" y="562"/>
      <point x="535" y="551" type="curve"/>
    </contour>
    <contour>
      <point x="1005" y="1165" type="line"/>
      <point x="-30" y="1165" type="line"/>
      <point x="-30" y="1279" type="line"/>
      <point x="1005" y="1279" type="line"/>
    </contour>
    <contour>
      <point x="765" y="511" type="line"/>
      <point x="755" y="511" type="line"/>
      <point x="528" y="511"/>
      <point x="461" y="431"/>
      <point x="461" y="350" type="curve" smooth="yes"/>
      <point x="461" y="271"/>
      <point x="544" y="208"/>
      <point x="657" y="208" type="curve" smooth="yes"/>
      <point x="812" y="208"/>
      <point x="941" y="287"/>
      <point x="1076" y="462" type="curve"/>
      <point x="1163" y="359" type="line"/>
      <point x="1015" y="196"/>
      <point x="869" y="90"/>
      <point x="672" y="90" type="curve" smooth="yes"/>
      <point x="462" y="90"/>
      <point x="319" y="210"/>
      <point x="319" y="370" type="curve" smooth="yes"/>
      <point x="319" y="497"/>
      <point x="423" y="623"/>
      <point x="717" y="623" type="curve" smooth="yes"/>
      <point x="729" y="623" type="line"/>
    </contour>
  </outline>
</glyph>
<glyph name="ddaddadeva" format="1">
  <advance width="1156"/>
  <outline>
    <contour>
      <point x="720" y="292" type="line"/>
      <point x="868" y="292" type="line"/>
      <point x="868" y="29" type="line"/>
      <point x="463" y="29" type="line"/>
      <point x="376" y="29"/>
      <point x="342" y="-13"/>
      <point x="342" y="-59" type="curve" smooth="yes"/>
      <point x="342" y="-106"/>
      <point x="377" y="-143"/>
      <point x="458" y="-172" type="curve"/>
      <point x="392" y="-167" type="line"/>
      <point x="485" y="-127"/>
      <point x="585" y="-98"/>
      <point x="686" y="-98" type="curve" smooth="yes"/>
      <point x="884" y="-98"/>
      <point x="991" y="-186"/>
      <point x="991" y="-313" type="curve" smooth="yes"/>
      <point x="991" y="-438"/>
      <point x="881" y="-540"/>
      <point x="645" y="-540" type="curve" smooth="yes"/>
      <point x="490" y="-540"/>
      <point x="331" y="-508"/>
      <point x="146" y="-415" type="curve"/>
      <point x="177" y="-312" type="line"/>
      <point x="346" y="-402"/>
      <point x="499" y="-435"/>
      <point x="623" y="-435" type="curve" smooth="yes"/>
      <point x="796" y="-435"/>
      <point x="861" y="-370"/>
      <point x="861" y="-312" type="curve" smooth="yes"/>
      <point x="861" y="-257"/>
      <point x="808" y="-205"/>
      <point x="678" y="-205" type="curve" smooth="yes"/>
      <point x="599" y="-205"/>
      <point x="501" y="-231"/>
      <point x="434" y="-268" type="curve"/>
      <point x="426" y="-268" type="line"/>
      <point x="273" y="-202"/>
      <point x="214" y="-130"/>
      <point x="214" y="-37" type="curve" smooth="yes"/>
      <point x="214" y="54"/>
      <point x="287" y="133"/>
      <point x="455" y="133" type="curve" smooth="yes"/>
      <point x="763" y="133" type="line"/>
      <point x="720" y="88" type="line"/>
    </contour>
    <contour>
      <point x="752" y="1200" type="line"/>
      <point x="906" y="1200" type="line"/>
      <point x="906" y="876" type="line"/>
      <point x="482" y="876" type="line"/>
      <point x="349" y="876"/>
      <point x="305" y="826"/>
      <point x="305" y="770" type="curve" smooth="yes"/>
      <point x="305" y="713"/>
      <point x="357" y="661"/>
      <point x="442" y="638" type="curve"/>
      <point x="369" y="642" type="line"/>
      <point x="468" y="688"/>
      <point x="576" y="718"/>
      <point x="688" y="718" type="curve" smooth="yes"/>
      <point x="897" y="718"/>
      <point x="1020" y="617"/>
      <point x="1020" y="476" type="curve" smooth="yes"/>
      <point x="1020" y="335"/>
      <point x="891" y="228"/>
      <point x="634" y="228" type="curve" smooth="yes"/>
      <point x="460" y="228"/>
      <point x="298" y="267"/>
      <point x="110" y="369" type="curve"/>
      <point x="141" y="484" type="line"/>
      <point x="313" y="382"/>
      <point x="478" y="340"/>
      <point x="618" y="340" type="curve" smooth="yes"/>
      <point x="809" y="340"/>
      <point x="883" y="408"/>
      <point x="883" y="479" type="curve" smooth="yes"/>
      <point x="883" y="547"/>
      <point x="820" y="604"/>
      <point x="680" y="604" type="curve" smooth="yes"/>
      <point x="584" y="604"/>
      <point x="490" y="580"/>
      <point x="416" y="539" type="curve"/>
      <point x="406" y="536" type="line"/>
      <point x="257" y="597"/>
      <point x="170" y="683"/>
      <point x="170" y="789" type="curve" smooth="yes"/>
      <point x="170" y="888"/>
      <point x="250" y="984"/>
      <point x="462" y="984" type="curve" smooth="yes"/>
      <point x="798" y="984" type="line"/>
      <point x="752" y="938" type="line"/>
    </contour>
    <contour>
      <point x="1186" y="1165" type="line"/>
      <point x="-30" y="1165" type="line"/>
      <point x="-30" y="1279" type="line"/>
      <point x="1186" y="1279" type="line"/>
    </contour>
    <contour>
      <point x="535" y="-519" type="move" name="btm"/>
    </contour>
    <contour>
      <point x="752" y="1279" type="move" name="top"/>
    </contour>
  </outline>
</glyph>
<glyph name="ddaddhadeva" format="1">
  <advance width="1156"/>
  <outline>
    <contour>
      <point x="629" y="292" type="line"/>
      <point x="777" y="292" type="line"/>
      <point x="777" y="10" type="line"/>
      <point x="558" y="10" type="line" smooth="yes"/>
      <point x="310" y="10"/>
      <point x="238" y="-81"/>
      <point x="238" y="-194" type="curve" smooth="yes"/>
      <point x="238" y="-321"/>
      <point x="379" y="-424"/>
      <point x="614" y="-424" type="curve" smooth="yes"/>
      <point x="799" y="-424"/>
      <point x="867" y="-366"/>
      <point x="867" y="-306" type="curve" smooth="yes"/>
      <point x="867" y="-256"/>
      <point x="826" y="-214"/>
      <point x="737" y="-214" type="curve" smooth="yes"/>
      <point x="641" y="-214"/>
      <point x="582" y="-278"/>
      <point x="582" y="-344" type="curve" smooth="yes"/>
      <point x="582" y="-396"/>
      <point x="599" y="-434"/>
      <point x="636" y="-472" type="curve"/>
      <point x="517" y="-483" type="line"/>
      <point x="484" y="-435"/>
      <point x="467" y="-388"/>
      <point x="467" y="-323" type="curve" smooth="yes"/>
      <point x="467" y="-222"/>
      <point x="550" y="-109"/>
      <point x="730" y="-109" type="curve" smooth="yes"/>
      <point x="903" y="-109"/>
      <point x="982" y="-204"/>
      <point x="982" y="-312" type="curve" smooth="yes"/>
      <point x="982" y="-426"/>
      <point x="856" y="-530"/>
      <point x="628" y="-530" type="curve" smooth="yes"/>
      <point x="285" y="-530"/>
      <point x="104" y="-367"/>
      <point x="104" y="-173" type="curve" smooth="yes"/>
      <point x="104" y="-18"/>
      <point x="225" y="128"/>
      <point x="512" y="128" type="curve" smooth="yes"/>
      <point x="670" y="128" type="line"/>
      <point x="629" y="86" type="line"/>
    </contour>
    <contour>
      <point x="752" y="1200" type="line"/>
      <point x="901" y="1200" type="line"/>
      <point x="901" y="873" type="line"/>
      <point x="482" y="873" type="line" smooth="yes"/>
      <point x="349" y="873"/>
      <point x="305" y="826"/>
      <point x="305" y="770" type="curve" smooth="yes"/>
      <point x="305" y="710"/>
      <point x="347" y="663"/>
      <point x="442" y="638" type="curve"/>
      <point x="365" y="642" type="line"/>
      <point x="464" y="691"/>
      <point x="566" y="718"/>
      <point x="688" y="718" type="curve" smooth="yes"/>
      <point x="897" y="718"/>
      <point x="1017" y="617"/>
      <point x="1017" y="476" type="curve" smooth="yes"/>
      <point x="1017" y="335"/>
      <point x="891" y="228"/>
      <point x="634" y="228" type="curve" smooth="yes"/>
      <point x="460" y="228"/>
      <point x="298" y="265"/>
      <point x="110" y="367" type="curve"/>
      <point x="141" y="486" type="line"/>
      <point x="313" y="384"/>
      <point x="478" y="346"/>
      <point x="618" y="346" type="curve" smooth="yes"/>
      <point x="809" y="346"/>
      <point x="884" y="408"/>
      <point x="884" y="479" type="curve" smooth="yes"/>
      <point x="884" y="547"/>
      <point x="820" y="604"/>
      <point x="680" y="604" type="curve" smooth="yes"/>
      <point x="583" y="604"/>
      <point x="484" y="571"/>
      <point x="410" y="528" type="curve"/>
      <point x="396" y="528" type="line"/>
      <point x="248" y="589"/>
      <point x="170" y="687"/>
      <point x="170" y="789" type="curve" smooth="yes"/>
      <point x="170" y="888"/>
      <point x="250" y="988"/>
      <point x="462" y="988" type="curve" smooth="yes"/>
      <point x="798" y="988" type="line"/>
      <point x="752" y="938" type="line"/>
    </contour>
    <contour>
      <point x="1186" y="1165" type="line"/>
      <point x="-30" y="1165" type="line"/>
      <point x="-30" y="1279" type="line"/>
      <point x="1186" y="1279" type="line"/>
    </contour>
    <contour>
      <point x="535" y="-519" type="move" name="btm"/>
    </contour>
    <contour>
      <point x="752" y="1279" type="move" name="top"/>
    </contour>
  </outline>
</glyph>
<glyph name="dddha2deva" format="1">
  <advance width="1156"/>
  <outline>
    <contour>
      <point x="759" y="1200" type="line"/>
      <point x="913" y="1200" type="line"/>
      <point x="913" y="837" type="line"/>
      <point x="470" y="837" type="line"/>
      <point x="350" y="837"/>
      <point x="303" y="780"/>
      <point x="303" y="710" type="curve" smooth="yes"/>
      <point x="303" y="645"/>
      <point x="359" y="583"/>
      <point x="453" y="550" type="curve"/>
      <point x="381" y="555" type="line"/>
      <point x="471" y="595"/>
      <point x="565" y="626"/>
      <point x="689" y="626" type="curve" smooth="yes"/>
      <point x="883" y="626"/>
      <point x="1022" y="520"/>
      <point x="1022" y="350" type="curve" smooth="yes"/>
      <point x="1022" y="173"/>
      <point x="878" y="48"/>
      <point x="624" y="48" type="curve" smooth="yes"/>
      <point x="426" y="48"/>
      <point x="293" y="96"/>
      <point x="103" y="202" type="curve"/>
      <point x="136" y="322" type="line"/>
      <point x="304" y="214"/>
      <point x="439" y="165"/>
      <point x="610" y="165" type="curve" smooth="yes"/>
      <point x="791" y="165"/>
      <point x="883" y="248"/>
      <point x="883" y="353" type="curve" smooth="yes"/>
      <point x="883" y="449"/>
      <point x="805" y="505"/>
      <point x="673" y="505" type="curve" smooth="yes"/>
      <point x="578" y="505"/>
      <point x="492" y="476"/>
      <point x="423" y="441" type="curve"/>
      <point x="417" y="441" type="line"/>
      <point x="246" y="518"/>
      <point x="169" y="620"/>
      <point x="169" y="733" type="curve" smooth="yes"/>
      <point x="169" y="840"/>
      <point x="250" y="950"/>
      <point x="458" y="950" type="curve" smooth="yes"/>
      <point x="805" y="950" type="line"/>
      <point x="759" y="904" type="line"/>
    </contour>
    <contour>
      <point x="1186" y="1165" type="line"/>
      <point x="-30" y="1165" type="line"/>
      <point x="-30" y="1279" type="line"/>
      <point x="1186" y="1279" type="line"/>
    </contour>
    <component base="nuktadeva" xOffset="945" yOffset="172"/>
    <contour>
      <point x="520" y="54" type="move" name="btm"/>
    </contour>
    <contour>
      <point x="759" y="1279" type="move" name="top"/>
    </contour>
  </outline>
</glyph>
<glyph name="ddhaddhadeva" format="1">
  <advance width="1139"/>
  <outline>
    <contour>
      <point x="658" y="292" type="line"/>
      <point x="809" y="292" type="line"/>
      <point x="809" y="10" type="line"/>
      <point x="598" y="10" type="line"/>
      <point x="349" y="10"/>
      <point x="268" y="-82"/>
      <point x="268" y="-204" type="curve" smooth="yes"/>
      <point x="268" y="-331"/>
      <point x="408" y="-426"/>
      <point x="643" y="-426" type="curve" smooth="yes"/>
      <point x="828" y="-426"/>
      <point x="897" y="-364"/>
      <point x="897" y="-304" type="curve" smooth="yes"/>
      <point x="897" y="-254"/>
      <point x="855" y="-209"/>
      <point x="766" y="-209" type="curve" smooth="yes"/>
      <point x="670" y="-209"/>
      <point x="616" y="-264"/>
      <point x="616" y="-330" type="curve" smooth="yes"/>
      <point x="616" y="-377"/>
      <point x="631" y="-422"/>
      <point x="664" y="-464" type="curve"/>
      <point x="546" y="-473" type="line"/>
      <point x="514" y="-425"/>
      <point x="495" y="-377"/>
      <point x="495" y="-312" type="curve" smooth="yes"/>
      <point x="495" y="-211"/>
      <point x="589" y="-114"/>
      <point x="759" y="-114" type="curve" smooth="yes"/>
      <point x="926" y="-114"/>
      <point x="1012" y="-202"/>
      <point x="1012" y="-310" type="curve" smooth="yes"/>
      <point x="1012" y="-424"/>
      <point x="885" y="-524"/>
      <point x="657" y="-524" type="curve" smooth="yes"/>
      <point x="314" y="-524"/>
      <point x="128" y="-377"/>
      <point x="128" y="-173" type="curve" smooth="yes"/>
      <point x="128" y="-18"/>
      <point x="254" y="120"/>
      <point x="542" y="120" type="curve" smooth="yes"/>
      <point x="699" y="120" type="line"/>
      <point x="658" y="86" type="line"/>
    </contour>
    <contour>
      <point x="1169" y="1165" type="line"/>
      <point x="-30" y="1165" type="line"/>
      <point x="-30" y="1279" type="line"/>
      <point x="1169" y="1279" type="line"/>
    </contour>
    <contour>
      <point x="725" y="1195" type="line"/>
      <point x="878" y="1195" type="line"/>
      <point x="878" y="859" type="line"/>
      <point x="611" y="859" type="line"/>
      <point x="366" y="859"/>
      <point x="260" y="757"/>
      <point x="260" y="618" type="curve" smooth="yes"/>
      <point x="260" y="468"/>
      <point x="422" y="358"/>
      <point x="657" y="358" type="curve" smooth="yes"/>
      <point x="850" y="358"/>
      <point x="931" y="420"/>
      <point x="931" y="488" type="curve" smooth="yes"/>
      <point x="931" y="546"/>
      <point x="879" y="589"/>
      <point x="791" y="589" type="curve" smooth="yes"/>
      <point x="695" y="589"/>
      <point x="640" y="539"/>
      <point x="640" y="458" type="curve" smooth="yes"/>
      <point x="640" y="407"/>
      <point x="659" y="363"/>
      <point x="691" y="325" type="curve"/>
      <point x="569" y="313" type="line"/>
      <point x="532" y="361"/>
      <point x="514" y="416"/>
      <point x="514" y="477" type="curve" smooth="yes"/>
      <point x="514" y="602"/>
      <point x="617" y="693"/>
      <point x="784" y="693" type="curve" smooth="yes"/>
      <point x="947" y="693"/>
      <point x="1056" y="604"/>
      <point x="1056" y="479" type="curve" smooth="yes"/>
      <point x="1056" y="352"/>
      <point x="909" y="258"/>
      <point x="672" y="258" type="curve" smooth="yes"/>
      <point x="319" y="258"/>
      <point x="118" y="428"/>
      <point x="118" y="650" type="curve" smooth="yes"/>
      <point x="118" y="825"/>
      <point x="269" y="974"/>
      <point x="555" y="974" type="curve" smooth="yes"/>
      <point x="766" y="974" type="line"/>
      <point x="725" y="940" type="line"/>
    </contour>
    <contour>
      <point x="535" y="-519" type="move" name="btm"/>
    </contour>
    <contour>
      <point x="725" y="1279" type="move" name="top"/>
    </contour>
  </outline>
</glyph>
<glyph name="ddhayadeva" format="1">
  <advance width="2314"/>
  <outline>
    <contour>
      <point x="1925" y="1196" type="line"/>
      <point x="2079" y="1196" type="line"/>
      <point x="2079" y="-21" type="line"/>
      <point x="1925" y="-21" type="line"/>
    </contour>
    <contour>
      <point x="1060" y="1165" type="line"/>
      <point x="1060" y="1279" type="line"/>
      <point x="2344" y="1279" type="line"/>
      <point x="2344" y="1165" type="line"/>
    </contour>
    <contour>
      <point x="832" y="774" type="line"/>
      <point x="827" y="891" type="line"/>
      <point x="1315" y="891" type="line"/>
      <point x="1523" y="891"/>
      <point x="1618" y="798"/>
      <point x="1618" y="660" type="curve" smooth="yes"/>
      <point x="1618" y="522"/>
      <point x="1490" y="442"/>
      <point x="1299" y="390" type="curve"/>
      <point x="1304" y="463" type="line"/>
      <point x="1378" y="328"/>
      <point x="1504" y="252"/>
      <point x="1628" y="252" type="curve" smooth="yes"/>
      <point x="1766" y="252"/>
      <point x="1884" y="316"/>
      <point x="1976" y="451" type="curve"/>
      <point x="1975" y="252" type="line"/>
      <point x="1896" y="174"/>
      <point x="1797" y="125"/>
      <point x="1661" y="125" type="curve" smooth="yes"/>
      <point x="1465" y="125"/>
      <point x="1279" y="245"/>
      <point x="1160" y="464" type="curve"/>
      <point x="1160" y="470" type="line"/>
      <point x="1382" y="524"/>
      <point x="1482" y="577"/>
      <point x="1482" y="656" type="curve" smooth="yes"/>
      <point x="1482" y="728"/>
      <point x="1430" y="774"/>
      <point x="1294" y="774" type="curve" smooth="yes"/>
    </contour>
    <component base="ddhadeva"/>
    <contour>
      <point x="1925" y="1279" type="move" name="top"/>
    </contour>
  </outline>
</glyph>
<glyph name="dhaprehalfdeva" format="1">
  <advance width="831"/>
  <outline>
    <contour>
      <point x="696" y="754" type="line"/>
      <point x="682" y="754" type="line"/>
      <point x="470" y="751"/>
      <point x="391" y="657"/>
      <point x="391" y="551" type="curve" smooth="yes"/>
      <point x="391" y="454"/>
      <point x="479" y="376"/>
      <point x="595" y="376" type="curve" smooth="yes"/>
      <point x="742" y="376"/>
      <point x="875" y="442"/>
      <point x="1008" y="584" type="curve"/>
      <point x="1079" y="470" type="line"/>
      <point x="943" y="330"/>
      <point x="790" y="250"/>
      <point x="617" y="250" type="curve" smooth="yes"/>
      <point x="399" y="250"/>
      <point x="253" y="390"/>
      <point x="253" y="569" type="curve" smooth="yes"/>
      <point x="253" y="723"/>
      <point x="364" y="875"/>
      <point x="645" y="875" type="curve" smooth="yes"/>
      <point x="657" y="875" type="line"/>
    </contour>
    <contour>
      <point x="376" y="748" type="line"/>
      <point x="183" y="795"/>
      <point x="57" y="900"/>
      <point x="57" y="1065" type="curve" smooth="yes"/>
      <point x="57" y="1207"/>
      <point x="172" y="1313"/>
      <point x="338" y="1313" type="curve" smooth="yes"/>
      <point x="438" y="1313"/>
      <point x="503" y="1293"/>
      <point x="563" y="1265" type="curve"/>
      <point x="540" y="1159" type="line"/>
      <point x="491" y="1182"/>
      <point x="439" y="1197"/>
      <point x="368" y="1197" type="curve" smooth="yes"/>
      <point x="268" y="1197"/>
      <point x="206" y="1132"/>
      <point x="206" y="1043" type="curve" smooth="yes"/>
      <point x="206" y="936"/>
      <point x="308" y="862"/>
      <point x="499" y="838" type="curve"/>
    </contour>
  </outline>
</glyph>
<glyph name="eightdevaNEP" format="1">
  <advance width="1067"/>
  <outline>
    <contour>
      <point x="36" y="1120" type="line"/>
      <point x="36" y="1234" type="line"/>
      <point x="1024" y="1234" type="line"/>
      <point x="1024" y="1120" type="line"/>
    </contour>
    <contour>
      <point x="464" y="307" type="curve" smooth="yes"/>
      <point x="268" y="307"/>
      <point x="131" y="422"/>
      <point x="131" y="645" type="curve" smooth="yes"/>
      <point x="131" y="838"/>
      <point x="222" y="1046"/>
      <point x="338" y="1190" type="curve"/>
      <point x="471" y="1127" type="line"/>
      <point x="343" y="986"/>
      <point x="271" y="807"/>
      <point x="271" y="639" type="curve" smooth="yes"/>
      <point x="271" y="509"/>
      <point x="352" y="436"/>
      <point x="469" y="436" type="curve" smooth="yes"/>
      <point x="586" y="436"/>
      <point x="687" y="472"/>
      <point x="803" y="472" type="curve" smooth="yes"/>
      <point x="941" y="472"/>
      <point x="1032" y="373"/>
      <point x="1032" y="249" type="curve" smooth="yes"/>
      <point x="1032" y="154"/>
      <point x="993" y="74"/>
      <point x="920" y="-17" type="curve"/>
      <point x="791" y="30" type="line"/>
      <point x="860" y="104"/>
      <point x="898" y="180"/>
      <point x="898" y="245" type="curve" smooth="yes"/>
      <point x="898" y="298"/>
      <point x="856" y="345"/>
      <point x="789" y="345" type="curve" smooth="yes"/>
      <point x="701" y="345"/>
      <point x="595" y="307"/>
    </contour>
  </outline>
</glyph>
<glyph name="fivedevaNEP" format="1">
  <advance width="942"/>
  <outline>
    <contour>
      <point x="265" y="162" type="line"/>
      <point x="371" y="201" type="line"/>
      <point x="524" y="-80" type="line"/>
      <point x="417" y="-127" type="line"/>
    </contour>
    <contour>
      <point x="311" y="255" type="curve" smooth="yes"/>
      <point x="466" y="255"/>
      <point x="619" y="385"/>
      <point x="648" y="668" type="curve" smooth="yes"/>
      <point x="708" y="1234" type="line"/>
      <point x="845" y="1234" type="line"/>
      <point x="780" y="662" type="line"/>
      <point x="742" y="325"/>
      <point x="568" y="134"/>
      <point x="269" y="134" type="curve" smooth="yes"/>
      <point x="146" y="134"/>
      <point x="92" y="170"/>
      <point x="92" y="220" type="curve" smooth="yes"/>
      <point x="92" y="280"/>
      <point x="172" y="369"/>
      <point x="243" y="369" type="curve" smooth="yes"/>
      <point x="295" y="369"/>
      <point x="325" y="327"/>
      <point x="370" y="216" type="curve"/>
      <point x="178" y="247" type="line"/>
      <point x="219" y="240"/>
      <point x="278" y="255"/>
    </contour>
    <contour>
      <point x="715" y="739" type="curve"/>
      <point x="737" y="606" type="line"/>
      <point x="663" y="570"/>
      <point x="577" y="544"/>
      <point x="477" y="544" type="curve" smooth="yes"/>
      <point x="269" y="544"/>
      <point x="130" y="657"/>
      <point x="130" y="864" type="curve" smooth="yes"/>
      <point x="130" y="1234" type="line"/>
      <point x="265" y="1234" type="line"/>
      <point x="265" y="849" type="line"/>
      <point x="265" y="728"/>
      <point x="346" y="667"/>
      <point x="466" y="667" type="curve" smooth="yes"/>
      <point x="564" y="667"/>
      <point x="636" y="690"/>
    </contour>
  </outline>
</glyph>
<glyph name="garaprehalfdeva" format="1">
  <advance width="675"/>
  <outline>
    <contour>
      <point x="705" y="1165" type="line"/>
      <point x="-30" y="1165" type="line"/>
      <point x="-30" y="1279" type="line"/>
      <point x="705" y="1279" type="line"/>
    </contour>
    <contour>
      <point x="936" y="381" type="line"/>
      <point x="370" y="-49" type="line"/>
      <point x="288" y="57" type="line"/>
      <point x="857" y="491" type="line"/>
    </contour>
    <contour>
      <point x="448" y="1203" type="line"/>
      <point x="448" y="485" type="line" smooth="yes"/>
      <point x="448" y="438"/>
      <point x="432" y="416"/>
      <point x="386" y="416" type="curve" smooth="yes"/>
      <point x="305" y="416"/>
      <point x="145" y="587"/>
      <point x="145" y="649" type="curve" smooth="yes"/>
      <point x="145" y="681"/>
      <point x="162" y="703"/>
      <point x="211" y="703" type="curve" smooth="yes"/>
      <point x="326" y="703" type="line"/>
      <point x="295" y="671" type="line"/>
      <point x="295" y="1203" type="line"/>
    </contour>
  </outline>
</glyph>
<glyph name="ghaprehalfdeva" format="1">
  <advance width="865"/>
  <outline>
    <contour>
      <point x="731" y="754" type="line"/>
      <point x="717" y="754" type="line"/>
      <point x="505" y="751"/>
      <point x="427" y="657"/>
      <point x="427" y="551" type="curve" smooth="yes"/>
      <point x="427" y="454"/>
      <point x="514" y="376"/>
      <point x="630" y="376" type="curve" smooth="yes"/>
      <point x="778" y="376"/>
      <point x="910" y="442"/>
      <point x="1044" y="584" type="curve"/>
      <point x="1114" y="470" type="line"/>
      <point x="976" y="327"/>
      <point x="823" y="250"/>
      <point x="653" y="250" type="curve" smooth="yes"/>
      <point x="434" y="250"/>
      <point x="288" y="390"/>
      <point x="288" y="569" type="curve" smooth="yes"/>
      <point x="288" y="723"/>
      <point x="399" y="875"/>
      <point x="680" y="875" type="curve" smooth="yes"/>
      <point x="692" y="875" type="line"/>
    </contour>
    <contour>
      <point x="415" y="747" type="line"/>
      <point x="199" y="802"/>
      <point x="114" y="926"/>
      <point x="114" y="1064" type="curve" smooth="yes"/>
      <point x="114" y="1123"/>
      <point x="131" y="1183"/>
      <point x="169" y="1239" type="curve"/>
      <point x="318" y="1208" type="line"/>
      <point x="280" y="1158"/>
      <point x="263" y="1102"/>
      <point x="263" y="1048" type="curve" smooth="yes"/>
      <point x="263" y="957"/>
      <point x="331" y="865"/>
      <point x="540" y="839" type="curve"/>
    </contour>
    <contour>
      <point x="-30" y="1165" type="line"/>
      <point x="-30" y="1279" type="line"/>
      <point x="895" y="1279" type="line"/>
      <point x="895" y="1165" type="line"/>
    </contour>
  </outline>
</glyph>
<glyph name="haladeva" format="1">
  <advance width="1459"/>
  <outline>
    <contour>
      <point x="1167" y="358" type="line"/>
      <point x="1167" y="226" type="line"/>
      <point x="917" y="12" type="line"/>
      <point x="839" y="89" type="line"/>
    </contour>
    <contour>
      <point x="1037" y="194" type="curve"/>
      <point x="968" y="134" type="line"/>
      <point x="902" y="208"/>
      <point x="857" y="234"/>
      <point x="797" y="234" type="curve" smooth="yes"/>
      <point x="730" y="234"/>
      <point x="684" y="185"/>
      <point x="683" y="129" type="curve" smooth="yes"/>
      <point x="682" y="62"/>
      <point x="712" y="9"/>
      <point x="807" y="-68" type="curve"/>
      <point x="728" y="-117" type="line"/>
      <point x="627" y="-32"/>
      <point x="573" y="49"/>
      <point x="573" y="146" type="curve" smooth="yes"/>
      <point x="573" y="249"/>
      <point x="650" y="333"/>
      <point x="772" y="333" type="curve" smooth="yes"/>
      <point x="879" y="333"/>
      <point x="946" y="291"/>
    </contour>
    <contour>
      <point x="1489" y="1165" type="line"/>
      <point x="-30" y="1165" type="line"/>
      <point x="-30" y="1279" type="line"/>
      <point x="1489" y="1279" type="line"/>
    </contour>
    <contour>
      <point x="1068" y="1198" type="line"/>
      <point x="1221" y="1198" type="line"/>
      <point x="1221" y="833" type="line"/>
      <point x="432" y="833" type="line"/>
      <point x="307" y="833"/>
      <point x="253" y="774"/>
      <point x="253" y="702" type="curve" smooth="yes"/>
      <point x="253" y="631"/>
      <point x="311" y="574"/>
      <point x="409" y="541" type="curve"/>
      <point x="328" y="447" type="line"/>
      <point x="184" y="518"/>
      <point x="110" y="618"/>
      <point x="110" y="726" type="curve" smooth="yes"/>
      <point x="110" y="850"/>
      <point x="198" y="947"/>
      <point x="404" y="947" type="curve" smooth="yes"/>
      <point x="1107" y="947" type="line"/>
      <point x="1068" y="905" type="line"/>
    </contour>
    <contour>
      <point x="730" y="505" type="curve" smooth="yes"/>
      <point x="439" y="505"/>
      <point x="324" y="359"/>
      <point x="324" y="205" type="curve" smooth="yes"/>
      <point x="324" y="48"/>
      <point x="426" y="-108"/>
      <point x="675" y="-278" type="curve"/>
      <point x="587" y="-359" type="line"/>
      <point x="316" y="-170"/>
      <point x="191" y="21"/>
      <point x="191" y="231" type="curve" smooth="yes"/>
      <point x="191" y="425"/>
      <point x="342" y="628"/>
      <point x="724" y="628" type="curve" smooth="yes"/>
      <point x="1115" y="628"/>
      <point x="1291" y="441"/>
      <point x="1292" y="200" type="curve" smooth="yes"/>
      <point x="1292" y="-213" type="line"/>
      <point x="1150" y="-213" type="line"/>
      <point x="1150" y="211" type="line"/>
      <point x="1150" y="373"/>
      <point x="1039" y="505"/>
    </contour>
    <contour>
      <point x="1150" y="-213" type="move" name="btm"/>
    </contour>
    <contour>
      <point x="1068" y="1279" type="move" name="top"/>
    </contour>
  </outline>
</glyph>
<glyph name="hamadeva" format="1">
  <advance width="1729"/>
  <outline>
    <contour>
      <point x="329" y="217" type="curve" smooth="yes"/>
      <point x="329" y="60"/>
      <point x="429" y="-96"/>
      <point x="679" y="-266" type="curve"/>
      <point x="591" y="-347" type="line"/>
      <point x="324" y="-160"/>
      <point x="195" y="30"/>
      <point x="195" y="240" type="curve" smooth="yes"/>
      <point x="195" y="438"/>
      <point x="342" y="609"/>
      <point x="600" y="609" type="curve" smooth="yes"/>
      <point x="871" y="609"/>
      <point x="1024" y="444"/>
      <point x="1024" y="210" type="curve" smooth="yes"/>
      <point x="1024" y="112" type="line"/>
      <point x="980" y="155" type="line"/>
      <point x="1411" y="155" type="line"/>
      <point x="1411" y="31" type="line"/>
      <point x="989" y="31" type="line"/>
      <point x="1024" y="59" type="line"/>
      <point x="1024" y="-72" type="line"/>
      <point x="1024" y="-114"/>
      <point x="1006" y="-138"/>
      <point x="969" y="-138" type="curve" smooth="yes"/>
      <point x="937" y="-138"/>
      <point x="888" y="-109"/>
      <point x="839" y="-61" type="curve" smooth="yes"/>
      <point x="783" y="-5"/>
      <point x="743" y="57"/>
      <point x="743" y="97" type="curve" smooth="yes"/>
      <point x="743" y="132"/>
      <point x="765" y="155"/>
      <point x="812" y="155" type="curve" smooth="yes"/>
      <point x="910" y="155" type="line"/>
      <point x="884" y="117" type="line"/>
      <point x="884" y="229" type="line"/>
      <point x="884" y="378"/>
      <point x="799" y="487"/>
      <point x="609" y="487" type="curve" smooth="yes"/>
      <point x="440" y="487"/>
      <point x="329" y="374"/>
    </contour>
    <contour>
      <point x="824" y="1198" type="line"/>
      <point x="978" y="1198" type="line"/>
      <point x="978" y="833" type="line"/>
      <point x="432" y="833" type="line"/>
      <point x="307" y="833"/>
      <point x="253" y="774"/>
      <point x="253" y="702" type="curve" smooth="yes"/>
      <point x="253" y="631"/>
      <point x="311" y="574"/>
      <point x="409" y="541" type="curve"/>
      <point x="328" y="447" type="line"/>
      <point x="184" y="518"/>
      <point x="110" y="618"/>
      <point x="110" y="726" type="curve" smooth="yes"/>
      <point x="110" y="850"/>
      <point x="198" y="947"/>
      <point x="404" y="947" type="curve" smooth="yes"/>
      <point x="863" y="947" type="line"/>
      <point x="824" y="905" type="line"/>
    </contour>
    <contour>
      <point x="-30" y="1165" type="line"/>
      <point x="-30" y="1279" type="line"/>
      <point x="1759" y="1279" type="line"/>
      <point x="1759" y="1165" type="line"/>
    </contour>
    <contour>
      <point x="1350" y="1181" type="line"/>
      <point x="1504" y="1181" type="line"/>
      <point x="1504" y="-267" type="line"/>
      <point x="1350" y="-267" type="line"/>
    </contour>
    <contour>
      <point x="1350" y="-267" type="move" name="btm"/>
    </contour>
    <contour>
      <point x="1350" y="1279" type="move" name="top"/>
    </contour>
  </outline>
</glyph>
<glyph name="hanadeva" format="1">
  <advance width="1397"/>
  <outline>
    <contour>
      <point x="324" y="208" type="curve" smooth="yes"/>
      <point x="324" y="46"/>
      <point x="429" y="-110"/>
      <point x="675" y="-277" type="curve"/>
      <point x="587" y="-359" type="line"/>
      <point x="319" y="-170"/>
      <point x="192" y="16"/>
      <point x="192" y="233" type="curve" smooth="yes"/>
      <point x="192" y="428"/>
      <point x="346" y="628"/>
      <point x="703" y="628" type="curve" smooth="yes"/>
      <point x="1083" y="628"/>
      <point x="1252" y="441"/>
      <point x="1252" y="200" type="curve" smooth="yes"/>
      <point x="1252" y="-213" type="line"/>
      <point x="1110" y="-213" type="line"/>
      <point x="1110" y="211" type="line"/>
      <point x="1110" y="373"/>
      <point x="1006" y="505"/>
      <point x="709" y="505" type="curve" smooth="yes"/>
      <point x="443" y="505"/>
      <point x="324" y="364"/>
    </contour>
    <contour>
      <point x="1427" y="1165" type="line"/>
      <point x="-30" y="1165" type="line"/>
      <point x="-30" y="1279" type="line"/>
      <point x="1427" y="1279" type="line"/>
    </contour>
    <contour>
      <point x="1011" y="1198" type="line"/>
      <point x="1165" y="1198" type="line"/>
      <point x="1165" y="833" type="line"/>
      <point x="432" y="833" type="line"/>
      <point x="307" y="833"/>
      <point x="253" y="774"/>
      <point x="253" y="702" type="curve" smooth="yes"/>
      <point x="253" y="631"/>
      <point x="311" y="574"/>
      <point x="409" y="541" type="curve"/>
      <point x="328" y="447" type="line"/>
      <point x="184" y="518"/>
      <point x="110" y="618"/>
      <point x="110" y="726" type="curve" smooth="yes"/>
      <point x="110" y="850"/>
      <point x="198" y="947"/>
      <point x="404" y="947" type="curve" smooth="yes"/>
      <point x="1050" y="947" type="line"/>
      <point x="1011" y="905" type="line"/>
    </contour>
    <contour>
      <point x="1185" y="261" type="line"/>
      <point x="1185" y="146" type="line"/>
      <point x="751" y="146" type="line"/>
      <point x="801" y="197" type="line"/>
      <point x="801" y="-16" type="line"/>
      <point x="801" y="-60"/>
      <point x="783" y="-81"/>
      <point x="752" y="-81" type="curve" smooth="yes"/>
      <point x="736" y="-81"/>
      <point x="719" y="-71"/>
      <point x="701" y="-53" type="curve" smooth="yes"/>
      <point x="658" y="-10"/>
      <point x="611" y="124"/>
      <point x="612" y="193" type="curve" smooth="yes"/>
      <point x="612" y="235"/>
      <point x="638" y="261"/>
      <point x="692" y="261" type="curve" smooth="yes"/>
    </contour>
    <contour>
      <point x="1110" y="-213" type="move" name="btm"/>
    </contour>
    <contour>
      <point x="1011" y="1279" type="move" name="top"/>
    </contour>
  </outline>
</glyph>
<glyph name="hannadeva" format="1">
  <advance width="1460"/>
  <outline>
    <contour>
      <point x="861" y="524" type="line"/>
      <point x="987" y="524" type="line"/>
      <point x="987" y="220" type="line"/>
      <point x="987" y="72"/>
      <point x="928" y="-40"/>
      <point x="764" y="-40" type="curve" smooth="yes"/>
      <point x="601" y="-40"/>
      <point x="523" y="70"/>
      <point x="523" y="243" type="curve" smooth="yes"/>
      <point x="523" y="524" type="line"/>
      <point x="649" y="524" type="line"/>
      <point x="649" y="201" type="line"/>
      <point x="649" y="119"/>
      <point x="676" y="64"/>
      <point x="748" y="64" type="curve" smooth="yes"/>
      <point x="826" y="64"/>
      <point x="861" y="120"/>
      <point x="861" y="216" type="curve" smooth="yes"/>
    </contour>
    <contour>
      <point x="1490" y="1165" type="line"/>
      <point x="-30" y="1165" type="line"/>
      <point x="-30" y="1279" type="line"/>
      <point x="1490" y="1279" type="line"/>
    </contour>
    <contour>
      <point x="1075" y="1198" type="line"/>
      <point x="1228" y="1198" type="line"/>
      <point x="1228" y="833" type="line"/>
      <point x="432" y="833" type="line"/>
      <point x="307" y="833"/>
      <point x="253" y="774"/>
      <point x="253" y="702" type="curve" smooth="yes"/>
      <point x="253" y="631"/>
      <point x="311" y="574"/>
      <point x="409" y="541" type="curve"/>
      <point x="328" y="447" type="line"/>
      <point x="184" y="518"/>
      <point x="110" y="618"/>
      <point x="110" y="726" type="curve" smooth="yes"/>
      <point x="110" y="850"/>
      <point x="198" y="947"/>
      <point x="404" y="947" type="curve" smooth="yes"/>
      <point x="1114" y="947" type="line"/>
      <point x="1075" y="905" type="line"/>
    </contour>
    <contour>
      <point x="730" y="505" type="curve" smooth="yes"/>
      <point x="439" y="505"/>
      <point x="324" y="359"/>
      <point x="324" y="205" type="curve" smooth="yes"/>
      <point x="324" y="48"/>
      <point x="426" y="-108"/>
      <point x="675" y="-278" type="curve"/>
      <point x="587" y="-359" type="line"/>
      <point x="316" y="-170"/>
      <point x="191" y="21"/>
      <point x="191" y="231" type="curve" smooth="yes"/>
      <point x="191" y="425"/>
      <point x="342" y="628"/>
      <point x="724" y="628" type="curve" smooth="yes"/>
      <point x="1115" y="628"/>
      <point x="1291" y="441"/>
      <point x="1292" y="200" type="curve" smooth="yes"/>
      <point x="1292" y="-213" type="line"/>
      <point x="1150" y="-213" type="line"/>
      <point x="1150" y="211" type="line"/>
      <point x="1150" y="373"/>
      <point x="1039" y="505"/>
    </contour>
    <contour>
      <point x="1150" y="-213" type="move" name="btm"/>
    </contour>
    <contour>
      <point x="1075" y="1279" type="move" name="top"/>
    </contour>
  </outline>
</glyph>
<glyph name="haprehalfdeva" format="1">
  <advance width="849"/>
  <outline>
    <contour>
      <point x="543" y="1198" type="line"/>
      <point x="697" y="1198" type="line"/>
      <point x="697" y="833" type="line"/>
      <point x="432" y="833" type="line"/>
      <point x="307" y="833"/>
      <point x="253" y="774"/>
      <point x="253" y="702" type="curve" smooth="yes"/>
      <point x="253" y="631"/>
      <point x="311" y="574"/>
      <point x="409" y="541" type="curve"/>
      <point x="328" y="447" type="line"/>
      <point x="184" y="518"/>
      <point x="110" y="618"/>
      <point x="110" y="726" type="curve" smooth="yes"/>
      <point x="110" y="850"/>
      <point x="198" y="947"/>
      <point x="404" y="947" type="curve" smooth="yes"/>
      <point x="582" y="947" type="line"/>
      <point x="543" y="905" type="line"/>
    </contour>
    <contour>
      <point x="686" y="609" type="curve" smooth="yes"/>
      <point x="1078" y="609" type="line"/>
      <point x="1088" y="486" type="line"/>
      <point x="693" y="486" type="line"/>
      <point x="429" y="486"/>
      <point x="340" y="373"/>
      <point x="340" y="230" type="curve" smooth="yes"/>
      <point x="340" y="56"/>
      <point x="488" y="-79"/>
      <point x="907" y="-127" type="curve"/>
      <point x="868" y="-240" type="line"/>
      <point x="419" y="-192"/>
      <point x="197" y="-11"/>
      <point x="197" y="249" type="curve" smooth="yes"/>
      <point x="197" y="442"/>
      <point x="332" y="609"/>
    </contour>
    <contour>
      <point x="879" y="1165" type="line"/>
      <point x="-30" y="1165" type="line"/>
      <point x="-30" y="1279" type="line"/>
      <point x="879" y="1279" type="line"/>
    </contour>
  </outline>
</glyph>
<glyph name="haradeva" format="1">
  <advance width="1166"/>
  <outline>
    <contour>
      <point x="874" y="484" type="line"/>
      <point x="615" y="116" type="line"/>
      <point x="503" y="169" type="line"/>
      <point x="762" y="538" type="line"/>
    </contour>
    <contour>
      <point x="784" y="1198" type="line"/>
      <point x="938" y="1198" type="line"/>
      <point x="938" y="833" type="line"/>
      <point x="434" y="833" type="line"/>
      <point x="309" y="833"/>
      <point x="255" y="774"/>
      <point x="255" y="702" type="curve" smooth="yes"/>
      <point x="255" y="631"/>
      <point x="313" y="574"/>
      <point x="411" y="541" type="curve"/>
      <point x="330" y="447" type="line"/>
      <point x="186" y="518"/>
      <point x="113" y="618"/>
      <point x="113" y="726" type="curve" smooth="yes"/>
      <point x="113" y="850"/>
      <point x="201" y="947"/>
      <point x="406" y="947" type="curve" smooth="yes"/>
      <point x="823" y="947" type="line"/>
      <point x="784" y="905" type="line"/>
    </contour>
    <contour>
      <point x="623" y="611" type="curve" smooth="yes"/>
      <point x="878" y="611"/>
      <point x="1027" y="479"/>
      <point x="1027" y="311" type="curve" smooth="yes"/>
      <point x="1027" y="233"/>
      <point x="1005" y="167"/>
      <point x="969" y="105" type="curve"/>
      <point x="846" y="137" type="line"/>
      <point x="880" y="186"/>
      <point x="899" y="246"/>
      <point x="899" y="306" type="curve" smooth="yes"/>
      <point x="899" y="407"/>
      <point x="816" y="493"/>
      <point x="635" y="494" type="curve" smooth="yes"/>
      <point x="448" y="495"/>
      <point x="342" y="373"/>
      <point x="342" y="230" type="curve" smooth="yes"/>
      <point x="342" y="56"/>
      <point x="490" y="-79"/>
      <point x="910" y="-127" type="curve"/>
      <point x="870" y="-240" type="line"/>
      <point x="422" y="-192"/>
      <point x="200" y="-11"/>
      <point x="200" y="248" type="curve" smooth="yes"/>
      <point x="200" y="445"/>
      <point x="359" y="611"/>
    </contour>
    <contour>
      <point x="1196" y="1165" type="line"/>
      <point x="-30" y="1165" type="line"/>
      <point x="-30" y="1279" type="line"/>
      <point x="1196" y="1279" type="line"/>
    </contour>
    <contour>
      <point x="784" y="1279" type="move" name="top"/>
    </contour>
  </outline>
</glyph>
<glyph name="harauudeva" format="1">
  <advance width="1166"/>
  <outline>
    <contour>
      <point x="874" y="484" type="line"/>
      <point x="615" y="116" type="line"/>
      <point x="503" y="169" type="line"/>
      <point x="762" y="538" type="line"/>
    </contour>
    <contour>
      <point x="623" y="611" type="curve" smooth="yes"/>
      <point x="878" y="611"/>
      <point x="1027" y="479"/>
      <point x="1027" y="311" type="curve" smooth="yes"/>
      <point x="1027" y="233"/>
      <point x="1005" y="167"/>
      <point x="969" y="105" type="curve"/>
      <point x="846" y="137" type="line"/>
      <point x="880" y="186"/>
      <point x="899" y="246"/>
      <point x="899" y="306" type="curve" smooth="yes"/>
      <point x="899" y="407"/>
      <point x="816" y="494"/>
      <point x="635" y="494" type="curve" smooth="yes"/>
      <point x="448" y="494"/>
      <point x="342" y="373"/>
      <point x="342" y="230" type="curve" smooth="yes"/>
      <point x="342" y="56"/>
      <point x="492" y="-40"/>
      <point x="712" y="-94" type="curve"/>
      <point x="679" y="-205" type="line"/>
      <point x="425" y="-153"/>
      <point x="200" y="-11"/>
      <point x="200" y="248" type="curve" smooth="yes"/>
      <point x="200" y="445"/>
      <point x="359" y="611"/>
    </contour>
    <contour>
      <point x="784" y="1198" type="line"/>
      <point x="938" y="1198" type="line"/>
      <point x="938" y="833" type="line"/>
      <point x="434" y="833" type="line"/>
      <point x="309" y="833"/>
      <point x="255" y="774"/>
      <point x="255" y="702" type="curve" smooth="yes"/>
      <point x="255" y="631"/>
      <point x="313" y="574"/>
      <point x="411" y="541" type="curve"/>
      <point x="330" y="447" type="line"/>
      <point x="186" y="518"/>
      <point x="113" y="618"/>
      <point x="113" y="726" type="curve" smooth="yes"/>
      <point x="113" y="850"/>
      <point x="201" y="947"/>
      <point x="406" y="947" type="curve" smooth="yes"/>
      <point x="823" y="947" type="line"/>
      <point x="784" y="905" type="line"/>
    </contour>
    <contour>
      <point x="1196" y="1165" type="line"/>
      <point x="-30" y="1165" type="line"/>
      <point x="-30" y="1279" type="line"/>
      <point x="1196" y="1279" type="line"/>
    </contour>
    <component base="uuvowelsigndeva" xOffset="886" yOffset="-86"/>
  </outline>
</glyph>
<glyph name="harrvocalicdeva" format="1">
  <advance width="1176"/>
  <outline>
    <contour>
      <point x="1065" y="247" type="curve"/>
      <point x="1045" y="247"/>
      <point x="958" y="247"/>
      <point x="934" y="247" type="curve" smooth="yes"/>
      <point x="819" y="247"/>
      <point x="771" y="189"/>
      <point x="771" y="133" type="curve" smooth="yes"/>
      <point x="771" y="78"/>
      <point x="818" y="38"/>
      <point x="909" y="38" type="curve" smooth="yes"/>
      <point x="958" y="38"/>
      <point x="1003" y="46"/>
      <point x="1080" y="71" type="curve"/>
      <point x="1101" y="-24" type="line"/>
      <point x="1029" y="-44"/>
      <point x="963" y="-56"/>
      <point x="909" y="-56" type="curve" smooth="yes"/>
      <point x="745" y="-56"/>
      <point x="645" y="32"/>
      <point x="645" y="143" type="curve" smooth="yes"/>
      <point x="645" y="250"/>
      <point x="740" y="340"/>
      <point x="908" y="340" type="curve" smooth="yes"/>
      <point x="931" y="340"/>
      <point x="944" y="340"/>
      <point x="962" y="340" type="curve"/>
      <point x="939" y="318" type="line"/>
      <point x="939" y="413"/>
      <point x="835" y="491"/>
      <point x="654" y="491" type="curve" smooth="yes"/>
      <point x="445" y="491"/>
      <point x="334" y="372"/>
      <point x="334" y="222" type="curve" smooth="yes"/>
      <point x="334" y="47"/>
      <point x="453" y="-103"/>
      <point x="685" y="-253" type="curve"/>
      <point x="604" y="-339" type="line"/>
      <point x="357" y="-178"/>
      <point x="197" y="4"/>
      <point x="197" y="242" type="curve" smooth="yes"/>
      <point x="197" y="442"/>
      <point x="357" y="611"/>
      <point x="645" y="611" type="curve" smooth="yes"/>
      <point x="903" y="611"/>
      <point x="1067" y="474"/>
      <point x="1067" y="311" type="curve"/>
      <point x="1067" y="299"/>
      <point x="1066" y="255"/>
    </contour>
    <contour>
      <point x="1206" y="1165" type="line"/>
      <point x="-30" y="1165" type="line"/>
      <point x="-30" y="1279" type="line"/>
      <point x="1206" y="1279" type="line"/>
    </contour>
    <contour>
      <point x="754" y="1198" type="line"/>
      <point x="907" y="1198" type="line"/>
      <point x="907" y="833" type="line"/>
      <point x="432" y="833" type="line"/>
      <point x="307" y="833"/>
      <point x="253" y="774"/>
      <point x="253" y="702" type="curve" smooth="yes"/>
      <point x="253" y="631"/>
      <point x="311" y="574"/>
      <point x="409" y="541" type="curve"/>
      <point x="328" y="447" type="line"/>
      <point x="184" y="518"/>
      <point x="110" y="618"/>
      <point x="110" y="726" type="curve" smooth="yes"/>
      <point x="110" y="850"/>
      <point x="198" y="947"/>
      <point x="404" y="947" type="curve" smooth="yes"/>
      <point x="793" y="947" type="line"/>
      <point x="754" y="905" type="line"/>
    </contour>
    <contour>
      <point x="1174" y="-283" type="line"/>
      <point x="1124" y="-305"/>
      <point x="1055" y="-324"/>
      <point x="989" y="-324" type="curve" smooth="yes"/>
      <point x="844" y="-324"/>
      <point x="762" y="-239"/>
      <point x="762" y="-148" type="curve" smooth="yes"/>
      <point x="762" y="-50"/>
      <point x="837" y="29"/>
      <point x="994" y="30" type="curve"/>
      <point x="1008" y="-37" type="line"/>
      <point x="917" y="-41"/>
      <point x="870" y="-89"/>
      <point x="870" y="-148" type="curve" smooth="yes"/>
      <point x="870" y="-197"/>
      <point x="913" y="-235"/>
      <point x="996" y="-235" type="curve" smooth="yes"/>
      <point x="1044" y="-235"/>
      <point x="1095" y="-222"/>
      <point x="1154" y="-195" type="curve"/>
    </contour>
  </outline>
</glyph>
<glyph name="harvocalicdeva" format="1">
  <advance width="1176"/>
  <outline>
    <contour>
      <point x="1206" y="1165" type="line"/>
      <point x="-30" y="1165" type="line"/>
      <point x="-30" y="1279" type="line"/>
      <point x="1206" y="1279" type="line"/>
    </contour>
    <contour>
      <point x="754" y="1198" type="line"/>
      <point x="907" y="1198" type="line"/>
      <point x="907" y="833" type="line"/>
      <point x="432" y="833" type="line"/>
      <point x="307" y="833"/>
      <point x="253" y="774"/>
      <point x="253" y="702" type="curve" smooth="yes"/>
      <point x="253" y="631"/>
      <point x="311" y="574"/>
      <point x="409" y="541" type="curve"/>
      <point x="328" y="447" type="line"/>
      <point x="184" y="518"/>
      <point x="110" y="618"/>
      <point x="110" y="726" type="curve" smooth="yes"/>
      <point x="110" y="850"/>
      <point x="198" y="947"/>
      <point x="404" y="947" type="curve" smooth="yes"/>
      <point x="793" y="947" type="line"/>
      <point x="754" y="905" type="line"/>
    </contour>
    <contour>
      <point x="645" y="611" type="curve" smooth="yes"/>
      <point x="903" y="611"/>
      <point x="1067" y="474"/>
      <point x="1067" y="311" type="curve"/>
      <point x="1067" y="299"/>
      <point x="1066" y="259"/>
      <point x="1065" y="251" type="curve"/>
      <point x="1050" y="251"/>
      <point x="952" y="251"/>
      <point x="934" y="251" type="curve" smooth="yes"/>
      <point x="808" y="251"/>
      <point x="752" y="183"/>
      <point x="752" y="115" type="curve" smooth="yes"/>
      <point x="752" y="49"/>
      <point x="804" y="0"/>
      <point x="899" y="0" type="curve" smooth="yes"/>
      <point x="956" y="0"/>
      <point x="1000" y="8"/>
      <point x="1075" y="39" type="curve"/>
      <point x="1096" y="-61" type="line"/>
      <point x="1019" y="-90"/>
      <point x="969" y="-100"/>
      <point x="896" y="-100" type="curve" smooth="yes"/>
      <point x="748" y="-100"/>
      <point x="625" y="-11"/>
      <point x="625" y="125" type="curve" smooth="yes"/>
      <point x="625" y="249"/>
      <point x="731" y="344"/>
      <point x="902" y="344" type="curve" smooth="yes"/>
      <point x="924" y="344"/>
      <point x="957" y="344"/>
      <point x="975" y="344" type="curve"/>
      <point x="940" y="321" type="line"/>
      <point x="940" y="412"/>
      <point x="837" y="491"/>
      <point x="654" y="491" type="curve" smooth="yes"/>
      <point x="445" y="491"/>
      <point x="334" y="372"/>
      <point x="334" y="222" type="curve" smooth="yes"/>
      <point x="334" y="47"/>
      <point x="453" y="-103"/>
      <point x="685" y="-253" type="curve"/>
      <point x="604" y="-339" type="line"/>
      <point x="357" y="-178"/>
      <point x="197" y="4"/>
      <point x="197" y="242" type="curve" smooth="yes"/>
      <point x="197" y="442"/>
      <point x="357" y="611"/>
    </contour>
  </outline>
</glyph>
<glyph name="haudeva" format="1">
  <advance width="1149"/>
  <outline>
    <contour>
      <point x="760" y="1198" type="line"/>
      <point x="913" y="1198" type="line"/>
      <point x="913" y="833" type="line"/>
      <point x="432" y="833" type="line"/>
      <point x="307" y="833"/>
      <point x="253" y="774"/>
      <point x="253" y="702" type="curve" smooth="yes"/>
      <point x="253" y="631"/>
      <point x="311" y="574"/>
      <point x="409" y="541" type="curve"/>
      <point x="328" y="447" type="line"/>
      <point x="184" y="518"/>
      <point x="110" y="618"/>
      <point x="110" y="726" type="curve" smooth="yes"/>
      <point x="110" y="850"/>
      <point x="198" y="947"/>
      <point x="404" y="947" type="curve" smooth="yes"/>
      <point x="799" y="947" type="line"/>
      <point x="760" y="905" type="line"/>
    </contour>
    <contour>
      <point x="1179" y="1165" type="line"/>
      <point x="-30" y="1165" type="line"/>
      <point x="-30" y="1279" type="line"/>
      <point x="1179" y="1279" type="line"/>
    </contour>
    <contour>
      <point x="340" y="230" type="curve" smooth="yes"/>
      <point x="340" y="56"/>
      <point x="490" y="-50"/>
      <point x="747" y="-101" type="curve"/>
      <point x="707" y="-213" type="line"/>
      <point x="419" y="-160"/>
      <point x="197" y="-11"/>
      <point x="197" y="249" type="curve" smooth="yes"/>
      <point x="197" y="446"/>
      <point x="350" y="609"/>
      <point x="609" y="609" type="curve" smooth="yes"/>
      <point x="855" y="609"/>
      <point x="1001" y="480"/>
      <point x="1001" y="311" type="curve" smooth="yes"/>
      <point x="1001" y="233"/>
      <point x="977" y="166"/>
      <point x="941" y="105" type="curve"/>
      <point x="815" y="137" type="line"/>
      <point x="849" y="187"/>
      <point x="867" y="244"/>
      <point x="867" y="303" type="curve" smooth="yes"/>
      <point x="867" y="398"/>
      <point x="785" y="485"/>
      <point x="617" y="486" type="curve" smooth="yes"/>
      <point x="446" y="487"/>
      <point x="340" y="371"/>
    </contour>
    <component base="uvowelsigndeva" xOffset="1007" yOffset="-111"/>
  </outline>
</glyph>
<glyph name="hauudeva" format="1">
  <advance width="1149"/>
  <outline>
    <contour>
      <point x="760" y="1198" type="line"/>
      <point x="913" y="1198" type="line"/>
      <point x="913" y="833" type="line"/>
      <point x="432" y="833" type="line"/>
      <point x="307" y="833"/>
      <point x="253" y="774"/>
      <point x="253" y="702" type="curve" smooth="yes"/>
      <point x="253" y="631"/>
      <point x="311" y="574"/>
      <point x="409" y="541" type="curve"/>
      <point x="328" y="447" type="line"/>
      <point x="184" y="518"/>
      <point x="110" y="618"/>
      <point x="110" y="726" type="curve" smooth="yes"/>
      <point x="110" y="850"/>
      <point x="198" y="947"/>
      <point x="404" y="947" type="curve" smooth="yes"/>
      <point x="799" y="947" type="line"/>
      <point x="760" y="905" type="line"/>
    </contour>
    <contour>
      <point x="608" y="609" type="curve" smooth="yes"/>
      <point x="863" y="609"/>
      <point x="1001" y="475"/>
      <point x="1001" y="311" type="curve" smooth="yes"/>
      <point x="1001" y="233"/>
      <point x="977" y="166"/>
      <point x="941" y="105" type="curve"/>
      <point x="815" y="137" type="line"/>
      <point x="849" y="187"/>
      <point x="867" y="244"/>
      <point x="867" y="303" type="curve" smooth="yes"/>
      <point x="867" y="398"/>
      <point x="785" y="486"/>
      <point x="617" y="486" type="curve" smooth="yes"/>
      <point x="447" y="486"/>
      <point x="340" y="370"/>
      <point x="340" y="230" type="curve" smooth="yes"/>
      <point x="340" y="57"/>
      <point x="490" y="-42"/>
      <point x="690" y="-89" type="curve"/>
      <point x="649" y="-200" type="line"/>
      <point x="422" y="-152"/>
      <point x="197" y="-11"/>
      <point x="197" y="249" type="curve" smooth="yes"/>
      <point x="197" y="445"/>
      <point x="348" y="609"/>
    </contour>
    <contour>
      <point x="1179" y="1165" type="line"/>
      <point x="-30" y="1165" type="line"/>
      <point x="-30" y="1279" type="line"/>
      <point x="1179" y="1279" type="line"/>
    </contour>
    <component base="uuvowelsigndeva" xOffset="885" yOffset="-88"/>
  </outline>
</glyph>
<glyph name="havadeva" format="1">
  <advance width="1420"/>
  <outline>
    <contour>
      <point x="721" y="628" type="curve" smooth="yes"/>
      <point x="1089" y="628"/>
      <point x="1263" y="441"/>
      <point x="1264" y="200" type="curve" smooth="yes"/>
      <point x="1264" y="-213" type="line"/>
      <point x="1122" y="-213" type="line"/>
      <point x="1122" y="211" type="line"/>
      <point x="1122" y="373"/>
      <point x="1021" y="505"/>
      <point x="730" y="505" type="curve" smooth="yes"/>
      <point x="439" y="505"/>
      <point x="324" y="359"/>
      <point x="324" y="205" type="curve" smooth="yes"/>
      <point x="324" y="48"/>
      <point x="424" y="-105"/>
      <point x="675" y="-278" type="curve"/>
      <point x="587" y="-359" type="line"/>
      <point x="316" y="-169"/>
      <point x="191" y="21"/>
      <point x="191" y="231" type="curve" smooth="yes"/>
      <point x="191" y="425"/>
      <point x="344" y="628"/>
    </contour>
    <contour>
      <point x="1450" y="1165" type="line"/>
      <point x="-30" y="1165" type="line"/>
      <point x="-30" y="1279" type="line"/>
      <point x="1450" y="1279" type="line"/>
    </contour>
    <contour>
      <point x="1040" y="1198" type="line"/>
      <point x="1194" y="1198" type="line"/>
      <point x="1194" y="833" type="line"/>
      <point x="434" y="833" type="line"/>
      <point x="302" y="833"/>
      <point x="253" y="776"/>
      <point x="253" y="702" type="curve" smooth="yes"/>
      <point x="253" y="636"/>
      <point x="308" y="578"/>
      <point x="409" y="541" type="curve"/>
      <point x="330" y="447" type="line"/>
      <point x="179" y="523"/>
      <point x="110" y="618"/>
      <point x="110" y="732" type="curve" smooth="yes"/>
      <point x="110" y="850"/>
      <point x="198" y="947"/>
      <point x="400" y="947" type="curve" smooth="yes"/>
      <point x="1079" y="947" type="line"/>
      <point x="1040" y="905" type="line"/>
    </contour>
    <contour>
      <point x="1133" y="94" type="curve"/>
      <point x="1133" y="-42" type="line"/>
      <point x="1072" y="-88"/>
      <point x="998" y="-119"/>
      <point x="907" y="-119" type="curve" smooth="yes"/>
      <point x="727" y="-119"/>
      <point x="606" y="-2"/>
      <point x="606" y="141" type="curve" smooth="yes"/>
      <point x="606" y="251"/>
      <point x="703" y="346"/>
      <point x="868" y="346" type="curve" smooth="yes"/>
      <point x="986" y="346"/>
      <point x="1084" y="319"/>
      <point x="1161" y="267" type="curve"/>
      <point x="1161" y="170" type="line"/>
      <point x="1076" y="225"/>
      <point x="1001" y="248"/>
      <point x="907" y="248" type="curve" smooth="yes"/>
      <point x="791" y="248"/>
      <point x="726" y="192"/>
      <point x="726" y="120" type="curve" smooth="yes"/>
      <point x="726" y="37"/>
      <point x="802" y="-19"/>
      <point x="890" y="-19" type="curve" smooth="yes"/>
      <point x="987" y="-19"/>
      <point x="1061" y="15"/>
    </contour>
    <contour>
      <point x="1122" y="-213" type="move" name="btm"/>
    </contour>
    <contour>
      <point x="1040" y="1279" type="move" name="top"/>
    </contour>
  </outline>
</glyph>
<glyph name="hayadeva" format="1">
  <advance width="1766"/>
  <outline>
    <contour>
      <point x="329" y="217" type="curve" smooth="yes"/>
      <point x="329" y="60"/>
      <point x="430" y="-96"/>
      <point x="680" y="-266" type="curve"/>
      <point x="590" y="-348" type="line"/>
      <point x="322" y="-160"/>
      <point x="195" y="30"/>
      <point x="195" y="240" type="curve" smooth="yes"/>
      <point x="195" y="439"/>
      <point x="345" y="611"/>
      <point x="643" y="611" type="curve" smooth="yes"/>
      <point x="923" y="611"/>
      <point x="1058" y="470"/>
      <point x="1058" y="339" type="curve" smooth="yes"/>
      <point x="1058" y="211"/>
      <point x="953" y="140"/>
      <point x="754" y="77" type="curve"/>
      <point x="760" y="146" type="line"/>
      <point x="834" y="10"/>
      <point x="957" y="-62"/>
      <point x="1088" y="-62" type="curve" smooth="yes"/>
      <point x="1223" y="-62"/>
      <point x="1344" y="2"/>
      <point x="1436" y="137" type="curve"/>
      <point x="1435" y="-62" type="line"/>
      <point x="1356" y="-141"/>
      <point x="1259" y="-190"/>
      <point x="1118" y="-190" type="curve" smooth="yes"/>
      <point x="920" y="-190"/>
      <point x="732" y="-70"/>
      <point x="616" y="149" type="curve"/>
      <point x="616" y="154" type="line"/>
      <point x="835" y="212"/>
      <point x="921" y="258"/>
      <point x="921" y="340" type="curve" smooth="yes"/>
      <point x="921" y="415"/>
      <point x="835" y="492"/>
      <point x="642" y="492" type="curve" smooth="yes"/>
      <point x="441" y="492"/>
      <point x="329" y="372"/>
    </contour>
    <contour>
      <point x="1796" y="1165" type="line"/>
      <point x="-30" y="1165" type="line"/>
      <point x="-30" y="1279" type="line"/>
      <point x="1796" y="1279" type="line"/>
    </contour>
    <contour>
      <point x="841" y="1198" type="line"/>
      <point x="994" y="1198" type="line"/>
      <point x="994" y="833" type="line"/>
      <point x="432" y="833" type="line"/>
      <point x="307" y="833"/>
      <point x="253" y="774"/>
      <point x="253" y="702" type="curve" smooth="yes"/>
      <point x="253" y="631"/>
      <point x="311" y="574"/>
      <point x="409" y="541" type="curve"/>
      <point x="328" y="447" type="line"/>
      <point x="184" y="518"/>
      <point x="110" y="618"/>
      <point x="110" y="726" type="curve" smooth="yes"/>
      <point x="110" y="850"/>
      <point x="198" y="947"/>
      <point x="404" y="947" type="curve" smooth="yes"/>
      <point x="880" y="947" type="line"/>
      <point x="841" y="905" type="line"/>
    </contour>
    <contour>
      <point x="1385" y="1181" type="line"/>
      <point x="1539" y="1181" type="line"/>
      <point x="1539" y="-363" type="line"/>
      <point x="1385" y="-363" type="line"/>
    </contour>
    <contour>
      <point x="1385" y="-363" type="move" name="btm"/>
    </contour>
    <contour>
      <point x="1385" y="1279" type="move" name="top"/>
    </contour>
  </outline>
</glyph>
<glyph name="iivowelsign3deva" format="1">
  <advance width="594"/>
  <outline>
    <contour>
      <point x="197" y="1239" type="line"/>
      <point x="-62" y="1485"/>
      <point x="-318" y="1628"/>
      <point x="-554" y="1628" type="curve" smooth="yes"/>
      <point x="-710" y="1628"/>
      <point x="-773" y="1544"/>
      <point x="-773" y="1449" type="curve" smooth="yes"/>
      <point x="-773" y="1383"/>
      <point x="-749" y="1324"/>
      <point x="-699" y="1258" type="curve"/>
      <point x="-853" y="1258" type="line"/>
      <point x="-892" y="1328"/>
      <point x="-917" y="1404"/>
      <point x="-917" y="1479" type="curve" smooth="yes"/>
      <point x="-917" y="1625"/>
      <point x="-811" y="1761"/>
      <point x="-579" y="1761" type="curve" smooth="yes"/>
      <point x="-262" y="1761"/>
      <point x="76" y="1571"/>
      <point x="379" y="1239" type="curve"/>
    </contour>
    <component base="aavowelsigndeva"/>
  </outline>
</glyph>
<glyph name="ivowelsign01deva" format="1">
  <advance width="594"/>
  <outline>
    <contour>
      <point x="206" y="1254" type="line"/>
      <point x="206" y="1377" type="line" smooth="yes"/>
      <point x="206" y="1582"/>
      <point x="341" y="1741"/>
      <point x="601" y="1741" type="curve" smooth="yes"/>
      <point x="763" y="1741"/>
      <point x="925" y="1699"/>
      <point x="1135" y="1598" type="curve"/>
      <point x="1091" y="1487" type="line"/>
      <point x="896" y="1577"/>
      <point x="753" y="1610"/>
      <point x="620" y="1610" type="curve" smooth="yes"/>
      <point x="450" y="1610"/>
      <point x="354" y="1505"/>
      <point x="354" y="1366" type="curve" smooth="yes"/>
      <point x="354" y="1254" type="line"/>
    </contour>
    <component base="aavowelsigndeva"/>
  </outline>
</glyph>
<glyph name="ivowelsign07deva" format="1">
  <advance width="594"/>
  <outline>
    <contour>
      <point x="206" y="1254" type="line"/>
      <point x="206" y="1354" type="line" smooth="yes"/>
      <point x="206" y="1561"/>
      <point x="337" y="1754"/>
      <point x="858" y="1754" type="curve" smooth="yes"/>
      <point x="1228" y="1754"/>
      <point x="1649" y="1703"/>
      <point x="2083" y="1615" type="curve"/>
      <point x="2054" y="1498" type="line"/>
      <point x="1643" y="1579"/>
      <point x="1224" y="1622"/>
      <point x="882" y="1622" type="curve" smooth="yes"/>
      <point x="461" y="1621"/>
      <point x="354" y="1490"/>
      <point x="354" y="1340" type="curve" smooth="yes"/>
      <point x="354" y="1254" type="line"/>
    </contour>
    <component base="aavowelsigndeva"/>
  </outline>
</glyph>
<glyph name="ivowelsign10deva" format="1">
  <advance width="594"/>
  <outline>
    <contour>
      <point x="206" y="1254" type="line"/>
      <point x="206" y="1354" type="line" smooth="yes"/>
      <point x="206" y="1567"/>
      <point x="349" y="1753"/>
      <point x="858" y="1753" type="curve" smooth="yes"/>
      <point x="1340" y="1753"/>
      <point x="2055" y="1701"/>
      <point x="2745" y="1609" type="curve"/>
      <point x="2717" y="1493" type="line"/>
      <point x="2022" y="1580"/>
      <point x="1379" y="1623"/>
      <point x="902" y="1623" type="curve" smooth="yes"/>
      <point x="457" y="1623"/>
      <point x="354" y="1491"/>
      <point x="354" y="1340" type="curve" smooth="yes"/>
      <point x="354" y="1254" type="line"/>
    </contour>
    <component base="aavowelsigndeva"/>
  </outline>
</glyph>
<glyph name="jajadeva" format="1">
  <advance width="2246"/>
  <outline>
    <contour>
      <point x="-30" y="1165" type="line"/>
      <point x="-30" y="1279" type="line"/>
      <point x="921" y="1279" type="line"/>
      <point x="921" y="1165" type="line"/>
    </contour>
    <contour>
      <point x="658" y="764" type="line"/>
      <point x="665" y="805" type="line"/>
      <point x="811" y="738"/>
      <point x="919" y="607"/>
      <point x="919" y="449" type="curve" smooth="yes"/>
      <point x="919" y="286"/>
      <point x="806" y="160"/>
      <point x="615" y="160" type="curve" smooth="yes"/>
      <point x="419" y="160"/>
      <point x="242" y="294"/>
      <point x="78" y="557" type="curve"/>
      <point x="155" y="662" type="line"/>
      <point x="322" y="398"/>
      <point x="459" y="295"/>
      <point x="590" y="295" type="curve" smooth="yes"/>
      <point x="715" y="295"/>
      <point x="782" y="372"/>
      <point x="782" y="477" type="curve" smooth="yes"/>
      <point x="782" y="598"/>
      <point x="667" y="725"/>
      <point x="476" y="780" type="curve"/>
      <point x="476" y="891" type="line"/>
      <point x="1227" y="891" type="line"/>
      <point x="1227" y="764" type="line"/>
    </contour>
    <component base="jadeva" xOffset="692"/>
    <contour>
      <point x="1858" y="1279" type="move" name="top"/>
    </contour>
  </outline>
</glyph>
<glyph name="janyadeva" format="1">
  <advance width="1455"/>
  <outline>
    <contour>
      <point x="415" y="126" type="curve"/>
      <point x="426" y="105" type="line"/>
      <point x="666" y="-168" type="line"/>
      <point x="568" y="-235" type="line"/>
      <point x="279" y="95" type="line"/>
      <point x="352" y="47" type="line"/>
      <point x="159" y="47"/>
      <point x="68" y="98"/>
      <point x="68" y="170" type="curve" smooth="yes"/>
      <point x="68" y="232"/>
      <point x="121" y="283"/>
      <point x="192" y="283" type="curve" smooth="yes"/>
      <point x="253" y="283"/>
      <point x="315" y="244"/>
    </contour>
    <contour>
      <point x="-30" y="1165" type="line"/>
      <point x="-30" y="1279" type="line"/>
      <point x="1485" y="1279" type="line"/>
      <point x="1485" y="1165" type="line"/>
    </contour>
    <contour>
      <point x="433" y="839" type="line" smooth="yes"/>
      <point x="323" y="839"/>
      <point x="276" y="797"/>
      <point x="276" y="731" type="curve" smooth="yes"/>
      <point x="276" y="664"/>
      <point x="333" y="623"/>
      <point x="484" y="591" type="curve" smooth="yes"/>
      <point x="673" y="551"/>
      <point x="769" y="464"/>
      <point x="769" y="319" type="curve" smooth="yes"/>
      <point x="769" y="172"/>
      <point x="616" y="49"/>
      <point x="380" y="49" type="curve"/>
      <point x="350" y="156" type="line"/>
      <point x="543" y="156"/>
      <point x="635" y="247"/>
      <point x="635" y="326" type="curve" smooth="yes"/>
      <point x="635" y="407"/>
      <point x="566" y="459"/>
      <point x="395" y="500" type="curve" smooth="yes"/>
      <point x="221" y="541"/>
      <point x="135" y="630"/>
      <point x="135" y="742" type="curve" smooth="yes"/>
      <point x="135" y="859"/>
      <point x="216" y="951"/>
      <point x="415" y="951" type="curve" smooth="yes"/>
      <point x="1085" y="951" type="line"/>
      <point x="1085" y="839" type="line"/>
    </contour>
    <contour>
      <point x="1052" y="1205" type="line"/>
      <point x="1205" y="1205" type="line"/>
      <point x="1205" y="0" type="line"/>
      <point x="1052" y="0" type="line"/>
    </contour>
    <contour>
      <point x="1052" y="1279" type="move" name="top"/>
    </contour>
  </outline>
</glyph>
<glyph name="janyaprehalfdeva" format="1">
  <advance width="849"/>
  <outline>
    <contour>
      <point x="412" y="126" type="curve"/>
      <point x="424" y="104" type="line"/>
      <point x="664" y="-168" type="line"/>
      <point x="565" y="-235" type="line"/>
      <point x="277" y="95" type="line"/>
      <point x="350" y="47" type="line"/>
      <point x="157" y="47"/>
      <point x="65" y="98"/>
      <point x="65" y="170" type="curve" smooth="yes"/>
      <point x="65" y="232"/>
      <point x="119" y="283"/>
      <point x="189" y="283" type="curve" smooth="yes"/>
      <point x="251" y="283"/>
      <point x="313" y="244"/>
    </contour>
    <contour>
      <point x="-30" y="1165" type="line"/>
      <point x="-30" y="1279" type="line"/>
      <point x="879" y="1279" type="line"/>
      <point x="879" y="1165" type="line"/>
    </contour>
    <contour>
      <point x="427" y="839" type="line" smooth="yes"/>
      <point x="317" y="839"/>
      <point x="275" y="797"/>
      <point x="275" y="731" type="curve" smooth="yes"/>
      <point x="275" y="664"/>
      <point x="331" y="624"/>
      <point x="481" y="591" type="curve" smooth="yes"/>
      <point x="675" y="550"/>
      <point x="767" y="463"/>
      <point x="767" y="319" type="curve" smooth="yes"/>
      <point x="767" y="172"/>
      <point x="613" y="49"/>
      <point x="378" y="49" type="curve"/>
      <point x="347" y="156" type="line"/>
      <point x="541" y="156"/>
      <point x="633" y="247"/>
      <point x="633" y="326" type="curve" smooth="yes"/>
      <point x="633" y="407"/>
      <point x="564" y="459"/>
      <point x="392" y="500" type="curve" smooth="yes"/>
      <point x="218" y="541"/>
      <point x="128" y="625"/>
      <point x="128" y="746" type="curve" smooth="yes"/>
      <point x="128" y="859"/>
      <point x="216" y="951"/>
      <point x="415" y="951" type="curve" smooth="yes"/>
      <point x="1100" y="951" type="line"/>
      <point x="1090" y="839" type="line"/>
    </contour>
  </outline>
</glyph>
<glyph name="janyaradeva" format="1">
  <advance width="1455"/>
  <outline>
    <contour>
      <point x="1176" y="611" type="line"/>
      <point x="801" y="31" type="line"/>
      <point x="691" y="105" type="line"/>
      <point x="1074" y="694" type="line"/>
    </contour>
    <contour>
      <point x="415" y="126" type="curve"/>
      <point x="426" y="105" type="line"/>
      <point x="666" y="-168" type="line"/>
      <point x="568" y="-235" type="line"/>
      <point x="279" y="95" type="line"/>
      <point x="352" y="47" type="line"/>
      <point x="159" y="47"/>
      <point x="68" y="98"/>
      <point x="68" y="170" type="curve" smooth="yes"/>
      <point x="68" y="232"/>
      <point x="121" y="283"/>
      <point x="192" y="283" type="curve" smooth="yes"/>
      <point x="253" y="283"/>
      <point x="315" y="244"/>
    </contour>
    <contour>
      <point x="-30" y="1165" type="line"/>
      <point x="-30" y="1279" type="line"/>
      <point x="1485" y="1279" type="line"/>
      <point x="1485" y="1165" type="line"/>
    </contour>
    <contour>
      <point x="433" y="839" type="line" smooth="yes"/>
      <point x="324" y="839"/>
      <point x="276" y="797"/>
      <point x="276" y="732" type="curve" smooth="yes"/>
      <point x="276" y="674"/>
      <point x="312" y="638"/>
      <point x="458" y="586" type="curve" smooth="yes"/>
      <point x="626" y="530"/>
      <point x="720" y="443"/>
      <point x="720" y="310" type="curve" smooth="yes"/>
      <point x="720" y="171"/>
      <point x="593" y="49"/>
      <point x="380" y="49" type="curve"/>
      <point x="350" y="156" type="line"/>
      <point x="520" y="156"/>
      <point x="584" y="238"/>
      <point x="584" y="310" type="curve" smooth="yes"/>
      <point x="584" y="390"/>
      <point x="524" y="442"/>
      <point x="368" y="497" type="curve" smooth="yes"/>
      <point x="203" y="555"/>
      <point x="135" y="639"/>
      <point x="135" y="744" type="curve" smooth="yes"/>
      <point x="135" y="862"/>
      <point x="226" y="951"/>
      <point x="409" y="951" type="curve" smooth="yes"/>
      <point x="1085" y="951" type="line"/>
      <point x="1085" y="839" type="line"/>
    </contour>
    <contour>
      <point x="1052" y="1205" type="line"/>
      <point x="1205" y="1205" type="line"/>
      <point x="1205" y="0" type="line"/>
      <point x="1052" y="0" type="line"/>
    </contour>
    <contour>
      <point x="1052" y="1279" type="move" name="top"/>
    </contour>
  </outline>
</glyph>
